<svg width="393" height="233" viewBox="0 0 393 233" fill="none" xmlns="http://www.w3.org/2000/svg">
<g filter="url(#filter0_d_650_248)">
<rect x="60.3652" y="56.8799" width="272.382" height="111.871" rx="55.9357" fill="#848484"/>
</g>
<g filter="url(#filter1_dd_650_248)">
<ellipse cx="274.785" cy="112.815" rx="48.2344" ry="48.6397" fill="white"/>
</g>
<g filter="url(#filter2_d_650_248)">
<path d="M135.761 104.377C135.761 107.855 132.932 110.684 129.454 110.684C125.976 110.684 123.147 107.855 123.147 104.377C123.147 100.899 125.976 98.0704 129.454 98.0704C132.932 98.0704 135.761 100.899 135.761 104.377ZM132.157 113.909C131.256 114.143 130.355 114.288 129.454 114.288C126.827 114.283 124.309 113.237 122.451 111.38C120.594 109.522 119.548 107.004 119.543 104.377C119.543 101.728 120.589 99.3317 122.246 97.5478C121.919 97.1469 121.507 96.8241 121.039 96.6028C120.572 96.3815 120.061 96.2672 119.543 96.2684C117.561 96.2684 115.94 97.8902 115.94 99.8723V100.395C110.588 101.981 106.93 106.9 106.93 112.486V123.297L103.326 126.901V128.703H135.761V126.901L132.157 123.297V113.909ZM119.543 134.109C121.544 134.109 123.147 132.505 123.147 130.505H115.94C115.94 131.461 116.319 132.377 116.995 133.053C117.671 133.729 118.588 134.109 119.543 134.109Z" fill="white"/>
</g>
<g filter="url(#filter3_d_650_248)">
<path d="M190.331 115.294L179.647 125.978C179.024 126.6 178.582 127.38 178.368 128.234L177.539 131.548C177.457 131.877 177.462 132.222 177.553 132.549C177.644 132.877 177.818 133.175 178.058 133.415C178.298 133.655 178.596 133.828 178.924 133.919C179.251 134.01 179.596 134.014 179.925 133.932L183.239 133.105C184.093 132.891 184.873 132.449 185.495 131.826L196.179 121.142C196.945 120.365 197.372 119.316 197.368 118.224C197.363 117.133 196.928 116.087 196.156 115.315C195.384 114.544 194.338 114.108 193.246 114.104C192.155 114.1 191.106 114.528 190.329 115.294M170.843 97.4917C170.843 97.1984 170.726 96.9171 170.519 96.7097C170.312 96.5023 170.03 96.3857 169.737 96.3857C169.444 96.3857 169.162 96.5023 168.955 96.7097C168.748 96.9171 168.631 97.1984 168.631 97.4917V98.5977H167.525C166.645 98.5977 165.801 98.9473 165.179 99.5696C164.557 100.192 164.207 101.036 164.207 101.916V128.46C164.207 129.34 164.557 130.184 165.179 130.806C165.801 131.428 166.645 131.778 167.525 131.778H175.274C175.289 131.526 175.329 131.269 175.393 131.01L176.223 127.697C176.532 126.453 177.175 125.318 178.081 124.412L188.765 113.728C189.335 113.157 190.009 112.7 190.751 112.383V101.916C190.751 101.036 190.401 100.192 189.779 99.5696C189.157 98.9473 188.313 98.5977 187.433 98.5977H186.327V97.4917C186.327 97.1984 186.21 96.9171 186.003 96.7097C185.796 96.5023 185.514 96.3857 185.221 96.3857C184.928 96.3857 184.646 96.5023 184.439 96.7097C184.232 96.9171 184.115 97.1984 184.115 97.4917V98.5977H178.585V97.4917C178.585 97.1984 178.468 96.9171 178.261 96.7097C178.054 96.5023 177.772 96.3857 177.479 96.3857C177.186 96.3857 176.904 96.5023 176.697 96.7097C176.49 96.9171 176.373 97.1984 176.373 97.4917V98.5977H170.843V97.4917ZM171.949 107.446H183.009C183.302 107.446 183.584 107.562 183.791 107.77C183.998 107.977 184.115 108.258 184.115 108.552C184.115 108.845 183.998 109.126 183.791 109.334C183.584 109.541 183.302 109.658 183.009 109.658H171.949C171.656 109.658 171.374 109.541 171.167 109.334C170.96 109.126 170.843 108.845 170.843 108.552C170.843 108.258 170.96 107.977 171.167 107.77C171.374 107.562 171.656 107.446 171.949 107.446ZM184.115 115.188C184.115 115.481 183.998 115.762 183.791 115.97C183.584 116.177 183.302 116.294 183.009 116.294H171.949C171.656 116.294 171.374 116.177 171.167 115.97C170.96 115.762 170.843 115.481 170.843 115.188C170.843 114.894 170.96 114.613 171.167 114.406C171.374 114.198 171.656 114.082 171.949 114.082H183.009C183.302 114.082 183.584 114.198 183.791 114.406C183.998 114.613 184.115 114.894 184.115 115.188ZM171.949 120.718H176.373C176.666 120.718 176.948 120.834 177.155 121.042C177.362 121.249 177.479 121.53 177.479 121.824C177.479 122.117 177.362 122.398 177.155 122.606C176.948 122.813 176.666 122.93 176.373 122.93H171.949C171.656 122.93 171.374 122.813 171.167 122.606C170.96 122.398 170.843 122.117 170.843 121.824C170.843 121.53 170.96 121.249 171.167 121.042C171.374 120.834 171.656 120.718 171.949 120.718Z" fill="white"/>
</g>
<defs>
<filter id="filter0_d_650_248" x="0.365234" y="0.879883" width="392.383" height="231.871" filterUnits="userSpaceOnUse" color-interpolation-filters="sRGB">
<feFlood flood-opacity="0" result="BackgroundImageFix"/>
<feColorMatrix in="SourceAlpha" type="matrix" values="0 0 0 0 0 0 0 0 0 0 0 0 0 0 0 0 0 0 127 0" result="hardAlpha"/>
<feOffset dy="4"/>
<feGaussianBlur stdDeviation="30"/>
<feComposite in2="hardAlpha" operator="out"/>
<feColorMatrix type="matrix" values="0 0 0 0 0.208333 0 0 0 0 0.6675 0 0 0 0 1 0 0 0 0.15 0"/>
<feBlend mode="normal" in2="BackgroundImageFix" result="effect1_dropShadow_650_248"/>
<feBlend mode="normal" in="SourceGraphic" in2="effect1_dropShadow_650_248" result="shape"/>
</filter>
<filter id="filter1_dd_650_248" x="166.551" y="8.17566" width="216.469" height="217.279" filterUnits="userSpaceOnUse" color-interpolation-filters="sRGB">
<feFlood flood-opacity="0" result="BackgroundImageFix"/>
<feColorMatrix in="SourceAlpha" type="matrix" values="0 0 0 0 0 0 0 0 0 0 0 0 0 0 0 0 0 0 127 0" result="hardAlpha"/>
<feOffset dy="4"/>
<feGaussianBlur stdDeviation="30"/>
<feComposite in2="hardAlpha" operator="out"/>
<feColorMatrix type="matrix" values="0 0 0 0 0.184314 0 0 0 0 0.333333 0 0 0 0 0.831373 0 0 0 0.1 0"/>
<feBlend mode="normal" in2="BackgroundImageFix" result="effect1_dropShadow_650_248"/>
<feColorMatrix in="SourceAlpha" type="matrix" values="0 0 0 0 0 0 0 0 0 0 0 0 0 0 0 0 0 0 127 0" result="hardAlpha"/>
<feOffset dy="4"/>
<feGaussianBlur stdDeviation="15"/>
<feComposite in2="hardAlpha" operator="out"/>
<feColorMatrix type="matrix" values="0 0 0 0 0.275995 0 0 0 0 0.447683 0 0 0 0 0.649231 0 0 0 0.25 0"/>
<feBlend mode="normal" in2="effect1_dropShadow_650_248" result="effect2_dropShadow_650_248"/>
<feBlend mode="normal" in="SourceGraphic" in2="effect2_dropShadow_650_248" result="shape"/>
</filter>
<filter id="filter2_d_650_248" x="73.3262" y="70.2684" width="92.4336" height="97.8402" filterUnits="userSpaceOnUse" color-interpolation-filters="sRGB">
<feFlood flood-opacity="0" result="BackgroundImageFix"/>
<feColorMatrix in="SourceAlpha" type="matrix" values="0 0 0 0 0 0 0 0 0 0 0 0 0 0 0 0 0 0 127 0" result="hardAlpha"/>
<feOffset dy="4"/>
<feGaussianBlur stdDeviation="15"/>
<feComposite in2="hardAlpha" operator="out"/>
<feColorMatrix type="matrix" values="0 0 0 0 0.672791 0 0 0 0 0.678538 0 0 0 0 0.680796 0 0 0 1 0"/>
<feBlend mode="normal" in2="BackgroundImageFix" result="effect1_dropShadow_650_248"/>
<feBlend mode="normal" in="SourceGraphic" in2="effect1_dropShadow_650_248" result="shape"/>
</filter>
<filter id="filter3_d_650_248" x="134.207" y="70.3857" width="93.1602" height="97.6049" filterUnits="userSpaceOnUse" color-interpolation-filters="sRGB">
<feFlood flood-opacity="0" result="BackgroundImageFix"/>
<feColorMatrix in="SourceAlpha" type="matrix" values="0 0 0 0 0 0 0 0 0 0 0 0 0 0 0 0 0 0 127 0" result="hardAlpha"/>
<feOffset dy="4"/>
<feGaussianBlur stdDeviation="15"/>
<feComposite in2="hardAlpha" operator="out"/>
<feColorMatrix type="matrix" values="0 0 0 0 0.672791 0 0 0 0 0.678538 0 0 0 0 0.680796 0 0 0 1 0"/>
<feBlend mode="normal" in2="BackgroundImageFix" result="effect1_dropShadow_650_248"/>
<feBlend mode="normal" in="SourceGraphic" in2="effect1_dropShadow_650_248" result="shape"/>
</filter>
</defs>
</svg>
