<svg width="19" height="19" viewBox="0 0 19 19" fill="none" xmlns="http://www.w3.org/2000/svg">
<path d="M18.0549 1.47852L14.3987 0.634766C14.012 0.529297 13.5901 0.740234 13.4143 1.12695L11.7268 5.06445C11.5862 5.41602 11.6917 5.80273 11.9729 6.04883L14.1174 7.80664C12.8518 10.4785 10.637 12.7285 7.89478 14.0293L6.13696 11.8848C5.89087 11.6035 5.50415 11.498 5.15259 11.6387L1.21509 13.3262C0.828369 13.502 0.652588 13.9238 0.7229 14.3105L1.56665 17.9668C1.67212 18.3535 1.98853 18.5996 2.4104 18.5996C11.4104 18.5996 18.7229 11.3223 18.7229 2.28711C18.7229 1.90039 18.4417 1.58398 18.0549 1.47852Z" fill="#2B70FA"/>
</svg>
