<svg width="15" height="20" viewBox="0 0 15 20" fill="none" xmlns="http://www.w3.org/2000/svg">
<path d="M6.76978 18.5479C7.08618 19.04 7.82446 19.04 8.14087 18.5479C13.2737 11.165 14.2229 10.3916 14.2229 7.64941C14.2229 3.92285 11.1995 0.899414 7.4729 0.899414C3.71118 0.899414 0.7229 3.92285 0.7229 7.64941C0.7229 10.3916 1.63696 11.165 6.76978 18.5479ZM7.4729 10.4619C5.89087 10.4619 4.6604 9.23145 4.6604 7.64941C4.6604 6.10254 5.89087 4.83691 7.4729 4.83691C9.01978 4.83691 10.2854 6.10254 10.2854 7.64941C10.2854 9.23145 9.01978 10.4619 7.4729 10.4619Z" fill="#2B70FA"/>
</svg>
