<svg width="204" height="36" viewBox="0 0 204 36" fill="none" xmlns="http://www.w3.org/2000/svg">
<path d="M127.362 0.88468C128.614 0.879874 129.867 0.892461 131.119 0.922435L131.451 0.934448C131.836 0.948177 132.215 0.965338 132.673 0.985931C134.499 1.07174 135.745 1.36005 136.838 1.78393C137.971 2.21983 138.925 2.81017 139.879 3.76434C140.752 4.62172 141.427 5.65885 141.858 6.80359C142.282 7.89677 142.57 9.14439 142.656 10.9703C142.677 11.4268 142.694 11.8078 142.708 12.1922L142.718 12.5252C142.748 13.7765 142.761 15.0283 142.757 16.28L142.759 17.5603V19.8084C142.763 21.0607 142.75 22.313 142.72 23.565L142.709 23.8979C142.696 24.2823 142.678 24.6616 142.658 25.1198C142.572 26.9457 142.28 28.1917 141.858 29.2848C141.428 30.4308 140.753 31.4688 139.879 32.3258C139.021 33.1981 137.984 33.8733 136.838 34.3045C135.745 34.7284 134.499 35.0167 132.673 35.1025C132.215 35.1231 131.836 35.1402 131.451 35.154L131.119 35.1643C129.867 35.1948 128.614 35.2079 127.362 35.2037L126.082 35.2055H123.835C122.583 35.2097 121.331 35.1965 120.079 35.166L119.746 35.1557C119.338 35.1409 118.931 35.1238 118.524 35.1042C116.698 35.0184 115.452 34.7267 114.357 34.3045C113.212 33.8743 112.175 33.199 111.318 32.3258C110.444 31.4682 109.769 30.4304 109.338 29.2848C108.914 28.1917 108.625 26.9457 108.54 25.1198C108.52 24.7126 108.503 24.3053 108.488 23.8979L108.479 23.565C108.448 22.313 108.433 21.0607 108.437 19.8084V16.28C108.432 15.0283 108.444 13.7765 108.474 12.5252L108.486 12.1922C108.5 11.8078 108.517 11.4268 108.538 10.9703C108.624 9.14267 108.912 7.89848 109.336 6.80359C109.767 5.65829 110.444 4.62145 111.32 3.76605C112.176 2.89212 113.212 2.21566 114.357 1.78393C115.452 1.36005 116.696 1.07174 118.524 0.985931L119.746 0.934448L120.079 0.925867C121.33 0.894244 122.582 0.879941 123.834 0.882964L127.362 0.88468ZM125.598 9.4653C124.461 9.44922 123.332 9.65927 122.277 10.0832C121.222 10.5072 120.262 11.1366 119.452 11.9349C118.642 12.7332 117.999 13.6845 117.561 14.7334C117.122 15.7823 116.896 16.908 116.896 18.0451C116.896 19.1821 117.122 20.3078 117.561 21.3567C117.999 22.4057 118.642 23.3569 119.452 24.1552C120.262 24.9535 121.222 25.583 122.277 26.0069C123.332 26.4309 124.461 26.6409 125.598 26.6248C127.874 26.6248 130.056 25.7208 131.665 24.1116C133.274 22.5024 134.178 20.3199 134.178 18.0442C134.178 15.7685 133.274 13.586 131.665 11.9768C130.056 10.3676 127.874 9.4653 125.598 9.4653ZM125.598 12.8976C126.282 12.885 126.961 13.0088 127.597 13.2617C128.232 13.5147 128.811 13.8918 129.299 14.3709C129.787 14.8501 130.175 15.4217 130.44 16.0524C130.704 16.6831 130.841 17.3602 130.841 18.0442C130.841 18.7282 130.705 19.4054 130.44 20.0361C130.176 20.6669 129.788 21.2387 129.3 21.718C128.812 22.1973 128.234 22.5746 127.598 22.8277C126.963 23.0809 126.283 23.205 125.6 23.1926C124.234 23.1926 122.925 22.6502 121.959 21.6847C120.994 20.7192 120.451 19.4096 120.451 18.0442C120.451 16.6788 120.994 15.3693 121.959 14.4038C122.925 13.4383 124.234 12.8958 125.6 12.8958L125.598 12.8976ZM134.607 6.89112C134.054 6.91327 133.53 7.14879 133.146 7.54834C132.762 7.94789 132.548 8.48048 132.548 9.03456C132.548 9.58863 132.762 10.1212 133.146 10.5208C133.53 10.9203 134.054 11.1558 134.607 11.178C135.176 11.178 135.722 10.952 136.124 10.5497C136.527 10.1474 136.753 9.60177 136.753 9.03284C136.753 8.46391 136.527 7.91828 136.124 7.51599C135.722 7.11369 135.176 6.88768 134.607 6.88768V6.89112Z" fill="#E8C76B"/>
<path d="M38.8418 6.20398C37.4119 6.83653 35.8957 7.25208 34.3431 7.43687C35.9789 6.45718 37.2029 4.91626 37.7869 3.10114C36.2505 4.0155 34.566 4.65631 32.8123 5.00294C31.633 3.74115 30.0699 2.90433 28.3659 2.62257C26.662 2.34081 24.9127 2.62989 23.39 3.44488C21.8673 4.25986 20.6565 5.55509 19.9458 7.12919C19.2352 8.7033 19.0645 10.4681 19.4603 12.1492C16.3443 11.9933 13.2958 11.1837 10.5129 9.77311C7.73009 8.36247 5.27504 6.3823 3.30721 3.96117C2.61074 5.15743 2.24474 6.51731 2.2467 7.90154C2.2467 10.6184 3.63136 13.0186 5.73177 14.4239C4.48766 14.3846 3.27095 14.0487 2.18299 13.4439V13.5395C2.18294 15.3492 2.80887 17.1033 3.95463 18.5042C5.10039 19.905 6.69544 20.8665 8.46924 21.2254C7.31437 21.5387 6.10331 21.5848 4.92795 21.3603C5.42809 22.9181 6.40295 24.2804 7.71601 25.2564C9.02906 26.2325 10.6145 26.7734 12.2504 26.8034C10.6247 28.0802 8.76319 29.024 6.77243 29.5809C4.78168 30.1377 2.70067 30.2967 0.648437 30.0486C4.23042 32.3521 8.40011 33.575 12.6588 33.5711C27.075 33.5711 34.9558 21.6301 34.9558 11.2742C34.9558 10.9369 34.9483 10.5959 34.9333 10.2605C36.4667 9.15197 37.7903 7.77706 38.8418 6.20398Z" fill="#E8C76B"/>
<path d="M76.6926 20.6621H81.0554L82.8006 13.6816L76.6926 13.6816V10.1913C76.6926 8.3938 76.6926 6.70101 80.1828 6.70101H82.8006V0.837338C82.2316 0.762296 80.0834 0.593018 77.8147 0.593018C73.0766 0.593018 69.712 3.48472 69.712 8.79518V13.6816H64.4766V20.6621H69.712V35.4958H76.6926V20.6621Z" fill="#E8C76B"/>
<path fill-rule="evenodd" clip-rule="evenodd" d="M197.903 31.3268V31.3233L197.935 31.2479L203.194 4.73065V4.64647C203.194 3.98529 202.949 3.40829 202.419 3.0628C201.955 2.75939 201.42 2.73835 201.044 2.76641C200.695 2.798 200.35 2.8686 200.017 2.97686C199.874 3.02273 199.734 3.07422 199.596 3.1312L199.573 3.13996L170.25 14.6431L170.241 14.6466C170.152 14.677 170.064 14.7127 169.98 14.7535C169.771 14.8472 169.571 14.9587 169.381 15.0868C169.004 15.3463 168.287 15.9566 168.408 16.9247C168.508 17.728 169.061 18.2366 169.434 18.5014C169.655 18.6559 169.892 18.7853 170.141 18.8872L170.197 18.9118L170.215 18.917L170.227 18.9223L175.358 20.6498C175.341 20.9707 175.372 21.2987 175.458 21.6231L178.028 31.3724C178.168 31.9038 178.471 32.378 178.895 32.7282C179.319 33.0784 179.841 33.2871 180.39 33.3251C180.938 33.363 181.484 33.2282 181.952 32.9396C182.42 32.6511 182.786 32.2232 182.998 31.7162L187.011 27.4264L193.901 32.7088L193.999 32.7509C194.625 33.0245 195.209 33.1104 195.744 33.0385C196.279 32.9649 196.704 32.7404 197.023 32.4861C197.392 32.1868 197.686 31.8054 197.882 31.3724L197.896 31.3426L197.902 31.3321L197.903 31.3268ZM178.001 20.9532C177.973 20.845 177.98 20.7306 178.021 20.6265C178.062 20.5224 178.135 20.4341 178.229 20.3744L195.629 9.32557C195.629 9.32557 196.653 8.70297 196.616 9.32557C196.616 9.32557 196.798 9.4343 196.249 9.94466C195.73 10.4305 183.848 21.902 182.645 23.063C182.578 23.1279 182.532 23.2107 182.51 23.3015L180.571 30.7025L178.001 20.9514V20.9532Z" fill="#E8C76B"/>
</svg>
