<svg width="35" height="36" viewBox="0 0 35 36" fill="none" xmlns="http://www.w3.org/2000/svg">
<path d="M19.362 0.88468C20.6143 0.879874 21.8666 0.892461 23.1186 0.922435L23.4515 0.934448C23.8359 0.948177 24.2152 0.965338 24.6734 0.985931C26.4993 1.07174 27.7452 1.36005 28.8384 1.78393C29.971 2.21983 30.9252 2.81017 31.8794 3.76434C32.7518 4.62172 33.427 5.65885 33.8581 6.80359C34.282 7.89677 34.5703 9.14439 34.6561 10.9703C34.6767 11.4268 34.6938 11.8078 34.7076 12.1922L34.7178 12.5252C34.7483 13.7765 34.7615 15.0283 34.7573 16.28L34.759 17.5603V19.8084C34.7633 21.0607 34.7501 22.313 34.7196 23.565L34.7093 23.8979C34.6955 24.2823 34.6784 24.6616 34.6578 25.1198C34.572 26.9457 34.2802 28.1917 33.8581 29.2848C33.4284 30.4308 32.753 31.4688 31.8794 32.3258C31.0212 33.1981 29.9836 33.8733 28.8384 34.3045C27.7452 34.7284 26.4993 35.0167 24.6734 35.1025C24.2152 35.1231 23.8359 35.1402 23.4515 35.154L23.1186 35.1643C21.8666 35.1948 20.6143 35.2079 19.362 35.2037L18.0817 35.2055H15.8353C14.583 35.2097 13.3307 35.1965 12.0787 35.166L11.7458 35.1557C11.3384 35.1409 10.9311 35.1238 10.5239 35.1042C8.69796 35.0184 7.45205 34.7267 6.35717 34.3045C5.21197 33.8743 4.17466 33.199 3.31791 32.3258C2.44448 31.4682 1.76863 30.4304 1.3375 29.2848C0.91362 28.1917 0.625311 26.9457 0.539504 25.1198C0.520392 24.7126 0.50323 24.3053 0.488021 23.8979L0.47944 23.565C0.447801 22.313 0.433499 21.0607 0.436537 19.8084L0.436537 16.28C0.431747 15.0283 0.444334 13.7765 0.474292 12.5252L0.486305 12.1922C0.500034 11.8078 0.517195 11.4268 0.537788 10.9703C0.623595 9.14267 0.911903 7.89848 1.33579 6.80359C1.76717 5.65829 2.44434 4.62145 3.31963 3.76605C4.17579 2.89212 5.21245 2.21566 6.35717 1.78393C7.45205 1.36005 8.69625 1.07174 10.5239 0.985931L11.7458 0.934448L12.0787 0.925867C13.3301 0.894244 14.5818 0.879941 15.8336 0.882964L19.362 0.88468ZM17.5978 9.4653C16.4609 9.44922 15.3321 9.65927 14.277 10.0832C13.222 10.5072 12.2617 11.1366 11.4521 11.9349C10.6424 12.7332 9.99947 13.6845 9.56064 14.7334C9.1218 15.7823 8.89582 16.908 8.89582 18.0451C8.89582 19.1821 9.1218 20.3078 9.56064 21.3567C9.99947 22.4057 10.6424 23.3569 11.4521 24.1552C12.2617 24.9535 13.222 25.583 14.277 26.0069C15.3321 26.4309 16.4609 26.6409 17.5978 26.6248C19.8735 26.6248 22.056 25.7208 23.6652 24.1116C25.2744 22.5024 26.1784 20.3199 26.1784 18.0442C26.1784 15.7685 25.2744 13.586 23.6652 11.9768C22.056 10.3676 19.8735 9.4653 17.5978 9.4653ZM17.5978 12.8976C18.2817 12.885 18.9612 13.0088 19.5967 13.2617C20.2322 13.5147 20.8109 13.8918 21.2991 14.3709C21.7872 14.8501 22.175 15.4217 22.4397 16.0524C22.7045 16.6831 22.8409 17.3602 22.841 18.0442C22.8411 18.7282 22.7049 19.4054 22.4404 20.0361C22.1759 20.6669 21.7883 21.2387 21.3003 21.718C20.8123 22.1973 20.2337 22.5746 19.5983 22.8277C18.9629 23.0809 18.2834 23.205 17.5995 23.1926C16.2341 23.1926 14.9246 22.6502 13.9591 21.6847C12.9935 20.7192 12.4511 19.4096 12.4511 18.0442C12.4511 16.6788 12.9935 15.3693 13.9591 14.4038C14.9246 13.4383 16.2341 12.8958 17.5995 12.8958L17.5978 12.8976ZM26.6074 6.89112C26.0538 6.91327 25.5302 7.14879 25.1463 7.54834C24.7625 7.94789 24.5481 8.48048 24.5481 9.03456C24.5481 9.58863 24.7625 10.1212 25.1463 10.5208C25.5302 10.9203 26.0538 11.1558 26.6074 11.178C27.1764 11.178 27.722 10.952 28.1243 10.5497C28.5266 10.1474 28.7526 9.60177 28.7526 9.03284C28.7526 8.46391 28.5266 7.91828 28.1243 7.51599C27.722 7.11369 27.1764 6.88768 26.6074 6.88768V6.89112Z" fill="#E8C76B"/>
</svg>
