<svg width="35" height="35" viewBox="0 0 35 35" fill="none" xmlns="http://www.w3.org/2000/svg">
<path d="M19.5709 0.648596C20.8233 0.64379 22.0756 0.656377 23.3275 0.686351L23.6605 0.698364C24.0449 0.712093 24.4241 0.729254 24.8824 0.749847C26.7083 0.835653 27.9542 1.12396 29.0474 1.54785C30.18 1.98374 31.1342 2.57409 32.0884 3.52825C32.9608 4.38564 33.636 5.42276 34.0671 6.56751C34.4909 7.66068 34.7792 8.9083 34.8651 10.7343C34.8856 11.1907 34.9028 11.5717 34.9165 11.9561L34.9268 12.2891C34.9573 13.5405 34.9705 14.7922 34.9663 16.044L34.968 17.3242V19.5723C34.9722 20.8246 34.9591 22.0769 34.9285 23.3289L34.9183 23.6618C34.9045 24.0462 34.8874 24.4255 34.8668 24.8837C34.781 26.7097 34.4892 27.9556 34.0671 29.0487C33.6374 30.1947 32.962 31.2327 32.0884 32.0897C31.2302 32.9621 30.1926 33.6372 29.0474 34.0684C27.9542 34.4923 26.7083 34.7806 24.8824 34.8664C24.4241 34.887 24.0449 34.9042 23.6605 34.9179L23.3275 34.9282C22.0756 34.9587 20.8233 34.9719 19.5709 34.9677L18.2907 34.9694H16.0443C14.792 34.9736 13.5397 34.9604 12.2877 34.9299L11.9548 34.9196C11.5474 34.9048 11.1401 34.8877 10.7329 34.8681C8.90695 34.7823 7.66104 34.4906 6.56615 34.0684C5.42095 33.6383 4.38365 32.9629 3.52689 32.0897C2.65347 31.2321 1.97762 30.1944 1.54649 29.0487C1.1226 27.9556 0.834295 26.7097 0.748489 24.8837C0.729376 24.4765 0.712215 24.0692 0.697005 23.6618L0.688425 23.3289C0.656786 22.077 0.642483 20.8246 0.645521 19.5723L0.645521 16.044C0.640732 14.7922 0.653318 13.5405 0.683276 12.2891L0.695289 11.9561C0.709018 11.5717 0.726179 11.1907 0.746773 10.7343C0.832579 8.90659 1.12089 7.6624 1.54477 6.56751C1.97616 5.4222 2.65333 4.38536 3.52861 3.52997C4.38478 2.65604 5.42143 1.97958 6.56615 1.54785C7.66104 1.12396 8.90523 0.835653 10.7329 0.749847L11.9548 0.698364L12.2877 0.689783C13.5391 0.65816 14.7908 0.643857 16.0426 0.64688L19.5709 0.648596ZM17.8068 9.22922C16.6698 9.21314 15.5411 9.42318 14.486 9.84714C13.431 10.2711 12.4707 10.9005 11.6611 11.6988C10.8514 12.4971 10.2085 13.4484 9.76962 14.4973C9.33078 15.5463 9.1048 16.6719 9.1048 17.809C9.1048 18.946 9.33078 20.0717 9.76962 21.1207C10.2085 22.1696 10.8514 23.1209 11.6611 23.9192C12.4707 24.7175 13.431 25.3469 14.486 25.7708C15.5411 26.1948 16.6698 26.4048 17.8068 26.3888C20.0825 26.3888 22.265 25.4847 23.8742 23.8755C25.4834 22.2664 26.3874 20.0838 26.3874 17.8081C26.3874 15.5324 25.4834 13.3499 23.8742 11.7407C22.265 10.1315 20.0825 9.22922 17.8068 9.22922ZM17.8068 12.6615C18.4907 12.6489 19.1702 12.7727 19.8057 13.0256C20.4412 13.2786 21.0199 13.6557 21.5081 14.1348C21.9962 14.614 22.384 15.1856 22.6487 15.8163C22.9135 16.447 23.0499 17.1241 23.05 17.8081C23.0501 18.4921 22.9139 19.1693 22.6494 19.8001C22.3848 20.4308 21.9973 21.0026 21.5093 21.4819C21.0213 21.9612 20.4427 22.3385 19.8073 22.5917C19.1719 22.8448 18.4924 22.9689 17.8085 22.9565C16.4431 22.9565 15.1335 22.4141 14.168 21.4486C13.2025 20.4831 12.6601 19.1736 12.6601 17.8081C12.6601 16.4427 13.2025 15.1332 14.168 14.1677C15.1335 13.2022 16.4431 12.6598 17.8085 12.6598L17.8068 12.6615ZM26.8164 6.65503C26.2628 6.67719 25.7392 6.91271 25.3553 7.31226C24.9714 7.71181 24.7571 8.24439 24.7571 8.79847C24.7571 9.35255 24.9714 9.88514 25.3553 10.2847C25.7392 10.6842 26.2628 10.9198 26.8164 10.9419C27.3854 10.9419 27.931 10.7159 28.3333 10.3136C28.7356 9.91131 28.9616 9.36569 28.9616 8.79676C28.9616 8.22783 28.7356 7.6822 28.3333 7.2799C27.931 6.87761 27.3854 6.6516 26.8164 6.6516V6.65503Z" fill="#252D2E"/>
</svg>
