<svg width="25" height="24" viewBox="0 0 25 24" fill="none" xmlns="http://www.w3.org/2000/svg">
<path d="M13.6999 0.0121741C14.5492 0.00891527 15.3984 0.0174505 16.2474 0.0377771L16.4732 0.0459234C16.7339 0.0552336 16.9911 0.0668712 17.3018 0.0808365C18.5401 0.139025 19.385 0.334538 20.1263 0.621989C20.8944 0.917586 21.5414 1.31792 22.1885 1.96498C22.7801 2.5464 23.238 3.24972 23.5303 4.02601C23.8178 4.76733 24.0133 5.61339 24.0715 6.85164C24.0854 7.1612 24.0971 7.41956 24.1064 7.68025L24.1133 7.90602C24.134 8.75463 24.143 9.60349 24.1401 10.4523L24.1413 11.3205V12.8451C24.1441 13.6943 24.1352 14.5435 24.1145 15.3925L24.1075 15.6183C24.0982 15.879 24.0866 16.1362 24.0726 16.4469C24.0144 17.6852 23.8166 18.5301 23.5303 19.2714C23.2389 20.0485 22.7809 20.7524 22.1885 21.3336C21.6065 21.9251 20.9029 22.383 20.1263 22.6754C19.385 22.9629 18.5401 23.1584 17.3018 23.2166C16.9911 23.2305 16.7339 23.2422 16.4732 23.2515L16.2474 23.2585C15.3984 23.2791 14.5492 23.2881 13.6999 23.2852L12.8318 23.2864L11.3084 23.2864C10.4592 23.2893 9.60991 23.2803 8.76091 23.2596L8.53514 23.2526C8.25887 23.2426 7.98267 23.231 7.70654 23.2177C6.46829 23.1595 5.62339 22.9617 4.88091 22.6754C4.10431 22.3837 3.40087 21.9257 2.81987 21.3336C2.22757 20.752 1.76925 20.0483 1.47688 19.2714C1.18943 18.5301 0.99392 17.6852 0.935732 16.4469C0.922771 16.1708 0.911133 15.8946 0.900819 15.6183L0.895 15.3925C0.873544 14.5436 0.863845 13.6943 0.865906 12.8451L0.865906 10.4523C0.862658 9.60349 0.871193 8.75463 0.891509 7.90602L0.899655 7.68025C0.908965 7.41956 0.920603 7.1612 0.934568 6.85164C0.992757 5.61223 1.18827 4.7685 1.47572 4.02601C1.76826 3.24934 2.22747 2.54622 2.82104 1.96614C3.40163 1.37349 4.10463 0.914761 4.88091 0.621989C5.62339 0.334538 6.46712 0.139025 7.70654 0.0808365L8.53514 0.0459234L8.76091 0.0401047C9.60951 0.0186597 10.4584 0.00896063 11.3072 0.0110104L13.6999 0.0121741ZM12.5036 5.83102C11.7326 5.82011 10.9671 5.96255 10.2517 6.25005C9.53621 6.53755 8.88502 6.96439 8.33596 7.50574C7.78689 8.0471 7.35089 8.69219 7.0533 9.40351C6.75571 10.1148 6.60246 10.8782 6.60246 11.6493C6.60246 12.4203 6.75571 13.1837 7.0533 13.895C7.35089 14.6064 7.78689 15.2515 8.33596 15.7928C8.88502 16.3342 9.53621 16.761 10.2517 17.0485C10.9671 17.336 11.7326 17.4784 12.5036 17.4675C14.0468 17.4675 15.5269 16.8545 16.6181 15.7632C17.7094 14.672 18.3224 13.192 18.3224 11.6487C18.3224 10.1054 17.7094 8.6254 16.6181 7.53415C15.5269 6.44291 14.0468 5.83102 12.5036 5.83102ZM12.5036 8.15856C12.9674 8.15001 13.4282 8.23396 13.8591 8.40551C14.2901 8.57707 14.6826 8.83277 15.0136 9.1577C15.3446 9.48263 15.6076 9.87026 15.7871 10.298C15.9666 10.7257 16.0591 11.1848 16.0592 11.6487C16.0593 12.1125 15.9669 12.5717 15.7876 12.9995C15.6082 13.4273 15.3453 13.815 15.0144 14.14C14.6835 14.4651 14.2911 14.7209 13.8602 14.8926C13.4293 15.0643 12.9685 15.1484 12.5048 15.14C11.5788 15.14 10.6908 14.7722 10.036 14.1174C9.38128 13.4627 9.01345 12.5746 9.01345 11.6487C9.01345 10.7227 9.38128 9.83472 10.036 9.17997C10.6908 8.52522 11.5788 8.15739 12.5048 8.15739L12.5036 8.15856ZM18.6134 4.08536C18.2379 4.10039 17.8829 4.26011 17.6226 4.53105C17.3622 4.802 17.2168 5.16317 17.2168 5.53891C17.2168 5.91465 17.3622 6.27582 17.6226 6.54677C17.8829 6.81772 18.2379 6.97743 18.6134 6.99246C18.9992 6.99246 19.3692 6.83919 19.642 6.56638C19.9148 6.29357 20.0681 5.92356 20.0681 5.53775C20.0681 5.15193 19.9148 4.78192 19.642 4.50911C19.3692 4.2363 18.9992 4.08304 18.6134 4.08304V4.08536Z" fill="#E8C76B"/>
</svg>
