<svg width="46" height="59" viewBox="0 0 46 59" fill="none" xmlns="http://www.w3.org/2000/svg">
<path d="M20.011 33.9189C18.9517 33.5531 18.5907 32.4985 17.7752 31.7978V32.8276C17.7752 33.7745 17.5065 34.0408 16.5726 34.0538C16.1406 34.0597 15.7074 34.113 15.2707 34.1213C14.7025 34.1319 14.4516 33.8845 14.4421 33.3081C14.4327 32.7317 14.435 32.1943 14.4421 31.638C14.4421 30.903 14.7084 30.6438 15.4553 30.6308C15.8447 30.6249 16.2341 30.6308 16.6235 30.6308L16.6886 30.5231L14.1971 28.1795L13.2088 28.8033C13.5201 29.1974 13.365 29.4448 13.0135 29.7076C12.101 30.3905 11.2085 31.1007 10.3243 31.8203C10.0154 32.0712 9.79646 32.0843 9.49582 31.7955C8.41242 30.7697 7.31324 29.7593 6.19828 28.7642C5.91658 28.5109 5.87989 28.3133 6.18171 28.0825C6.34386 27.9582 6.51667 27.8457 6.74156 27.6895L5.56268 26.5805C5.51944 26.5888 5.47706 26.6011 5.43604 26.6172C4.572 27.1545 4.71166 27.1746 3.94824 26.3804C2.99069 25.3803 2.04499 24.3683 1.07679 23.38C0.801013 23.0971 0.767871 22.8604 1.04957 22.587C2.2971 21.3797 3.54502 20.1728 4.79333 18.9663C4.96496 18.8006 5.12474 18.8254 5.2798 19.0054C5.43485 19.1853 5.62778 19.3817 5.83373 19.5972L7.04575 18.4834C6.81849 18.2538 6.61846 18.0383 6.40423 17.8383C6.19 17.6383 6.20893 17.469 6.40423 17.2844L10.0202 13.8779C10.2013 13.7075 10.3752 13.7193 10.5623 13.872C11.9124 14.969 13.1228 16.2275 14.1664 17.6193C14.2397 17.7164 14.1995 17.9354 14.151 18.0762C14.1095 18.1946 13.9782 18.2786 13.8906 18.3745C13.8965 18.41 13.8906 18.4455 13.906 18.4597C14.1308 18.6716 14.325 18.9722 14.5925 19.0681C14.9795 19.2054 15.028 18.713 15.234 18.526C15.6376 18.1484 15.9725 17.6975 16.4176 17.1802C15.9927 17.1802 15.6672 17.1802 15.3417 17.1802C14.7901 17.1802 14.5345 16.9435 14.5274 16.3943C14.5191 15.7433 14.5427 15.0923 14.5569 14.4402C14.564 14.1241 14.7167 13.9667 15.0481 13.9975C15.576 14.0389 16.1051 14.0602 16.633 14.1005C17.0804 14.136 17.2852 14.3514 17.2994 14.8106C17.3112 15.2154 17.2994 15.6202 17.2994 16.1351L19.4299 13.7182C19.0523 13.7347 18.7753 13.7821 18.5102 13.7478C18.3079 13.7273 18.1191 13.6369 17.9764 13.4921C17.0295 12.3085 16.111 11.0917 15.1677 9.89983C14.9487 9.62405 14.9381 9.4181 15.1866 9.16244C16.0838 8.23923 16.9549 7.29115 17.8651 6.38214C18.3267 5.92172 18.3552 5.9513 18.8523 6.36557C18.902 6.40699 18.9588 6.4425 19.0334 6.49695L20.23 5.2222C20.1969 5.16065 20.1874 5.11686 20.1602 5.09319C19.5198 4.53807 19.5897 4.56766 20.1708 3.98414C21.2361 2.91889 22.2942 1.84654 23.3595 0.781294C23.7666 0.372949 23.8495 0.357562 24.2472 0.781294C25.3598 1.95189 26.4534 3.14023 27.553 4.32147C27.7518 4.53452 27.7447 4.75941 27.5696 4.98311C27.4867 5.08845 27.3979 5.19143 27.2867 5.32518L28.3519 6.59401C28.4012 6.58735 28.4496 6.57544 28.4963 6.5585C29.158 6.11109 29.1722 6.09926 29.706 6.7313C30.5108 7.68411 31.3003 8.65112 32.085 9.62168C32.4579 10.0833 32.4697 10.3437 32.085 10.8112C31.7316 11.2357 31.3547 11.6399 30.9559 12.022C30.473 12.4955 29.951 12.9346 29.474 13.4163C29.361 13.5421 29.2172 13.6364 29.0569 13.6899C28.8965 13.7434 28.725 13.7544 28.5591 13.7217C28.4135 13.698 28.2632 13.7051 27.9957 13.6933L29.9972 16.0605L30.1096 16.0357C30.1096 15.5985 30.1096 15.1618 30.1096 14.7254C30.1096 14.5621 30.0954 14.3987 30.1096 14.2366C30.1463 13.5773 30.4162 13.3015 31.0742 13.2814C31.6266 13.2664 32.1829 13.2664 32.7431 13.2814C33.4261 13.3004 33.6735 13.5667 33.6604 14.2437C33.6498 14.826 33.6545 15.4095 33.6107 15.9883C33.5669 16.5671 33.3515 16.7399 32.7822 16.7695L30.8423 16.8701C31.3157 17.7993 32.4342 18.1887 32.6982 19.3072C32.77 19.1705 32.849 19.0378 32.9349 18.9095C33.1527 18.6077 33.3326 18.2526 33.6143 18.0253C34.457 17.3436 35.3471 16.7234 36.2076 16.0582C36.8621 15.5551 37.2113 15.4794 37.8315 16.0369C38.7961 16.9056 39.6826 17.862 40.5964 18.7864C40.8035 18.9959 40.7609 19.1959 40.5159 19.3616C40.3975 19.4445 40.2863 19.5486 40.1289 19.68C40.4697 20.0789 40.7941 20.4718 41.1385 20.8435C41.1864 20.8683 41.2396 20.8813 41.2935 20.8813C41.3475 20.8813 41.4007 20.8683 41.4486 20.8435C41.9942 20.4884 42.2771 20.5334 42.6819 21.0625C43.4536 22.0599 44.2242 23.0592 44.9935 24.0606C45.1178 24.2215 45.2504 24.3778 45.3746 24.534C45.8268 25.1187 45.7913 25.488 45.2373 26.0183C44.3153 26.9 43.3542 27.7463 42.4925 28.6837C42.0901 29.1217 41.7717 29.0637 41.3338 28.8731C40.6485 28.5749 40.6437 28.5855 40.1312 29.1809C40.5053 29.7301 40.4804 29.9703 39.9963 30.4828C39.1678 31.3603 38.3392 32.2381 37.5107 33.1164C36.9308 33.7318 36.5532 33.7389 35.9933 33.1164C35.4015 32.463 34.831 31.7884 34.2309 31.1421C33.6936 30.561 33.4426 29.8638 33.3432 29.0317L31.2565 30.5337C31.6009 30.587 31.8483 30.6154 32.085 30.6651C32.5786 30.7645 32.7857 30.9705 32.7751 31.4676C32.7545 32.0356 32.7043 32.6021 32.6248 33.1649C32.5822 33.4951 32.3478 33.6904 32.0235 33.6383C31.4362 33.5509 30.8551 33.4264 30.2836 33.2655C29.9036 33.1542 29.8161 32.8015 29.8587 32.437C29.893 32.1434 29.9498 31.8523 30.0137 31.4546C29.6764 31.6913 29.4148 31.8617 29.1592 32.0464C28.2821 32.6749 28.1661 32.6713 27.3837 31.9825C27.0074 32.366 27.005 32.5684 27.3837 32.9767C27.4814 33.0705 27.5867 33.1561 27.6986 33.2324C28.2028 33.6088 28.2845 33.9307 28.0134 34.4953C27.6122 35.3321 27.6583 35.499 28.4632 35.9902C29.6302 36.7063 29.8954 37.3501 29.4101 38.6462C29.2083 39.1754 28.902 39.6584 28.5094 40.0665C28.0182 40.5743 27.3802 40.5471 26.7481 40.2027C26.5315 40.0843 26.2629 40.0594 26.0179 39.992C26.0368 40.2441 26.0344 40.4997 26.0782 40.7471C26.2321 41.6111 26.412 42.4693 26.5588 43.3345C26.5925 43.5086 26.5632 43.689 26.4759 43.8434C26.2771 44.1251 26.3729 44.4281 26.322 44.7181C26.1824 45.5088 26.5138 46.3219 26.1907 47.1007C26.1705 47.1493 26.2096 47.2286 26.2333 47.2889C26.4629 47.8949 26.47 48.05 26.2605 48.6832C27.0287 49.1945 27.0263 49.9379 26.8594 50.7403C26.7126 51.441 26.5114 52.1453 26.4889 52.8531C26.4582 53.8414 26.818 54.767 27.2204 55.663C27.2952 55.7883 27.3616 55.9184 27.4192 56.0524C27.5707 56.5767 27.8098 56.946 28.4573 56.804C28.5378 56.7862 28.7449 56.9744 28.7579 57.0833C28.8007 57.4606 28.8074 57.841 28.778 58.2196C28.7709 58.3119 28.5768 58.4658 28.4703 58.4646C25.213 58.4255 21.9604 58.3687 18.6984 58.3261C18.4155 58.3261 18.2995 58.2255 18.2983 57.9533C18.2972 57.681 18.2924 57.41 18.2758 57.1389C18.2593 56.8679 18.3847 56.7566 18.6676 56.7839C18.9872 56.8064 19.3115 56.7839 19.669 56.7839C19.4867 56.2252 19.7187 55.8086 20.03 55.4393C20.3093 55.1091 20.3602 54.7623 20.3176 54.3444C20.2762 54.0276 20.3191 53.7055 20.4419 53.4106C20.7082 52.8873 20.7715 52.284 20.6194 51.7168C20.501 51.273 20.3827 50.809 20.4052 50.3628C20.4265 50.0006 20.6289 49.6301 20.8206 49.3034C20.9177 49.1366 21.0076 49.0288 20.9082 48.843C20.8732 48.7689 20.8547 48.6882 20.8538 48.6063C20.8313 48.0038 20.8052 47.4073 20.7271 46.8037C20.6632 46.316 20.6312 45.6922 20.7638 45.2413C21.0005 44.4187 20.5271 43.7286 20.6123 42.9664C20.626 42.6816 20.6161 42.3962 20.5827 42.113C20.5555 41.6396 20.623 41.2277 20.9603 40.8406C21.1537 40.5839 21.2639 40.2741 21.2763 39.9529C21.3083 39.4795 20.952 39.2652 20.5117 39.4605C20.3203 39.5619 20.136 39.6762 19.9601 39.8026C19.2074 40.2701 18.4297 39.9636 18.2569 39.0924C18.1903 38.6503 18.1669 38.2028 18.1871 37.7561C18.1871 37.2282 18.2013 36.6992 18.2534 36.1748C18.2924 35.7771 18.5658 35.5629 18.9564 35.4919C19.9388 35.3143 19.9518 35.2966 19.9862 34.3083C19.9862 34.1828 20.0016 34.0621 20.011 33.9189ZM17.3349 26.674C17.2958 26.5343 17.2106 26.3887 17.226 26.2562C17.265 25.9224 17.355 25.5957 17.4165 25.2643C17.4296 25.163 17.4356 25.061 17.4343 24.9589L17.329 24.9483C17.1337 25.4714 16.9396 25.9946 16.7076 26.6172L17.3443 26.6621C17.4627 26.7095 17.5917 26.8125 17.6994 26.7947C18.1812 26.7154 18.6582 26.6006 19.1754 26.4893C19.0227 26.1342 18.9221 25.8786 18.8108 25.6336C18.6996 25.3886 18.5848 25.1672 18.4723 24.9341C18.483 25.3306 18.6025 25.6857 18.6747 26.0514C18.7008 26.1875 18.6582 26.4373 18.5741 26.4751C18.3208 26.5935 18.2699 26.3568 18.2119 26.1721L17.9847 25.4773C17.8486 25.7859 17.7458 26.1081 17.6781 26.4384C17.6367 26.5982 17.6059 26.8172 17.3349 26.674ZM28.5378 28.6672L30.0327 30.7681C30.1416 30.6616 30.164 30.6095 30.151 30.5894C29.6145 29.9486 29.0751 29.3103 28.533 28.6743C28.5543 28.5062 28.5745 28.3381 28.5958 28.1701C28.7425 28.2553 28.9248 28.3085 29.0301 28.4305C29.4918 28.9631 29.9285 29.517 30.3806 30.0603C30.4719 30.1556 30.5687 30.2453 30.6706 30.329L30.7629 30.2402C30.6813 30.1278 30.6055 30.0118 30.5179 29.904C30.1901 29.5052 29.8456 29.1205 29.5391 28.7062C29.4598 28.6009 29.4953 28.4091 29.4787 28.2576C29.622 28.305 29.8137 28.3097 29.9025 28.4068C30.2942 28.8388 30.6541 29.2992 31.0304 29.7454C31.0961 29.8084 31.1679 29.8647 31.2447 29.9135L31.3287 29.8307C31.1109 29.5454 30.886 29.2649 30.6789 28.9725C30.5795 28.8317 30.3546 28.6565 30.6114 28.5074C30.7002 28.4553 30.9523 28.5725 31.0577 28.6826C31.3086 28.9477 31.5181 29.2542 31.7442 29.543L31.8471 29.4697C31.6668 29.2264 31.5005 28.9731 31.3488 28.711C31.2814 28.5808 31.3098 28.4009 31.2944 28.2434L31.7678 28.3074C31.9075 27.9606 32.0543 27.9345 32.3372 28.2766C32.3798 28.3287 32.4236 28.3807 32.4674 28.4316C32.8319 28.8483 32.9041 28.8435 33.2698 28.3677C33.1584 28.2367 33.0549 28.0991 32.9597 27.9558C32.7893 27.6682 32.6129 27.6126 32.2732 27.7499C30.9713 28.273 29.6941 28.1286 28.4514 27.5392C27.0784 26.8894 26.0569 25.8194 25.0946 24.6891C24.2507 23.6984 24.2247 24.0049 25.1124 22.9929C25.1204 22.9818 25.1291 22.9711 25.1384 22.961C26.193 21.8366 27.1186 20.5772 28.4786 19.7439C28.2253 19.5344 28.3212 19.3533 28.5011 19.1521C29.0574 18.5402 29.6054 17.9188 30.1581 17.2974C30.205 17.2325 30.2447 17.1626 30.2765 17.0891L30.1889 17.0133C30.1096 17.082 30.0232 17.1447 29.9522 17.2205C29.242 17.965 28.5318 18.7189 27.8075 19.4516C27.6643 19.5948 27.4382 19.6563 27.2512 19.7558C26.2155 20.7926 25.2059 21.8863 24.1939 22.987C23.7287 23.4901 23.7205 23.4948 23.1807 23.1054C21.8137 22.1336 20.4928 21.1157 19.7352 19.5546C19.6929 19.486 19.6379 19.4261 19.5731 19.3782C18.8203 18.713 18.0664 18.0494 17.3112 17.3874C17.2302 17.3227 17.1456 17.2627 17.0579 17.2074L16.891 17.3921C17.0157 17.4377 17.1348 17.4972 17.2461 17.5696C17.7089 17.9472 18.1634 18.3342 18.6144 18.726C18.7493 18.8444 18.9884 18.9758 18.7742 19.1687C18.6972 19.2373 18.4191 19.1687 18.2948 19.0799C17.8012 18.6988 17.3372 18.2798 16.8567 17.8809C16.7739 17.8245 16.6859 17.7761 16.5939 17.7365L16.5288 17.83C16.5908 17.9068 16.6577 17.9795 16.7289 18.0478C16.9976 18.2763 17.284 18.4869 17.5349 18.7319C17.6166 18.8124 17.613 18.9793 17.6474 19.106C17.5053 19.106 17.3254 19.1533 17.2272 19.0858C16.9159 18.8704 16.6354 18.6124 16.3418 18.3698C16.2776 18.3294 16.2089 18.2968 16.1371 18.2727L16.0743 18.365C16.3785 18.642 16.6922 18.9095 16.9798 19.203C17.052 19.2752 17.0437 19.4291 17.0709 19.5451C16.9372 19.551 16.7715 19.609 16.6756 19.5522C16.4815 19.4338 16.3335 19.2433 16.1477 19.1083C15.9914 19.0121 15.8284 18.927 15.6601 18.8539C15.7477 18.995 15.8267 19.1412 15.8968 19.2918C15.928 19.3989 15.9459 19.5094 15.9501 19.6208C15.8317 19.6315 15.692 19.6836 15.595 19.6433C15.4577 19.5889 15.3476 19.4658 15.1866 19.3403C15.2825 19.8765 15.6601 20.1428 16.0755 20.0505C16.2602 20.0076 16.4477 19.9775 16.6365 19.9605C18.161 19.8315 19.4606 20.3677 20.5969 21.3418C21.3911 22.0212 22.1498 22.7408 22.9487 23.4131C23.2162 23.6392 23.2636 23.8499 23.0742 24.1079C22.5297 24.8488 22.0267 25.6336 21.403 26.3047C20.3779 27.4114 19.1174 28.1239 17.5609 28.1985C16.5624 28.2602 15.5736 27.9714 14.7653 27.3818L14.4552 27.7428L15.3843 28.5713C15.4194 28.5469 15.4557 28.5244 15.4932 28.5038C15.6636 28.434 15.9145 28.2588 15.9903 28.3156C16.2175 28.4861 16.0104 28.6601 15.8897 28.8222C15.8518 28.8708 15.8625 28.956 15.8352 29.111C16.5454 28.4423 16.562 28.4399 16.749 28.9382C16.8101 28.8483 16.8847 28.7685 16.9703 28.7015C17.1006 28.6417 17.2361 28.5941 17.3751 28.5595C17.3609 28.7145 17.3941 28.8968 17.323 29.0175C17.1744 29.2279 17.0123 29.4283 16.8378 29.6176C16.7885 29.6923 16.7465 29.7716 16.7123 29.8543C16.7652 29.8578 16.8182 29.8489 16.8671 29.8284C16.916 29.8078 16.9594 29.7762 16.994 29.736C17.3006 29.3915 17.6012 29.0412 17.9077 28.6956C18.2143 28.35 18.3338 28.3772 18.4593 28.7394C18.638 28.7133 18.8617 28.6115 18.9505 28.6814C19.1778 28.8577 18.9777 29.0365 18.8535 29.1939C18.7777 29.2898 18.696 29.3809 18.6167 29.4744L17.7633 30.4864L17.6793 30.3929C18.3362 29.8011 19.0097 29.2329 19.6441 28.6175C20.2785 28.002 20.8987 27.3392 21.5095 26.6834C21.7249 26.4538 21.9273 26.268 22.2457 26.4361C22.6978 25.8028 23.1275 25.1933 23.5654 24.5896C23.8507 24.1943 23.9382 24.1896 24.2756 24.5423C25.0686 25.3602 25.8581 26.1816 26.6771 27.0279C26.9825 26.7024 27.1612 26.9356 27.3506 27.1794C27.7436 27.6848 28.1424 28.1736 28.5378 28.6672ZM10.6652 15.6723L8.35719 17.9519C8.18428 18.103 8.02578 18.2698 7.88374 18.4502C7.84228 18.5139 7.81474 18.5856 7.80291 18.6607C7.79108 18.7358 7.79523 18.8125 7.81509 18.8858C8.08141 19.4906 8.39151 20.0753 8.66493 20.6754C8.73239 20.8234 8.72174 21.0057 8.74778 21.1714C8.58444 21.1288 8.39861 21.1205 8.26132 21.0352C7.92754 20.8281 7.63163 20.5618 7.29549 20.3606C6.59597 19.9404 6.18408 19.9972 5.57452 20.5488C5.42302 20.6861 5.26914 20.8186 5.12001 20.9571L2.87115 23.0545C2.89885 23.1073 2.9305 23.1579 2.96584 23.206C3.91273 24.1766 4.87145 25.1376 5.8065 26.1189C6.08702 26.4124 6.36399 26.4112 6.68119 26.2372C7.23276 25.9437 7.77485 25.6359 8.33233 25.3554C8.45069 25.2939 8.62232 25.3211 8.76909 25.3081C8.73831 25.4643 8.7537 25.6537 8.66848 25.7721C8.34535 26.2242 7.98198 26.6467 7.65057 27.0942C7.48132 27.3214 7.29549 27.5818 7.54405 27.8635C8.20924 28.6139 8.87798 29.3631 9.57275 30.0863C9.67691 30.1952 9.99294 30.2544 10.1066 30.1786C11.0535 29.5549 12.069 29.0187 12.8431 28.1488C13.0727 27.8907 13.1271 27.6623 12.9816 27.3865C12.7792 27.0054 12.5353 26.6468 12.3389 26.2633C12.2832 26.1556 12.3294 25.9958 12.3294 25.8596C12.462 25.8596 12.6371 25.8088 12.7176 25.8739C13.0409 26.1385 13.3487 26.4215 13.6396 26.7213C13.7902 26.8927 13.9294 27.0738 14.0563 27.2634L14.2563 27.1557C14.2519 27.0314 14.2304 26.9084 14.1924 26.79C14.0077 26.4148 13.816 26.0431 13.6006 25.6857C13.5078 25.5547 13.3864 25.4466 13.2455 25.3696C12.9224 25.1767 12.5756 25.0217 12.2667 24.8098C12.1732 24.7459 12.0986 24.502 12.1483 24.4145C12.2667 24.1967 12.4347 24.3423 12.5862 24.4452C12.823 24.605 13.0739 24.7447 13.3828 24.9329V23.5279C13.2479 23.5102 13.1189 23.4901 12.9875 23.4782C12.5282 23.4368 12.0666 23.4155 11.6109 23.3504C11.4736 23.3315 11.3529 23.193 11.2251 23.1137C11.2842 23.001 11.3591 22.8974 11.4476 22.8059C12.1915 22.2125 13.0397 21.7633 13.9486 21.4815C14.025 21.4641 14.0961 21.4283 14.1557 21.3773C14.4871 21.0317 14.8114 20.6802 15.1582 20.3121C15.0079 20.1712 14.841 20.0138 14.6729 19.8599C14.4208 19.6291 14.1829 19.5688 13.9083 19.8516C13.4668 20.3073 13.0076 20.7476 12.5401 21.1785C12.4442 21.2661 12.2809 21.2814 12.1483 21.33C12.1467 21.1774 12.1534 21.0249 12.1684 20.8731C12.1767 20.8151 12.2536 20.7689 12.2868 20.7086C12.591 20.0919 12.92 19.4835 13.178 18.8468C13.2101 18.734 13.2162 18.6154 13.1957 18.4999C13.1752 18.3845 13.1287 18.2752 13.0597 18.1804C12.2714 17.3234 11.4642 16.5044 10.664 15.6723H10.6652ZM29.3746 9.95783C28.9331 9.41692 28.5247 8.93164 28.1341 8.43097C27.9779 8.23094 27.8311 8.22621 27.611 8.31261C26.8093 8.64639 26.0029 8.96675 25.1917 9.2737C25.0733 9.3175 24.9183 9.24411 24.7798 9.22399C24.8496 9.09734 24.8887 8.8985 24.9928 8.8547C25.8912 8.47358 26.8014 8.12205 27.7092 7.76223C27.946 7.66754 28.1519 7.69003 28.3235 7.90663C28.7544 8.44754 29.2065 8.97188 29.6255 9.52345C29.9321 9.92706 29.8965 10.062 29.5509 10.4372C29.1201 10.9047 28.707 11.3841 28.2679 11.8469C28.2172 11.8832 28.1591 11.9081 28.0978 11.9198C28.0365 11.9314 27.9733 11.9296 27.9128 11.9143C27.0926 11.6776 26.2794 11.4172 25.4592 11.1805C25.1917 11.1036 25.0473 10.9852 25.1799 10.6692L24.1418 10.4834V11.0314C24.5218 10.8964 24.6366 11.1414 24.723 11.4172C24.8757 11.9084 25.0591 12.3949 25.1633 12.8967C25.239 13.2589 25.4118 13.4317 25.8261 13.4791C25.5894 13.0506 25.3621 12.6719 25.181 12.2694C25.1278 12.1511 25.2106 11.9676 25.2308 11.8137C25.355 11.8871 25.5314 11.9321 25.5953 12.0386C25.9007 12.5511 26.1729 13.0826 26.4593 13.6057C26.6523 13.9608 26.8487 14.3064 26.9908 14.5609L27.5826 14.0224L27.598 14.0875L27.0713 14.2401C27.0938 14.0129 27.1162 13.7868 27.1494 13.4459C26.9292 13.1773 26.6108 12.8056 26.3209 12.4174C26.2427 12.3144 26.2368 12.1558 26.2025 12.022C26.3481 11.9818 26.5067 11.8847 26.6369 11.9132C27.0594 12.0055 27.4654 12.157 27.8903 12.2564C28.0229 12.2884 28.2277 12.2813 28.3141 12.2008C29.0077 11.5522 29.6764 10.8775 30.3629 10.2206C30.5392 10.0502 30.5321 9.92232 30.3795 9.74005C29.6693 8.88627 28.9623 8.02736 28.2584 7.16332C28.0951 6.96211 27.9602 6.96329 27.7483 7.10651C27.1411 7.51722 26.5221 7.909 25.8948 8.29012C25.7693 8.36587 25.587 8.3493 25.432 8.37534C25.4687 8.20845 25.4545 8.00132 25.5503 7.88059C25.9776 7.33732 26.4309 6.81534 26.8878 6.29337C27.1245 6.02587 27.1162 5.80809 26.8606 5.55716C26.0755 4.78782 25.2978 4.01058 24.5277 3.22545C24.2661 2.95795 24.0377 2.65731 23.7441 2.31525C22.6457 3.51543 21.6373 4.59607 20.6561 5.70156C20.2395 6.17501 20.2655 6.31467 20.6561 6.82126C20.9615 7.22014 21.2763 7.61191 21.558 8.02618C21.6255 8.1256 21.5793 8.30196 21.5864 8.44162C21.4458 8.41212 21.3082 8.36932 21.1757 8.3138C21.0857 8.26527 21.0301 8.15401 20.9496 8.07707C20.6157 7.76148 20.2632 7.46623 19.8938 7.19292C19.7554 7.09941 19.4204 7.08876 19.3162 7.19292C18.4629 8.04512 17.6426 8.93045 16.7821 9.83828L18.451 11.9096C18.5324 12.0343 18.6291 12.1484 18.7386 12.2493C18.8468 12.3227 18.9748 12.3615 19.1056 12.3606C19.5932 12.3606 20.082 12.3144 20.5697 12.3168C20.7247 12.3168 20.881 12.4091 21.036 12.4588C20.9697 12.6115 20.9342 12.7902 20.8324 12.9133C20.4868 13.3276 20.1223 13.7229 19.7341 14.1502L20.2809 14.6378C20.7023 13.8555 21.0928 13.1275 21.4882 12.402C21.5746 12.2434 21.6551 11.9889 21.8882 12.1534C21.9711 12.2114 21.9663 12.4908 21.9084 12.6269C21.758 12.982 21.5533 13.3252 21.3284 13.7596C21.6397 13.6093 21.8492 13.5122 22.0528 13.4045C22.1924 13.3323 22.4078 13.2802 22.4504 13.1678C22.6694 12.621 22.8446 12.0564 23.0529 11.4456C22.5558 11.4184 22.1261 11.3924 21.6953 11.3746C21.6349 11.3746 21.5284 11.3995 21.5178 11.435C21.4089 11.7901 21.1035 11.7309 20.8467 11.7676C20.3105 11.8433 19.7743 11.9238 19.2358 11.9806C19.1739 11.9863 19.1115 11.9792 19.0525 11.9599C18.9935 11.9405 18.939 11.9093 18.8925 11.8682C18.4345 11.3509 17.9847 10.8242 17.5515 10.2845C17.2781 9.94363 17.3029 9.6927 17.6343 9.39798C18.0995 8.98135 18.5812 8.57774 19.0689 8.19425C19.1624 8.12205 19.3494 8.17058 19.4938 8.16229C19.4524 8.29722 19.4524 8.47595 19.3624 8.55762C18.9801 8.90205 18.5706 9.21807 18.1717 9.54475C17.9172 9.75307 17.8628 9.9602 18.122 10.2241C18.3812 10.4881 18.6049 10.7757 18.8404 11.0527C19.0277 11.2563 19.2803 11.3879 19.5545 11.4247C19.8286 11.4614 20.107 11.401 20.3413 11.2539C20.1584 11.2626 19.9752 11.2491 19.7956 11.2136C19.6986 11.1829 19.637 11.0373 19.5589 10.9438C19.6453 10.8763 19.7281 10.7591 19.8193 10.7532C20.0632 10.7402 20.3077 10.7509 20.5496 10.7852C21.455 10.9035 22.3853 10.7745 23.2719 11.1071C23.5607 11.2148 23.5962 11.3344 23.5086 11.5806C23.3393 12.0777 23.1736 12.5772 22.9902 13.1252L23.6056 13.0435V10.4561C23.3038 10.4561 23.0328 10.4739 22.7665 10.4478C22.6386 10.436 22.5191 10.339 22.3948 10.281C22.4682 10.1472 22.5132 9.98505 22.6209 9.89036C22.7335 9.81417 22.8661 9.77299 23.002 9.772C24.6591 9.64299 26.3268 9.51753 27.9909 9.40745C28.101 9.40035 28.2206 9.52581 28.3365 9.58973C28.243 9.67968 28.1614 9.82645 28.0537 9.85131C27.7438 9.9064 27.4313 9.94591 27.1174 9.96967C27.3222 10.0229 27.5281 9.9957 27.7234 10.0312C27.8863 10.0784 28.0429 10.1452 28.1898 10.2301L27.9199 10.5437L28.4277 10.8136L29.3746 9.95783ZM34.4688 29.1726L34.3611 29.3241C35.0098 29.994 35.6465 30.6781 36.3141 31.3279C36.6408 31.6463 36.9059 31.6215 37.2835 31.2877C37.9546 30.6959 38.6103 30.0851 39.2707 29.4815C39.53 29.2448 39.6258 28.943 39.4589 28.634C39.2305 28.2068 38.9429 27.8055 38.7038 27.3901C38.6375 27.2717 38.6565 27.1084 38.6352 26.9663C38.7784 26.9864 38.9464 26.9663 39.0601 27.0326C39.5335 27.3214 39.9857 27.6493 40.4626 27.9322C40.568 27.9961 40.8071 27.9961 40.884 27.9215C41.7895 27.0433 42.6878 26.1556 43.5625 25.2465C43.9732 24.8181 43.946 24.5364 43.5365 24.0771C42.8539 23.3054 42.1663 22.5369 41.4734 21.7715C41.3448 21.6322 41.2029 21.5057 41.0497 21.3939C40.9288 21.2912 40.7746 21.2361 40.616 21.239C40.4574 21.2418 40.3052 21.3023 40.188 21.4093C40.0093 21.5525 39.8602 21.7324 39.6874 21.8827C39.475 22.0901 39.244 22.2775 38.9973 22.4426C38.879 22.5124 38.6872 22.452 38.5239 22.4497C38.5468 22.3033 38.5906 22.161 38.6541 22.0271C38.7961 21.8141 38.9914 21.6365 39.1417 21.4294C39.7963 20.5298 39.7335 19.8173 38.9476 19.0444C38.4233 18.5331 37.8895 18.0301 37.3545 17.5306C36.9615 17.1625 36.6715 17.1459 36.2407 17.4856C35.8856 17.7637 35.5625 18.0703 35.2228 18.3627C34.373 19.0941 34.2416 19.4788 34.7908 20.2908C34.816 20.3408 34.8283 20.3963 34.8266 20.4523C34.825 20.5083 34.8094 20.563 34.7813 20.6115C34.7336 20.6424 34.6792 20.6616 34.6227 20.6675C34.5661 20.6735 34.509 20.6661 34.4558 20.6458C34.3015 20.5609 34.158 20.4576 34.0285 20.3381C33.6332 20.0162 33.4545 20.0446 33.1408 20.4908C33.1957 20.5662 33.2567 20.6371 33.3231 20.7027C33.9327 21.2187 34.5529 21.7217 35.1506 22.2496C35.2571 22.3431 35.2796 22.5325 35.34 22.6781C35.1873 22.671 35.0169 22.7053 34.8867 22.6473C34.6839 22.5334 34.4918 22.4015 34.3126 22.2532L34.6322 23.6794C34.9198 23.7753 35.3565 23.6664 35.2701 24.205L36.5189 24.2783C36.4478 23.6238 36.7816 22.9764 36.1957 22.4461C36.0904 22.3526 36.0513 22.149 36.0407 21.9928C35.9992 21.401 35.9626 20.8021 35.9708 20.2067C35.9708 20.0469 36.1365 19.7605 36.2383 19.7546C36.5271 19.738 36.4751 20.0114 36.4751 20.2103C36.4751 20.7902 36.4751 21.3702 36.4751 21.9502L36.5851 21.9596C36.6147 21.7774 36.655 21.5963 36.6727 21.4128C36.7212 20.9003 36.7603 20.3866 36.8017 19.8741C36.8183 19.6694 36.8112 19.4113 37.1071 19.4788C37.1935 19.4989 37.274 19.7712 37.2669 19.9238C37.2349 20.6174 37.1698 21.311 37.1166 22.0046C37.5246 21.6516 37.8808 21.2428 38.1747 20.7902C38.2281 20.6808 38.2568 20.561 38.2586 20.4393C38.2605 20.3176 38.2355 20.197 38.1854 20.086C37.9235 19.6426 37.6312 19.2179 37.3107 18.8148C37.1166 18.5508 36.8917 18.5497 36.6609 18.7828C36.4532 19.0157 36.2297 19.234 35.9921 19.4362C35.4974 19.8161 35.4193 20.2848 35.5897 20.8494C35.7475 21.3813 35.89 21.9174 36.017 22.458C36.0407 22.5645 35.9353 22.6947 35.8892 22.8213C35.7708 22.7396 35.5874 22.6769 35.5578 22.5716C35.366 21.8934 35.2157 21.2045 35.037 20.5227C34.9792 20.312 34.9818 20.0893 35.0446 19.88C35.1074 19.6707 35.2278 19.4832 35.3921 19.3391C35.7471 18.9841 36.1235 18.6503 36.507 18.3283C36.9438 17.9626 37.2965 18.0028 37.6539 18.4633C37.9948 18.9024 38.3168 19.3569 38.628 19.8173C38.9393 20.2777 38.9358 20.6364 38.5914 21.0873C38.196 21.6046 37.7889 22.1135 37.3841 22.626C37.287 22.7444 37.1036 22.8521 37.0846 22.9811C37.0243 23.4037 37.0231 23.8333 36.9959 24.3127C37.3261 24.2736 37.6243 24.321 37.8244 24.2002C38.6398 23.6741 39.6033 23.425 40.5715 23.4901C40.7574 23.5031 41.045 23.3599 41.0509 23.6794C41.0568 23.999 40.7467 23.9517 40.5337 23.9895C40.4686 24.0014 40.3975 23.9659 40.3313 23.973C39.9454 24.0144 39.5596 24.0617 39.1737 24.1067L39.1855 24.2156C39.279 24.2156 39.3714 24.2156 39.4649 24.2156C40.033 24.1825 40.6023 24.1339 41.1716 24.1221C41.2983 24.1221 41.4285 24.2405 41.5563 24.3091C41.4379 24.4074 41.3137 24.5091 41.187 24.6015C41.1598 24.6216 41.1065 24.6015 41.0687 24.6074L39.2376 24.7684V24.8926C39.6199 24.9305 40.0046 24.9577 40.3845 25.011C40.5199 25.0459 40.6506 25.0968 40.7739 25.1625C40.6556 25.2655 40.555 25.4395 40.4283 25.4572C39.7492 25.568 39.0534 25.4147 38.4837 25.0288C38.0102 24.7021 37.5439 24.792 37.0349 24.7991V26.0774C37.2184 26.2076 37.39 26.2715 37.4705 26.397C37.8918 27.1072 38.299 27.8315 38.692 28.5583C38.8766 28.898 38.9559 29.2969 38.6766 29.5916C38.1948 30.1032 37.6753 30.578 37.1225 31.0119C36.7378 31.3125 36.4123 31.2486 36.075 30.8853C35.6631 30.4355 35.295 29.9467 34.8914 29.4874C34.7627 29.3671 34.621 29.2615 34.4688 29.1726ZM24.1714 42.9451C23.6554 42.5202 23.6376 42.0858 24.1051 41.7828C24.7395 41.3721 24.8094 41.2028 24.6626 40.4406C24.5762 39.9991 24.6117 39.5694 24.8662 39.1907C24.9106 39.1478 24.9637 39.1151 25.0219 39.0946C25.0801 39.0742 25.1421 39.0666 25.2035 39.0723C25.2509 39.0723 25.355 39.2984 25.3219 39.3516C24.9384 39.9695 25.1479 40.5731 25.3834 41.1484C25.7052 41.9723 25.7489 42.8788 25.5077 43.7298C25.3101 44.453 25.8344 45.1419 25.3894 45.7917C25.374 45.8153 25.4272 45.8887 25.4533 45.9361C25.6521 46.2971 25.5929 46.6462 25.4829 47.0321C25.387 47.3682 25.4 47.7423 25.3917 48.0973C25.3922 48.314 25.4164 48.5299 25.4639 48.7412C25.482 48.8787 25.5368 49.0087 25.6225 49.1176C25.9883 49.5035 26.1469 49.9461 26.0119 50.461C25.8929 50.8633 25.7511 51.2585 25.587 51.6446C25.4317 52.023 25.396 52.4399 25.4847 52.8391C25.5733 53.2384 25.7821 53.601 26.083 53.8781C26.0896 53.8092 26.0896 53.7399 26.083 53.671C25.9101 52.8235 26.0356 52.0056 26.2735 51.1854C26.375 50.7792 26.4275 50.3624 26.4297 49.9438C26.4404 49.772 26.4002 49.6008 26.3144 49.4516C26.2285 49.3024 26.1007 49.1818 25.9468 49.1046C25.6486 48.9448 25.6119 48.7495 25.7835 48.4761C26.0013 48.121 25.9445 47.7908 25.7409 47.4428C25.7035 47.3722 25.6813 47.2946 25.6756 47.2149C25.6699 47.1352 25.6808 47.0552 25.7077 46.98C25.8616 46.6356 25.9007 46.3136 25.7433 45.9621C25.6917 45.8412 25.6862 45.7056 25.7279 45.581C25.8178 45.3687 25.8641 45.1404 25.8641 44.9099C25.8641 44.6793 25.8178 44.4511 25.7279 44.2388C25.6912 44.1429 25.7279 43.9358 25.7989 43.892C26.1054 43.7073 26.1078 43.4386 26.0676 43.1451C25.9977 42.6362 25.9279 42.126 25.8462 41.6183C25.8226 41.4739 25.7989 41.2845 25.703 41.2052C25.374 40.9377 25.4414 40.5743 25.4249 40.2382C25.3976 39.67 25.845 39.3173 26.3907 39.4759C26.607 39.5554 26.8151 39.6557 27.0121 39.7754C27.553 40.0606 27.9933 39.9908 28.3874 39.5185C28.7969 39.0235 29.0469 38.4161 29.1047 37.7762C29.1627 37.246 28.9331 36.8637 28.5011 36.5761C28.1686 36.3663 27.8484 36.1375 27.5423 35.8908C27.1979 35.5984 27.1304 35.1995 27.3056 34.7805C27.3667 34.6446 27.4384 34.5136 27.5199 34.3888C27.7045 34.0905 27.6844 33.8384 27.4015 33.6017C27.1458 33.3886 26.915 33.1471 26.6617 32.9069C25.5633 33.9946 24.246 34.3947 22.6528 33.9721L23.0636 34.5107C23.2269 34.4645 23.3914 34.3675 23.4553 34.4124C23.5081 34.4574 23.551 34.5128 23.5814 34.5751C23.6117 34.6374 23.6288 34.7053 23.6317 34.7746C23.6388 36.4447 23.6376 38.1148 23.6175 39.7837C23.6175 39.9328 23.4613 40.0807 23.3808 40.2287C23.2979 40.0855 23.144 39.9434 23.144 39.799C23.1216 39.0119 23.1358 38.2237 23.1358 37.4318V35.0906C22.9203 35.3095 22.719 35.542 22.5333 35.7866C22.4394 35.9324 22.4016 36.1074 22.4268 36.279C22.5083 36.647 22.6211 37.0073 22.7641 37.3561C22.9476 37.807 22.8765 38.49 22.5783 38.7764C22.2516 39.0877 22.0326 39.0747 21.3757 38.7054C20.8703 38.4213 20.4809 38.5349 20.0856 39.1185C20.2146 39.0699 20.301 39.0439 20.3827 39.0001C20.551 38.907 20.7442 38.8689 20.9353 38.8912C21.1263 38.9134 21.3056 38.995 21.4479 39.1244C21.605 39.2472 21.721 39.4148 21.7806 39.6051C21.8402 39.7953 21.8406 39.9992 21.7817 40.1896C21.7142 40.4358 21.6633 40.7223 21.5059 40.8998C21.0621 41.404 21.0952 41.9899 21.1141 42.5853C21.1072 42.8835 21.1174 43.1819 21.1449 43.4789C21.1727 43.7319 21.2533 43.9763 21.3816 44.1962C21.5497 44.453 21.5746 44.653 21.3816 44.8886C21.1319 45.1857 21.1449 45.491 21.4124 45.7644C21.59 45.9491 21.5959 46.0911 21.4124 46.284C21.0834 46.6391 21.1059 46.9114 21.3982 47.2842C21.4846 47.3943 21.5379 47.6286 21.4787 47.7375C21.2585 48.1482 21.242 48.5234 21.4894 48.9211C21.6397 49.1579 21.6184 49.3816 21.3142 49.5129C21.1731 49.5697 21.0545 49.6709 20.9761 49.8012C20.8977 49.9315 20.8639 50.0837 20.8798 50.2349C20.9045 50.6392 20.9671 51.0402 21.0668 51.4328C21.2586 52.1524 21.2929 52.8318 20.9295 53.5254C20.7981 53.7763 20.8005 54.129 20.8324 54.4261C20.8703 54.7812 20.8467 55.0901 20.6241 55.3848C20.4342 55.6146 20.2798 55.8715 20.1661 56.1471C20.1093 56.3057 20.1803 56.5483 20.275 56.7046C20.3235 56.785 20.5496 56.7555 20.6407 56.7685C20.707 56.4655 20.7129 56.2086 20.8194 56.005C20.926 55.8015 21.1319 55.65 21.2929 55.4736C21.0443 54.7895 21.0763 54.3634 21.4278 53.7254C21.6113 53.3928 21.8646 53.0815 21.964 52.7253C22.0634 52.369 22.1238 51.9382 21.9853 51.6399C21.5604 50.7285 21.4953 49.8763 22.0954 49.0359C21.6941 48.5518 21.6219 48.0512 21.8515 47.4972C21.8932 47.365 21.8826 47.2219 21.822 47.0972C21.6432 46.7421 21.5852 46.387 21.7426 46.0023C21.7652 45.9494 21.7768 45.8924 21.7768 45.8349C21.7768 45.7773 21.7652 45.7203 21.7426 45.6674C21.4799 45.2496 21.6314 44.8696 21.7131 44.4317C21.7864 44.0352 21.4704 43.5854 21.6918 43.1416C21.7208 43.096 21.7435 43.0466 21.7592 42.9948C21.7822 42.92 21.7822 42.84 21.7592 42.7652C21.4858 42.2917 21.6409 41.8514 21.8089 41.3993C22.0196 40.8406 22.2421 40.2867 22.1096 39.6617C22.0847 39.5434 22.2078 39.3978 22.2634 39.264C22.3688 39.3741 22.5309 39.4664 22.57 39.5966C22.7748 40.2855 22.5877 40.9329 22.3333 41.4443C22.7428 41.8834 23.1393 42.2503 23.4613 42.6729C23.698 42.977 23.5595 43.1771 23.2162 43.2007C23.1555 43.2079 23.0969 43.2277 23.0443 43.2589C22.9917 43.2901 22.9463 43.332 22.9109 43.3818C22.8754 43.4398 22.9535 43.5913 23.015 43.6766C23.1334 43.8411 23.3228 43.9689 23.3914 44.15C23.4601 44.3311 23.4068 44.5359 23.408 44.7311C23.2553 44.7311 23.1026 44.7229 22.9511 44.7311C22.8635 44.7311 22.725 44.7394 22.7014 44.7891C22.681 44.8351 22.6714 44.8851 22.6733 44.9354C22.6751 44.9856 22.6884 45.0348 22.712 45.0791C22.7965 45.1658 22.898 45.234 23.0103 45.2792C23.3192 45.4484 23.55 45.6709 23.4541 46.0568C23.3618 46.4249 23.0541 46.4284 22.7097 46.4332C22.7985 46.5843 22.9041 46.7248 23.0245 46.8522C23.1677 47.0238 23.35 47.186 23.4281 47.386C23.5275 47.6393 23.3547 47.7647 23.086 47.7304C22.957 47.7138 22.815 47.8003 22.5759 47.8689L23.5701 48.6489L24.272 47.4653C23.6648 47.1185 23.6589 46.9717 24.1915 45.9704C23.6672 45.3786 23.6696 45.3478 24.2756 44.4199C23.7051 43.9026 23.6909 43.7346 24.1726 42.9451H24.1714ZM29.3911 22.9113C29.1106 22.4828 28.8869 22.1313 28.6538 21.7868C28.4206 21.4424 28.4904 21.1086 28.8905 20.9429C29.6326 20.634 30.3937 20.5014 31.1891 20.7571C31.6731 20.9133 31.7229 21.0779 31.5157 21.5229C31.3438 21.9314 31.2045 22.3529 31.0991 22.7834C31.0245 23.0462 31.1642 23.1492 31.4246 23.1598C31.6427 23.1735 31.8604 23.1262 32.0532 23.0231C32.2459 22.9201 32.4061 22.7653 32.5159 22.5763C32.7739 22.1834 33.0213 22.194 33.2438 22.6095C33.5372 23.1356 33.6612 23.7395 33.5989 24.3387C33.4971 25.2394 33.4959 25.6407 32.3738 25.301C32.3431 25.5945 32.3952 25.8052 32.7538 25.8348C33.0236 25.8573 33.29 25.9271 33.5823 25.9804C34.5742 24.5802 34.1007 22.1526 33.0426 21.1844C32.9881 21.2578 32.9396 21.3394 32.8769 21.4093C32.504 21.8223 32.1359 22.2378 31.7465 22.6379C31.6779 22.7077 31.5193 22.6888 31.4021 22.7112C31.3891 22.5929 31.3193 22.4023 31.3725 22.3562C31.7087 22.0579 31.6542 21.646 31.7596 21.272C31.8217 21.1216 31.9012 20.979 31.9963 20.8471L32.4023 21.1844L32.7431 20.8056C32.6473 20.7169 32.5751 20.6364 32.4898 20.5689C31.1275 19.5309 29.3391 19.5037 28.0714 20.6565C27.0393 21.5915 26.135 22.6686 25.1834 23.6913C25.1558 23.7364 25.1402 23.7878 25.1381 23.8406C25.136 23.8935 25.1475 23.946 25.1716 23.9931C25.9528 24.8015 26.741 25.6028 27.5471 26.3875C27.6216 26.4609 27.8548 26.4597 27.959 26.3982C28.2466 26.2289 28.4833 25.8904 28.778 25.8372C29.2846 25.7472 29.1698 25.3696 29.2882 25.0749C28.911 25.2248 28.5552 25.4238 28.23 25.6667C27.7838 26.0147 27.6572 26.0218 27.3068 25.5602C26.5966 24.6429 26.6262 23.4415 27.3684 22.5159C27.6193 22.2035 27.7234 22.2011 28.0028 22.5053C28.3448 22.8947 28.7615 23.0391 29.3911 22.9113ZM22.4718 49.4005C22.0492 49.926 22.0362 50.5723 22.3534 51.228C22.6706 51.8837 22.6741 52.53 22.2776 53.1573C22.1186 53.3937 21.983 53.645 21.8728 53.9077C21.7413 54.2132 21.6587 54.5376 21.6278 54.8688C21.6172 55.1813 21.7734 55.3919 22.1889 55.3754C23.2293 55.3316 24.2732 55.3245 25.3136 55.36C25.6687 55.3718 25.8427 55.2416 25.7788 54.9528C25.6946 54.5202 25.5445 54.103 25.3337 53.7159C24.9147 52.9951 24.7928 52.2861 25.1562 51.5168C25.2519 51.3223 25.3261 51.1179 25.3775 50.9072C25.4585 50.5806 25.5077 50.2468 25.5243 49.9106C25.5243 49.5662 25.0366 49.1508 24.8141 49.3188C24.3241 49.6905 23.8116 49.539 23.3003 49.5236C23.0219 49.4989 22.7453 49.4578 22.4718 49.4005ZM22.2895 17.063C22.1167 16.7754 21.9865 16.5588 21.8575 16.341C21.3118 15.4214 21.3414 15.3101 22.2812 14.7562C23.2837 14.1644 24.4768 14.2449 25.1881 14.9539C25.5716 15.3362 25.6 15.5244 25.3467 15.999C25.1526 16.3647 24.9573 16.7305 24.7242 17.1672C25.0686 17.1128 25.316 17.0642 25.5693 17.0346C26.0427 16.979 26.3043 17.1696 26.3209 17.6537C26.3399 18.1005 26.3185 18.5482 26.2569 18.9912C26.167 19.596 25.7894 19.7427 25.2592 19.4208C25.0378 19.2859 24.82 19.1474 24.5206 18.9604C24.7147 19.6303 24.8757 20.1937 25.0402 20.7583C25.1053 20.4908 25.0591 20.241 25.0639 19.9913C25.0639 19.8729 25.1645 19.7546 25.2201 19.6291C25.3219 19.725 25.4758 19.8043 25.5148 19.9215C25.5746 20.1564 25.6142 20.3959 25.6332 20.6376C27.0535 19.5001 27.4737 18.0786 27.1068 16.3446C26.7292 14.555 25.7409 13.6341 23.9288 13.5738C23.3464 13.542 22.7642 13.6413 22.2253 13.8644C21.6863 14.0874 21.2043 14.4286 20.8147 14.8627C21.4432 15.432 21.4598 16.1836 21.4538 16.9494L22.2895 17.063ZM22.1522 27.5723C22.1889 27.628 22.2244 27.6836 22.2599 27.7392C22.4344 27.6874 22.6039 27.6201 22.7665 27.538C23.6459 27.0007 24.5289 26.99 25.4308 27.4753C25.7042 27.622 25.7575 27.7724 25.5622 28.0529C25.3656 28.3724 25.1897 28.704 25.0355 29.0459L25.1538 29.1359C25.458 28.9382 25.7669 28.7488 26.064 28.5441C26.2427 28.4198 26.3978 28.402 26.5019 28.6115C26.934 29.4827 27.0263 30.368 26.5931 31.2723C26.4369 31.599 26.2025 31.6949 25.8604 31.5576C25.6765 31.4988 25.4891 31.4514 25.2994 31.4155C25.4509 31.741 25.5456 31.9813 25.6699 32.2038C25.8403 32.5068 25.748 32.6986 25.4746 32.8796C24.8106 33.3176 24.0957 33.4549 23.3441 33.2193C23.0613 33.138 22.807 32.9789 22.6102 32.7601C22.5084 32.6323 22.6233 32.3316 22.6398 32.1233C22.0977 32.36 21.7521 32.2535 21.4988 31.7209C21.4313 31.6033 21.3882 31.4733 21.3722 31.3386C21.358 30.8545 21.3509 30.3692 21.3722 29.8863C21.3828 29.678 21.4231 29.4259 21.5509 29.2827C21.6527 29.1643 21.906 29.1915 22.1534 29.1418C21.603 29.0116 21.8799 28.6151 21.8563 28.3062C21.3461 29.1513 21.0017 30.0212 21.0384 31.0013C21.0751 31.9813 21.4929 32.7483 22.3487 33.2501C23.5098 33.9283 25.0781 33.707 26.1102 32.7234C26.2392 32.605 26.3469 32.4571 26.4818 32.2985C26.3741 32.2689 26.3362 32.2547 26.2972 32.2476C26.0545 32.1991 25.6403 32.3162 25.7113 31.8925C25.774 31.5291 26.1232 31.7398 26.3623 31.7505C26.5753 31.76 26.8263 31.8771 26.9612 31.5741C27.4784 30.4189 27.6501 29.2069 26.8712 28.1618C26.0108 27.0054 24.968 25.9827 23.9619 24.8477L22.1522 27.5723ZM34.5671 28.5796C34.8429 27.8919 35.1269 27.1522 35.4465 26.4278C35.5033 26.2976 35.7033 26.2289 35.8383 26.1319C35.8548 26.2881 35.9259 26.4633 35.8785 26.5947C35.6939 27.1048 35.4749 27.6007 35.2607 28.1002C35.0547 28.5808 35.0796 29.0152 35.4512 29.4176C35.7175 29.7064 35.9507 30.026 36.2087 30.323C36.5011 30.6604 36.7556 30.7006 37.087 30.4237C37.461 30.1112 37.8161 29.7727 38.1522 29.4247C38.2434 29.3312 38.3381 29.1264 38.2966 29.0341C37.9782 28.3393 37.6255 27.6599 37.2847 26.9746L37.1438 27.0444C37.3651 27.5794 37.5983 28.1097 37.7983 28.653C37.8421 28.7713 37.7711 28.9299 37.7534 29.0696C37.6152 28.9974 37.4823 28.9155 37.3557 28.8246C37.2939 28.7538 37.2432 28.6739 37.2053 28.5879C37.1655 28.6689 37.1418 28.757 37.1355 28.8471C37.0858 28.9974 37.0172 29.1394 36.9509 29.285C36.8479 29.1536 36.6846 29.0353 36.6526 28.8885C36.605 28.5837 36.5777 28.2761 36.5709 27.9677H36.468C36.4301 28.2861 36.4111 28.608 36.3496 28.9217C36.3212 29.0625 36.204 29.1856 36.1283 29.3158C36.043 29.188 35.8714 29.0459 35.8915 28.9323C35.9839 28.3216 36.0442 27.6848 36.2727 27.1214C36.4526 26.688 36.5374 26.221 36.5212 25.7519C36.494 24.7684 36.5023 24.7624 35.5057 24.7459C35.1506 24.7388 34.8298 24.7198 34.9671 24.083C34.7683 24.2334 34.618 24.2866 34.6002 24.3683C34.5055 24.8086 34.444 25.2572 34.3635 25.7413C34.5744 25.5399 34.7982 25.3525 35.0334 25.1803C35.1518 25.1033 35.3364 25.1234 35.4903 25.0998C35.4465 25.2465 35.4453 25.4395 35.3494 25.533C34.9813 25.8881 34.5825 26.2171 34.3043 26.4597C34.3043 26.7746 34.341 26.977 34.296 27.1593C34.2096 27.5143 34.0771 27.8694 34.0001 28.1061L34.5671 28.5796ZM15.0848 26.9829C15.1677 26.7758 15.2328 26.616 15.2967 26.455C15.355 26.3018 15.4563 26.1686 15.5883 26.0715C15.7203 25.9743 15.8776 25.9172 16.0412 25.907C16.5146 25.8443 16.6472 25.6703 16.6235 25.1495C16.5969 25.1508 16.5706 25.156 16.5454 25.1649C16.2554 25.3116 15.9654 25.4596 15.6766 25.6111C15.2209 25.8478 14.9949 25.7732 14.7724 25.3057C14.3522 24.4204 14.5439 23.3741 15.2363 22.6284C15.4458 22.4035 15.6104 22.3846 15.8601 22.5586C16.2152 22.8059 16.5987 23.0131 16.9703 23.238L17.0721 23.1362C16.8851 22.7416 16.6977 22.3471 16.5099 21.9525L16.4105 21.9952C16.4246 22.0879 16.4226 22.1824 16.4046 22.2745C16.3523 22.3714 16.2874 22.4609 16.2116 22.5408C16.124 22.4579 16.0045 22.3893 15.9607 22.2875C15.9169 22.1857 15.9406 22.0165 15.9039 21.8874C15.7997 21.5205 15.6802 21.1595 15.5488 20.7358C14.306 21.5182 14.0018 22.6852 13.8835 23.8984C13.7698 25.0796 14.0681 26.1532 15.0848 26.9829ZM16.2448 26.4006C15.6837 26.4136 15.6731 26.8172 15.5962 27.1226C15.5133 27.4492 15.8506 27.4279 16.0211 27.493C16.7919 27.776 17.6336 27.8018 18.4202 27.5664C20.3436 27.0326 21.5414 25.6407 22.5238 24.0156C22.5688 23.9398 22.5025 23.7351 22.4232 23.6605C21.977 23.2249 21.5095 22.8118 21.0514 22.3881C20.5934 21.9644 20.3353 22.0176 20.0678 22.4875C20.2785 22.5171 20.5957 22.4639 20.752 22.5988C21.3698 23.1302 21.5592 24.5979 21.1556 25.2962C20.9189 25.7117 20.5638 25.8218 20.1329 25.6217C19.8501 25.4892 19.5624 25.3673 19.276 25.2406C19.3261 25.5486 19.4269 25.8462 19.5743 26.1212C19.6157 26.1848 19.6423 26.2568 19.6523 26.332C19.6623 26.4072 19.6553 26.4836 19.632 26.5558C19.6086 26.6279 19.5694 26.694 19.5172 26.749C19.4651 26.8041 19.4012 26.8468 19.3304 26.874C18.425 27.2942 17.4935 27.5463 16.5288 27.0113C16.2909 26.8764 16.0554 26.7722 16.2448 26.4006ZM5.45616 19.9404L4.96022 19.4267L1.32417 22.9113L4.71758 26.4692L5.27861 26.1035C4.3483 25.2158 3.47834 24.3825 2.60365 23.554C2.16335 23.1362 2.15033 23.0805 2.60365 22.6521C3.53397 21.7513 4.48086 20.8613 5.45616 19.9404ZM27.1269 12.4553L27.0855 12.6269C27.2583 12.7878 27.4086 13.0411 27.6098 13.092C28.2999 13.266 28.9745 13.3903 29.5545 12.7085C30.2019 11.9475 30.9582 11.2799 31.6436 10.5496C31.7524 10.4313 31.84 10.1295 31.7702 10.0395C30.9121 8.9269 30.0232 7.8368 29.1201 6.71474L28.7532 7.01537C29.4432 7.85455 30.106 8.66059 30.7653 9.46545C31.1263 9.90338 31.1275 10.1519 30.7239 10.5556C30.2256 11.0539 29.6835 11.5095 29.2112 12.0303C28.6325 12.6766 28.0572 13.2057 27.1269 12.4553ZM10.2687 14.3171L6.85874 17.5306C7.37952 18.2265 7.38426 18.2277 7.95358 17.6489C8.69925 16.9001 9.44453 16.1505 10.1894 15.4001C10.5989 14.987 10.6984 14.9905 11.1067 15.4155C11.8382 16.1793 12.5712 16.9419 13.3059 17.7034C13.3923 17.7933 13.4893 17.8738 13.6124 17.9874C13.6515 17.4974 11.3162 14.9811 10.2687 14.3171ZM41.2284 28.2565C41.6451 28.5405 41.9126 28.5559 42.2298 28.2292C43.0583 27.3853 43.9212 26.5828 44.7698 25.7638C45.1675 25.3803 45.1983 25.1081 44.8609 24.6607C44.5757 24.2819 44.2609 23.9256 43.9685 23.5516C43.3909 22.8154 42.8287 22.0662 42.2393 21.3406C42.1552 21.2376 41.9552 21.2305 41.8084 21.1785C41.8569 21.311 41.8735 21.4708 41.9611 21.5714C42.644 22.3609 43.3495 23.1314 44.0312 23.9233C44.4917 24.4571 44.4964 24.921 44.0312 25.4537C43.6489 25.8928 43.2264 26.2976 42.8133 26.7083C42.2984 27.222 41.7729 27.7262 41.2284 28.2565ZM26.9067 4.93932C27.2512 4.75349 27.1719 4.59252 26.9908 4.40077C26.4605 3.83856 25.9433 3.26569 25.4166 2.69992C24.8899 2.13416 24.3691 1.58378 23.9264 1.1127L20.3685 4.57713C20.5579 4.88132 20.7401 4.83398 20.9686 4.59015C21.7474 3.75926 22.5365 2.93665 23.3358 2.12232C23.6909 1.75422 23.7607 1.76724 24.1253 2.13889C25.0426 3.06921 25.9693 3.99953 26.9044 4.93813L26.9067 4.93932ZM30.8127 16.1209C31.4352 16.1209 32.0152 16.1351 32.5881 16.1079C32.6571 16.0917 32.721 16.0584 32.7738 16.0111C32.8265 15.9637 32.8665 15.9038 32.8899 15.8368C32.9384 15.3397 32.9372 14.8379 32.9586 14.3372C32.9704 14.0732 32.8402 13.9738 32.5893 13.9821C32.13 13.9916 31.6696 13.9963 31.2104 13.9951C30.9582 13.9951 30.8186 14.1265 30.8138 14.3597C30.8044 14.9598 30.8127 15.5658 30.8127 16.1197V16.1209ZM18.2901 6.51826C17.4012 7.4758 16.549 8.39902 15.692 9.31631C15.4979 9.52345 15.6104 9.6714 15.7441 9.84302C16.5632 10.8881 17.3763 11.9392 18.193 12.9867C18.5149 13.401 19.8323 13.3512 20.14 12.9145C20.1519 12.8979 20.14 12.8636 20.14 12.8648C19.7128 12.8648 19.2819 12.8813 18.8546 12.8565C18.6864 12.8494 18.5265 12.7812 18.4049 12.6647C17.7136 11.8303 17.0437 10.9769 16.3655 10.1306C16.0341 9.71637 16.0353 9.68205 16.4259 9.29619C16.5987 9.12338 16.7809 8.9565 16.9478 8.7825C17.5396 8.1765 18.1386 7.56812 18.7481 6.94672L18.2901 6.51826ZM23.6613 56.7921C24.3241 56.7921 24.9869 56.8016 25.6497 56.785C25.8024 56.785 25.9528 56.6927 26.1043 56.643C26.0143 56.4501 25.9729 56.1613 25.8237 56.0843C25.5147 55.9209 25.1729 55.829 24.8236 55.8157C23.9051 55.805 22.9854 55.8512 22.067 55.8938C21.851 55.8918 21.6384 55.9478 21.4515 56.0559C21.3796 56.1172 21.3214 56.1929 21.2806 56.2782C21.2398 56.3634 21.2174 56.4562 21.2148 56.5507C21.2148 56.6312 21.4811 56.7768 21.6302 56.7874C22.3072 56.8064 22.9843 56.7921 23.6613 56.7921ZM22.4386 18.9592C22.0563 19.1711 21.7675 19.3344 21.4751 19.4918C21.2278 19.6256 20.9745 19.6765 20.7863 19.4113C20.4229 18.9 20.3697 18.3058 20.3898 17.7034C20.4016 17.3483 20.4904 17.0299 20.8739 16.8879C20.9047 16.8772 20.9271 16.8299 20.9425 16.7956C21.0905 16.4523 20.8242 15.5788 20.4951 15.335C19.2843 16.7352 19.7684 19.9156 21.4006 20.9051C21.3663 20.6411 21.3296 20.4221 21.3142 20.2032C21.3071 20.1061 21.3142 19.9475 21.3674 19.9203C21.4201 19.898 21.4766 19.8865 21.5337 19.8865C21.5909 19.8865 21.6474 19.898 21.7 19.9203C21.7912 19.9641 21.8456 20.0872 21.9498 20.2174L22.4386 18.9592ZM17.0271 31.3149C16.5703 31.3149 16.111 31.3386 15.6565 31.3078C15.2446 31.2794 15.1192 31.496 15.1192 31.8404C15.1192 32.2725 15.144 32.7057 15.1464 33.1424C15.1464 33.3531 15.2304 33.4336 15.4399 33.4206C15.8459 33.3957 16.2531 33.3791 16.659 33.3697C17.0141 33.3602 17.142 33.1566 17.1325 32.843C17.1005 32.347 17.0591 31.8617 17.0271 31.3149ZM20.7437 36.2174C20.7958 36.0813 20.8881 35.9488 20.8904 35.8138C20.8934 35.5027 20.878 35.1916 20.8443 34.8823C20.7603 33.9792 21.1035 33.6135 21.7367 33.6525L20.7307 32.6169L19.9305 33.2868L19.966 33.3945C20.1103 33.3601 20.2525 33.3178 20.3921 33.2679C20.5401 33.2099 20.6738 33.1022 20.8265 33.0678C20.8764 33.0666 20.9258 33.078 20.9701 33.101C21.0143 33.124 21.0521 33.1577 21.0798 33.1992C21.113 33.2702 21.068 33.4513 21.0124 33.4738C20.4407 33.7034 20.4821 34.2065 20.4655 34.6752C20.4348 35.5037 20.1223 35.8446 19.3009 35.9274C19.0132 35.957 18.7173 36.0458 18.7091 36.3678C18.6747 37.2046 18.6274 38.0497 18.7091 38.8794C18.7741 39.5659 19.3281 39.7079 19.8631 39.2439C19.3304 39.3055 19.0914 39.1824 19.0345 38.7291C18.9538 38.1661 18.9142 37.5981 18.9162 37.0294C18.9166 36.879 18.9499 36.7304 19.0139 36.5943C19.0778 36.4581 19.1709 36.3376 19.2864 36.2413C19.4019 36.1449 19.5372 36.075 19.6826 36.0366C19.828 35.9981 19.9801 35.992 20.1282 36.0186C20.3354 36.0696 20.539 36.1341 20.7378 36.2115L20.7437 36.2174ZM39.8685 29.7892L39.7833 29.6945C39.5927 29.8567 39.3974 30.0129 39.2128 30.181C38.6707 30.6734 38.1475 31.1847 37.5888 31.6593C36.9757 32.1837 36.5023 32.1636 35.8915 31.6321C35.7294 31.4901 35.5862 31.3244 35.4358 31.1681L34.154 29.8236L34.0191 29.9171C34.1433 30.136 34.238 30.3822 34.399 30.5716C35.0026 31.2818 35.6252 31.9837 36.2466 32.682C36.623 33.1057 36.7792 33.1045 37.1639 32.6974C37.9759 31.8412 38.787 30.9847 39.5974 30.1278C39.6919 30.0178 39.7804 29.9028 39.8626 29.7833L39.8685 29.7892ZM22.0066 15.6403L22.9026 17.0926L23.021 17.0453C22.9428 16.7127 22.841 16.3848 22.7961 16.0475C22.7783 15.9149 22.8872 15.7646 22.9381 15.6214C23.0411 15.7197 23.1831 15.799 23.2387 15.9185C23.333 16.1498 23.4121 16.387 23.4755 16.6287C23.5843 16.4204 23.5938 16.212 23.6684 16.0369C23.7429 15.8617 23.6222 15.4356 24.0022 15.5102C24.3572 15.5788 24.1631 15.9102 24.143 16.1315C24.1134 16.4381 24.0554 16.7423 24.0093 17.0477L24.175 17.0962C24.3857 16.7139 24.6023 16.3328 24.807 15.9469C25.0603 15.4735 24.9917 15.2829 24.5005 15.0509C23.6755 14.6639 22.6185 14.9065 22.0066 15.6403ZM9.92547 31.4996L12.8845 29.1678L12.8265 29.0838C12.7555 29.1086 12.6866 29.1391 12.6206 29.1749C11.9388 29.6141 11.2535 30.0496 10.5788 30.4994C9.90417 30.9492 9.61182 30.9184 9.06854 30.3361C8.3418 29.5561 7.6127 28.7796 6.86821 27.9854L6.51312 28.3665L9.92547 31.4996ZM21.8575 34.1651C21.384 34.1793 21.2136 34.4408 21.3154 34.8669C21.442 35.396 21.4751 35.8967 21.2124 36.4056C21.1392 36.5656 21.1316 36.7479 21.1911 36.9134C21.273 37.124 21.4124 37.3073 21.5935 37.4425C21.6835 37.5028 22.0019 37.4152 22.0409 37.3241C22.1156 37.1314 22.1131 36.9173 22.0338 36.7264C21.758 36.1855 21.8527 35.7416 22.2705 35.3262C22.4504 35.1439 22.7014 34.9226 22.5073 34.6681C22.3131 34.4136 22.0078 34.2739 21.8551 34.1651H21.8575ZM20.1519 21.6507C19.0558 20.5512 16.9242 20.144 16.0376 20.6529L16.3927 21.5998C17.0094 21.0199 18.0959 20.9098 18.8937 21.3371C19.5861 21.7075 19.5861 21.7075 19.3375 22.439C19.3304 22.4603 19.3458 22.4899 19.3494 22.5136L20.1519 21.6507ZM40.1241 19.0125C39.319 17.9637 38.3568 17.0455 37.2716 16.2902C37.1391 16.199 36.829 16.2688 36.6538 16.3624C36.3709 16.5127 36.133 16.7482 35.8738 16.9447C35.327 17.359 34.7785 17.772 34.2286 18.1839L34.2818 18.3236C34.4002 18.2916 34.5363 18.2905 34.6203 18.2218C35.0701 17.8517 35.5116 17.4714 35.9448 17.0808C36.6171 16.4748 36.9722 16.4594 37.6101 17.095C38.3321 17.8217 39.0423 18.5757 39.762 19.3261L40.1241 19.0125ZM16.6141 16.4239V14.7763L15.9157 14.7432L15.2352 14.7124C15.2352 14.9692 15.2352 15.1858 15.2352 15.3989C15.2174 16.6381 15.2801 16.6878 16.6141 16.4239ZM30.7961 31.219C30.4256 32.766 30.4162 32.6524 31.5986 32.9092L31.6779 32.9246C31.9217 32.9696 32.033 32.8583 32.0401 32.6204C32.0578 32.3115 32.1194 32.0002 32.0933 31.696C32.0771 31.6145 32.0414 31.5381 31.9893 31.4734C31.9371 31.4087 31.8701 31.3576 31.7939 31.3244C31.4644 31.2632 31.1309 31.2264 30.7961 31.2143V31.219ZM24.0104 19.0054L23.8696 19.0338C23.8921 19.1746 23.9087 19.3166 23.9382 19.4551C24.0223 19.8528 24.1288 20.2458 24.1868 20.647C24.2022 20.7559 24.0803 20.8837 24.0211 21.0021C23.9217 20.9193 23.769 20.853 23.7335 20.7488C23.6222 20.415 23.5559 20.0659 23.4719 19.7238C23.3311 20.0292 23.2802 20.3369 23.1772 20.6269C23.1298 20.7618 22.9712 20.969 22.8836 20.9595C22.6327 20.9323 22.6611 20.7228 22.7108 20.5192C22.8292 20.0327 22.9203 19.5415 23.0221 19.0515C22.7409 19.5775 22.5008 20.1244 22.3037 20.6873C22.2931 20.7415 22.2952 20.7974 22.31 20.8506C22.3248 20.9038 22.3518 20.9529 22.3889 20.9938C22.7357 21.324 23.8897 21.4235 24.2756 21.1536C24.3833 21.0779 24.5265 20.9074 24.5052 20.8163C24.3655 20.2032 24.1809 19.6031 24.0104 19.0054ZM29.055 26.9699L28.9804 27.0492C29.0621 27.1439 29.1272 27.293 29.229 27.325C30.5546 27.7357 31.8211 27.6966 32.9515 26.7769C33.0274 26.6925 33.0897 26.5966 33.1361 26.4929C33.0237 26.4455 32.91 26.3556 32.7988 26.3579C32.4555 26.3662 32.1478 26.2609 32.0152 25.9579C31.9158 25.7271 31.9549 25.4359 31.9276 25.1069L31.5287 25.0134C31.6897 25.4868 31.8223 25.8632 31.9548 26.2455C32.0732 26.5746 31.975 26.8207 31.6779 27.0066C30.9287 27.48 30.1617 27.5475 29.3675 27.1249C29.2657 27.0634 29.1603 27.0149 29.0562 26.964L29.055 26.9699ZM28.9935 15.6699L28.8751 15.5516L27.6441 16.6381V18.9332L29.8101 16.6381L29.6575 16.4914C29.2598 16.9104 28.8739 17.3424 28.4585 17.7413C28.3661 17.83 28.1685 17.8064 28.0193 17.8348C28.0501 17.6939 28.0359 17.5128 28.1199 17.4181C28.4158 17.0844 28.7473 16.7825 29.0668 16.4653C29.1686 16.3624 29.2645 16.2535 29.3627 16.1469L29.2834 16.0795C29.0467 16.302 28.823 16.5328 28.5792 16.7447C28.4111 16.8914 28.2383 17.2181 27.9874 16.966C27.7104 16.6855 28.1057 16.5588 28.2383 16.4026C28.4703 16.1398 28.7449 15.909 28.9946 15.664L28.9935 15.6699ZM21.8291 21.2542L21.7308 21.3856L23.5974 22.8355C24.2839 22.2863 25.0946 21.3134 25.0875 21.0601C24.0744 22.2769 22.9594 21.8815 21.8291 21.2542ZM28.6017 23.8795C27.5897 23.509 27.5897 23.509 27.6228 23.238L28.3863 23.4486L28.3957 23.4072L27.6856 22.9728C27.1127 23.6901 27.179 24.7968 27.8217 25.3306L28.5484 24.8477L28.5236 24.792L27.6548 24.9376L27.5968 24.779L28.4738 24.405C28.2371 24.3813 28.0655 24.3955 27.9247 24.3399C27.8122 24.2949 27.7329 24.1635 27.6394 24.0712C27.7483 23.9966 27.8513 23.8735 27.9696 23.8582C28.1804 23.8453 28.3919 23.8513 28.6017 23.8759V23.8795ZM15.6175 23.0213C14.9712 23.6001 14.8528 24.5719 15.3582 25.2134L16.4128 24.6678C16.1821 24.6885 15.9544 24.7341 15.7335 24.8039C15.6382 24.802 15.5442 24.7819 15.4565 24.7447C15.5204 24.6713 15.5689 24.5671 15.6482 24.5328C15.8779 24.4334 16.1217 24.3624 16.3584 24.2795C16.1123 24.2115 15.8615 24.1621 15.608 24.1316C15.3713 24.083 15.305 23.9327 15.4529 23.7173C15.5287 23.6061 15.5973 23.4912 15.7122 23.3113L16.143 23.4179L16.1738 23.3587L15.6175 23.0213ZM31.0044 25.0441L30.86 25.0583C30.8505 25.1488 30.8505 25.2401 30.86 25.3306C30.9239 25.6075 30.9855 25.8857 31.0754 26.1532C31.1453 26.3615 31.163 26.5615 30.918 26.5959C30.828 26.6077 30.673 26.4041 30.6079 26.2704C30.5213 26.0559 30.4501 25.8356 30.3948 25.6111L30.3179 25.6194C30.1996 26.0123 30.0753 26.4053 29.9474 26.8207C30.1793 26.8953 30.425 26.9166 30.6662 26.883C30.9074 26.8494 31.1379 26.7617 31.3406 26.6266C31.3797 26.5962 31.4109 26.5567 31.4315 26.5115C31.4522 26.4664 31.4615 26.417 31.4589 26.3674C31.3228 25.9188 31.1583 25.4809 31.0032 25.0418L31.0044 25.0441ZM30.3534 24.6973C30.6979 24.6973 30.9156 24.4606 30.9109 24.0925C30.9109 23.7434 30.6884 23.5007 30.3854 23.5007C30.304 23.4967 30.2226 23.5089 30.146 23.5366C30.0693 23.5643 29.9989 23.6068 29.9388 23.6619C29.8788 23.7169 29.8302 23.7833 29.7959 23.8572C29.7616 23.9311 29.7423 24.0111 29.7391 24.0925C29.7378 24.1729 29.7528 24.2526 29.7833 24.327C29.8138 24.4013 29.8591 24.4686 29.9165 24.5249C29.9738 24.5812 30.0421 24.6251 30.117 24.6542C30.1919 24.6832 30.2719 24.6967 30.3522 24.6938L30.3534 24.6973ZM21.674 27.3688L21.6184 27.3048C20.3969 28.5737 19.1758 29.8429 17.9551 31.1125C17.9916 31.1261 18.0314 31.1286 18.0694 31.1195C18.1073 31.1105 18.1417 31.0903 18.1681 31.0616C18.8783 30.3515 19.5814 29.6354 20.2821 28.9157C20.4821 28.7098 20.6632 28.4896 20.9413 28.8317L21.674 27.3688ZM19.2938 24.2594C19.7388 24.5766 20.288 24.4204 20.6241 24.7601L20.5898 24.8784L19.6642 24.7719C19.8567 24.9188 20.0651 25.0435 20.2856 25.1436C20.5709 25.301 20.7283 25.1708 20.7993 24.9139C20.9402 24.4254 20.908 23.9032 20.7082 23.4356L20.2442 23.5457C20.3626 23.6463 20.4916 23.7552 20.6206 23.8641C20.4632 23.9564 20.3164 24.0866 20.1471 24.1328C19.8651 24.1914 19.5797 24.2325 19.2926 24.2559L19.2938 24.2594ZM23.0813 32.5317C23.8069 32.9862 24.5892 32.9365 25.2118 32.4062C25.0485 32.0606 24.8816 31.7067 24.7135 31.3528L24.5952 31.4084C24.72 31.6543 24.8276 31.9086 24.9171 32.1695C24.9467 32.2736 24.8402 32.4169 24.7987 32.5423C24.6934 32.4843 24.5525 32.4512 24.4898 32.3636C24.362 32.1557 24.2493 31.9389 24.1525 31.715C24.1063 32.018 24.1087 32.2038 24.0424 32.3589C23.9915 32.4772 23.8542 32.566 23.7548 32.6678C23.6838 32.5423 23.5583 32.4192 23.5548 32.2926C23.5666 32.0454 23.5982 31.7996 23.6494 31.5576L23.5879 31.541C23.4115 31.8606 23.2482 32.1837 23.0754 32.5281L23.0813 32.5317ZM17.9918 16.2677L17.9433 16.3257L18.8819 17.2122C19.018 17.3424 19.2156 17.4986 19.0002 17.6691C18.9221 17.7306 18.6593 17.643 18.5386 17.5507C18.251 17.327 18.0036 17.0524 17.7278 16.8133C17.6616 16.7553 17.5467 16.7553 17.4532 16.7293L17.4189 16.8322L19.3411 18.5213C19.321 18.0668 19.308 17.7164 19.2867 17.3672C19.2852 17.3035 19.2598 17.2427 19.2156 17.1968C18.8026 16.8749 18.3918 16.5718 17.9835 16.2641L17.9918 16.2677ZM23.4814 18.5816C23.559 18.5864 23.6368 18.5745 23.7095 18.5467C23.7822 18.519 23.8481 18.4761 23.9029 18.4209C23.9576 18.3657 24 18.2994 24.0271 18.2265C24.0543 18.1536 24.0655 18.0757 24.0602 17.9981C24.0531 17.7353 23.9714 17.4986 23.6696 17.4714C23.5845 17.4634 23.4987 17.4731 23.4176 17.4998C23.3365 17.5266 23.2618 17.5698 23.1982 17.6269C23.1346 17.6839 23.0835 17.7535 23.0481 17.8312C23.0127 17.909 22.9938 17.9932 22.9925 18.0786C22.9911 18.143 23.0025 18.207 23.0259 18.267C23.0493 18.327 23.0843 18.3818 23.129 18.4282C23.1736 18.4746 23.227 18.5118 23.2861 18.5375C23.3451 18.5632 23.4087 18.577 23.4731 18.5781L23.4814 18.5816ZM24.7609 30.3822C24.7584 30.2493 24.7085 30.1216 24.6202 30.0221C24.5318 29.9227 24.4109 29.8582 24.2791 29.8401C24.0069 29.7869 23.7181 30.1053 23.724 30.413C23.7299 30.7207 23.8684 30.9338 24.2081 30.9409C24.2813 30.9414 24.3538 30.9271 24.4213 30.8988C24.4887 30.8705 24.5498 30.8288 24.6006 30.7763C24.6515 30.7237 24.6913 30.6614 24.7174 30.5931C24.7435 30.5247 24.7555 30.4518 24.7526 30.3787L24.7609 30.3822ZM24.0104 28.1192C24.1501 28.015 24.3052 27.8162 24.4093 27.8398C24.7017 27.9061 24.6105 28.1547 24.5632 28.3725C24.5159 28.5902 24.4969 28.8021 24.465 29.0163H24.5028C24.6764 28.6281 24.8504 28.2407 25.0248 27.854C24.3229 27.499 23.5228 27.57 23.0458 28.0221L23.5192 28.866C23.5246 28.6066 23.5167 28.347 23.4956 28.0884C23.4956 27.9913 23.5761 27.8268 23.6471 27.8114C23.7181 27.796 23.8554 27.886 23.9394 27.957C23.9939 28.0008 24.001 28.0967 24.0104 28.1192ZM22.7854 30.9433L22.1699 30.716L22.5582 30.2177C22.4765 30.1278 22.0362 30.2437 22.2563 29.7987L21.8941 29.723V31.4664L22.7854 30.9433ZM31.0707 21.2282C30.3345 21.1003 29.6811 21.0885 29.0349 21.4412L29.5663 22.226C29.5906 22.1198 29.5886 22.0092 29.5604 21.904C29.5261 21.7099 29.332 21.4602 29.6468 21.356C29.9616 21.2518 29.9486 21.5738 30.0421 21.7466C30.0528 21.7644 30.0847 21.7715 30.0587 21.7573L30.4292 21.4152L30.7334 21.962L31.0707 21.2282ZM12.2643 22.7811L12.2927 22.9113L13.4763 23.045L13.7947 21.9999L12.2643 22.7811ZM17.5988 23.1362L17.6687 23.1231C17.6296 22.8769 17.5799 22.6331 17.5562 22.3857C17.5396 22.1987 17.2946 21.9372 17.6367 21.8389C17.9788 21.7407 17.9563 22.0756 18.0332 22.2721C18.0403 22.2911 18.064 22.3017 18.0888 22.3242L18.4368 21.6673C17.9504 21.5205 17.4698 21.4921 17.0094 21.7762L17.5988 23.1362ZM26.3445 54.8416C26.2996 55.0155 26.2522 55.1694 26.2262 55.3257C26.2025 55.444 26.154 55.5932 26.1989 55.6914C26.3564 56.0465 26.554 56.3838 26.7517 56.7732H27.1908L26.3445 54.8416ZM17.9409 24.6654C18.148 24.4618 18.3386 24.3257 18.4534 24.141C18.5007 24.0629 18.4262 23.8463 18.335 23.7611C18.135 23.5658 17.9456 23.6842 17.7835 23.8558C17.7669 23.8736 17.7255 23.8712 17.7125 23.8901C17.6284 24.0168 17.4556 24.1848 17.4899 24.2665C17.555 24.4074 17.7373 24.4973 17.9433 24.6654H17.9409ZM31.0139 19.351C31.2577 19.4279 31.5145 19.4918 31.7584 19.5877C31.9809 19.6765 32.0555 19.5617 32.1016 19.3853C32.1987 19.0101 31.9501 18.8278 31.6672 18.6219L31.0139 19.351ZM20.546 30.5704L20.4277 30.4769C19.9471 30.9835 19.463 31.4865 18.9919 32.0014C18.9268 32.0724 18.9233 32.1991 18.8913 32.2997L19.0511 32.392C19.3802 31.6428 20.2986 31.3871 20.5484 30.5704H20.546ZM21.6657 18.8077L21.3106 18.7189L21.674 18.3851C21.5116 18.3426 21.3531 18.286 21.2006 18.2159C21.1804 18.2064 21.268 17.9792 21.3035 17.8608L21.0514 17.6584L21.4562 17.4678C21.0656 17.4027 20.9283 17.4536 20.8928 17.7495C20.8549 17.9756 20.8637 18.207 20.9187 18.4295C20.9737 18.652 21.0736 18.8608 21.2124 19.0432L21.6657 18.8077ZM33.0367 23.4806L32.2223 23.7268C32.3514 23.7919 32.4827 23.767 32.5857 23.8108C32.6873 23.8744 32.7777 23.9544 32.8532 24.0475C32.7744 24.1365 32.6826 24.2131 32.581 24.2748C32.4745 24.3186 32.3443 24.3008 32.13 24.3162L32.9242 24.5103L32.8994 24.6689L32.4259 24.734L33.039 24.9708L33.0367 23.4806ZM24.7372 13.0873C24.5632 12.5381 24.3999 12.022 24.2377 11.5131L24.1383 11.5356C24.1383 11.9049 24.1596 12.2765 24.1324 12.6446C24.1016 13.0565 24.2933 13.1619 24.7372 13.0873ZM28.5082 15.1219L28.4206 15.0355C28.2891 15.1809 28.1431 15.3126 27.985 15.4285C27.8667 15.4971 27.7069 15.4829 27.5648 15.5054C27.5909 15.3669 27.5802 15.2048 27.6524 15.0983C27.7907 14.922 27.9426 14.757 28.1069 14.6047L28.0087 14.5088L27.2819 15.1006L27.5861 16.1493L28.5082 15.1219ZM31.2305 18.0241L29.8338 19.2953H30.7263C30.4268 18.7118 31.3394 18.6396 31.2305 18.0241ZM29.5202 19.3723C29.4823 19.2539 29.4018 19.1178 29.4361 19.0835C29.8681 18.61 30.3155 18.1472 30.7736 17.6631C30.7452 17.6442 30.6363 17.5602 30.6268 17.5696C30.035 18.1969 29.461 18.8325 28.881 19.4634L28.9449 19.5368L29.5202 19.3723ZM29.1911 30.6249L29.2716 30.5479L27.7128 28.4944C27.7341 28.8897 27.8193 29.1951 28.1578 29.4555C28.5638 29.7656 28.8526 30.2284 29.1911 30.6249ZM32.5396 19.9724C32.6177 20.0481 32.6686 20.1014 32.6709 20.099C33.1503 19.6836 33.6261 19.2646 34.1386 18.8148L33.722 18.5319C33.2734 18.9959 33.3065 19.7972 32.5396 19.9676V19.9724ZM22.7085 29.3915L23.118 29.5217C23.0434 28.9844 22.8718 28.5855 22.4623 28.3026C22.5345 28.6411 22.6102 28.9796 22.7085 29.3915ZM19.3115 16.689L19.4299 16.5932C19.25 16.1777 18.8274 15.9753 18.5161 15.6782C18.4901 15.6546 18.3634 15.7374 18.2321 15.7966C18.6286 16.1268 18.9683 16.4073 19.3068 16.689H19.3115ZM26.2794 10.8526L26.264 10.9095C26.773 11.0657 27.2784 11.2349 27.7933 11.3687C27.8868 11.3924 28.017 11.2776 28.1957 11.1971C28.1314 11.1569 28.0637 11.1224 27.9933 11.0941L26.2794 10.8526ZM20.5188 31.6842L19.4358 32.727C19.9755 32.5719 20.4063 32.1434 20.5141 31.6818L20.5188 31.6842ZM19.5956 30.4556C18.5954 31.3031 18.412 31.5315 18.5007 31.8262L19.5956 30.4556ZM25.7504 18.7059V17.8857L25.6474 17.8608C25.6829 18.2159 25.5042 18.3721 25.1858 18.4349L25.7504 18.7059ZM27.9649 29.9502L27.8465 30.0402C28.1188 30.5278 28.6277 30.8071 29.0301 31.1859L27.9649 29.9502ZM19.4157 14.5147C19.2121 14.8248 19.3754 15.0687 19.8891 15.3208C20.0536 14.8544 19.5731 14.8166 19.4157 14.5147ZM18.38 23.1657C18.7481 22.7681 18.9481 22.11 18.8026 21.846L18.38 23.1657ZM29.8409 25.4229C29.4065 26.0715 29.326 26.3508 29.4965 26.5876L29.8409 25.4229ZM25.6083 29.8437L25.619 29.9017L26.3789 29.8543L26.296 29.4993L25.6083 29.8437ZM25.5255 30.4745C26.2984 30.6947 26.3173 30.69 26.2913 30.2923L25.5255 30.4745Z" fill="#DEB646"/>
<path d="M9.83123 20.6528C9.72115 20.0953 9.60753 19.5379 9.501 18.9792C9.46502 18.8487 9.45259 18.7128 9.46431 18.578C9.47691 18.5293 9.50117 18.4845 9.535 18.4474C9.56882 18.4103 9.61119 18.382 9.65842 18.3649C9.70717 18.3707 9.75371 18.3885 9.79381 18.4168C9.83391 18.4452 9.8663 18.483 9.88804 18.5271C9.96853 18.7342 10.0064 18.9579 10.1496 19.1698C10.1347 18.9331 10.1383 18.6957 10.1603 18.4596C10.178 18.3472 10.313 18.2536 10.397 18.1519C10.4822 18.2525 10.6266 18.346 10.6408 18.456C10.6751 18.7342 10.6527 19.0206 10.7391 19.3165C10.7529 19.1836 10.7855 19.0532 10.8361 18.9295C10.9202 18.8149 11.0188 18.7119 11.1297 18.6229C11.1924 18.765 11.3167 18.9105 11.3084 19.0478C11.2771 19.3306 11.2201 19.6099 11.1379 19.8823C10.8645 20.9357 10.9154 22.0057 10.9699 23.078C10.99 23.4805 11.0077 23.8628 11.2622 24.2297C11.4173 24.4522 11.4078 24.7966 11.4469 25.089C11.4788 25.3257 11.4741 25.5743 11.4883 25.8702C11.8706 25.7353 11.9203 25.9696 11.9381 26.2395C11.9736 26.7804 12.0162 27.3201 12.0458 27.861C12.0671 28.2161 11.7901 28.3842 11.538 28.5274C11.0788 28.7902 10.5982 29.0139 10.1319 29.2624C9.87858 29.3973 9.69275 29.3311 9.54006 29.105C9.20037 28.5984 8.84173 28.1037 8.53163 27.5793C8.48983 27.4936 8.46673 27.4 8.46387 27.3047C8.46102 27.2094 8.47846 27.1146 8.51505 27.0266C8.71595 26.6413 8.94875 26.2735 9.21102 25.927C9.2844 25.8276 9.47023 25.8086 9.60398 25.7554C9.61108 25.8962 9.67026 26.0631 9.61582 26.1708C9.45484 26.4833 9.22996 26.7626 9.07017 27.0751C9.0422 27.1411 9.02878 27.2124 9.03082 27.2841C9.03286 27.3558 9.05032 27.4262 9.08201 27.4905C9.34477 27.9155 9.64185 28.3191 9.96261 28.7842C10.4361 28.538 10.945 28.3108 11.4078 28.0173C11.5262 27.9439 11.512 27.6622 11.5498 27.513C11.2326 27.2278 10.539 27.9569 10.552 27.0514C10.5449 27.1272 10.5627 27.2171 10.526 27.2739C10.4409 27.3887 10.3484 27.4979 10.249 27.6006C10.1792 27.4823 10.049 27.3722 10.0502 27.2586C10.0585 26.2407 10.0857 25.2227 10.1212 24.206C10.1212 24.0794 10.1709 23.9007 10.2609 23.8403C10.558 23.6414 10.4751 23.3858 10.4514 23.1692L7.80607 23.9764C7.74097 23.9965 7.66641 24.0356 7.60959 24.019C7.44862 23.9717 7.29475 23.9007 7.13615 23.8379C7.26398 23.7349 7.37287 23.587 7.52201 23.5385C7.8333 23.4367 8.15997 23.3858 8.48073 23.3136L8.46179 23.2011C8.04753 23.2284 7.63327 23.2745 7.219 23.271C7.07815 23.271 6.83314 23.1621 6.81657 23.0709C6.76804 22.8094 7.00003 22.7987 7.19888 22.7892C7.77175 22.7632 8.34461 22.7312 8.91748 22.7005L8.9234 22.5762C8.54465 22.5454 8.16589 22.5087 7.78595 22.4874C7.62498 22.4791 7.45454 22.5359 7.30067 22.5028C7.18231 22.478 7.08052 22.3596 6.97162 22.2827C7.05503 22.1933 7.15212 22.1178 7.25924 22.059C7.44915 22.0104 7.64273 21.9775 7.83803 21.9607C7.48295 21.7027 7.20006 21.4778 6.89114 21.2801C6.83906 21.247 6.68401 21.3038 6.62364 21.3654C6.10404 21.8814 5.5868 22.401 5.09205 22.9419C5.05859 23.0033 5.04106 23.0721 5.04106 23.142C5.04106 23.2119 5.05859 23.2806 5.09205 23.342C5.48501 23.877 5.92058 24.3848 6.31591 24.915C6.47096 25.121 6.61181 25.0902 6.80118 24.9896C7.31605 24.7173 7.82975 24.4392 8.36119 24.2001C8.4902 24.1421 8.68431 24.2285 8.84883 24.2486C8.75888 24.3753 8.69733 24.554 8.57423 24.6203C7.95639 24.9588 7.32908 25.2855 6.68638 25.5672C6.59794 25.5937 6.50435 25.5982 6.41378 25.5803C6.3232 25.5623 6.2384 25.5225 6.16677 25.4642C5.59469 24.788 5.04116 24.0869 4.50616 23.3609C4.46537 23.2779 4.44595 23.1861 4.44967 23.0937C4.45339 23.0013 4.48013 22.9113 4.52747 22.8319C5.17609 22.1217 5.8543 21.434 6.53961 20.7594C6.61773 20.6836 6.82367 20.686 6.94914 20.7238C7.10006 20.785 7.23878 20.8728 7.35867 20.9831C8.12683 21.5962 8.89026 22.2128 9.88094 22.4495C10.068 22.4945 10.2301 22.6389 10.4254 22.749V21.0553L10.3141 21.1286L9.82295 20.6445L9.83123 20.6528Z" fill="#DEB646"/>
<path d="M9.82448 20.6446C9.50846 20.9842 9.35103 20.9558 9.16876 20.5262C8.94624 19.9876 8.72964 19.4456 8.49647 18.9117C8.36864 18.6206 8.4077 18.4063 8.66691 18.2016C9.10484 17.8583 9.51438 17.4819 9.94758 17.1363C10.3808 16.7907 10.7512 16.7954 11.1016 17.1908C11.5118 17.6762 11.8973 18.1818 12.2568 18.7058C12.2836 18.758 12.2996 18.8152 12.3039 18.8737C12.3081 18.9323 12.3006 18.9911 12.2817 19.0467C12.0994 19.5852 11.9124 20.1238 11.6899 20.6469C11.6378 20.7653 11.4531 20.8375 11.3229 20.9298C11.2922 20.7819 11.2046 20.6161 11.2436 20.4883C11.3703 20.061 11.5502 19.6491 11.6899 19.2254C11.7348 19.0917 11.7834 18.8964 11.7206 18.8017C11.4327 18.3602 11.1126 17.9404 10.7631 17.5459C10.679 17.4535 10.3547 17.4559 10.2328 17.5459C9.82195 17.8569 9.42691 18.1883 9.04922 18.5389C8.9995 18.5839 8.94624 18.6928 8.96636 18.7413C9.24569 19.3828 9.53687 20.0184 9.82685 20.6564L9.82448 20.6446Z" fill="#DEB646"/>
<path d="M23.4113 6.54782C23.4113 6.06135 23.3924 5.57252 23.422 5.08724C23.4315 4.93456 23.5569 4.67535 23.6587 4.66233C23.9463 4.62445 23.8895 4.88958 23.8954 5.0683C23.8954 5.69088 23.8954 6.31346 23.9641 6.9467C24.0327 6.48154 24.0825 6.01282 24.1783 5.55477C24.2091 5.40682 24.3724 5.16299 24.4553 5.17128C24.7252 5.19613 24.692 5.41747 24.6565 5.64472C24.5642 6.15841 24.5015 6.67802 24.4257 7.19525L24.537 7.2426C24.834 6.80229 25.137 6.36673 25.4187 5.91696C25.4507 5.86488 25.3927 5.70746 25.33 5.65064C24.6908 5.06476 24.041 4.48952 23.3545 3.87523C22.8882 4.40075 22.4609 4.94048 21.9709 5.41392C21.6158 5.769 21.5566 6.05662 21.817 6.49574C22.1048 7.01846 22.3575 7.55978 22.5733 8.1161C22.6195 8.22618 22.5331 8.39189 22.5071 8.53155C22.3887 8.45817 22.2076 8.41319 22.152 8.30785C21.7851 7.58229 21.4312 6.84845 21.1069 6.10278C21.0797 6.02082 21.0716 5.93373 21.0833 5.84817C21.095 5.76262 21.1262 5.68088 21.1743 5.60922C21.7839 4.88248 22.4289 4.18888 23.0492 3.4657C23.2456 3.23726 23.3865 3.22897 23.6114 3.44202C24.305 4.09064 25.0108 4.72545 25.7289 5.34645C26.0366 5.61277 26.1348 5.84475 25.8389 6.19274C25.5951 6.48035 25.4306 6.83544 25.1927 7.12897C24.7275 7.69947 24.518 8.38242 24.2789 9.05708C24.176 9.35061 24.0422 9.7199 23.6741 9.66072C23.306 9.60153 23.1687 9.24527 23.1261 8.85941C23.0077 7.76931 22.8491 6.68275 22.7237 5.59264C22.7083 5.46481 22.7746 5.23046 22.8503 5.20797C23.0989 5.13459 23.1569 5.32633 23.1829 5.54175C23.2232 5.87553 23.28 6.20812 23.3297 6.54072L23.4113 6.54782Z" fill="#DEB646"/>
<path d="M20.8378 9.36614C20.6505 9.22265 20.4734 9.06643 20.3075 8.89862C20.2389 8.82287 20.2543 8.67255 20.2318 8.55537C20.3502 8.54472 20.5135 8.47844 20.5869 8.5317C21.0311 8.84102 21.4612 9.16888 21.877 9.51528C21.9136 9.56369 21.9371 9.62065 21.9454 9.68074C21.9537 9.74082 21.9464 9.80203 21.9244 9.85853C21.8451 9.96979 21.6687 10.0952 21.5563 10.0834C20.8366 9.96505 20.1205 9.8242 19.4104 9.66323C19.3074 9.63956 19.2376 9.47385 19.1523 9.37325C19.2707 9.30933 19.3891 9.17795 19.492 9.19097C19.93 9.24778 20.362 9.34839 20.794 9.42769L20.8378 9.36614Z" fill="#DEB646"/>
<path d="M20.548 10.6386C20.1929 10.6209 19.8449 10.6197 19.497 10.5747C19.3786 10.5605 19.2815 10.435 19.1738 10.3593C19.2733 10.2764 19.3715 10.1226 19.4709 10.1226C20.2 10.1226 20.9287 10.1411 21.657 10.1782C21.7576 10.1841 21.8512 10.3427 21.9482 10.4315C21.8452 10.5096 21.7482 10.6469 21.6405 10.6552C21.2783 10.6836 20.9114 10.6658 20.5468 10.6658L20.548 10.6386Z" fill="#DEB646"/>
<path d="M40.5974 26.8411C40.3891 26.7748 40.2163 26.737 40.0576 26.6671C39.3017 26.3334 38.5485 25.9941 37.7981 25.6492C37.6372 25.5747 37.372 25.5072 37.5247 25.2646C37.5815 25.1758 37.8691 25.1533 38.0076 25.2089C38.7841 25.5261 39.5463 25.8706 40.3157 26.2162C40.5252 26.3121 40.6956 26.3144 40.8589 26.131C41.3099 25.6256 41.768 25.1261 42.2189 24.6219C42.4332 24.3851 42.3799 24.1993 42.1006 24.03C41.5679 23.7069 41.0353 23.3743 40.5228 23.0263C40.3902 22.9316 40.2335 22.8762 40.0708 22.8665C39.9081 22.8569 39.746 22.8934 39.6031 22.9719C39.0741 23.2157 38.5485 23.4678 38.0076 23.6821C37.8656 23.7377 37.5827 23.727 37.5223 23.6395C37.3602 23.4027 37.617 23.3246 37.7816 23.25C38.3355 22.9968 38.8953 22.7541 39.4516 22.5056C39.6647 22.3993 39.9028 22.3535 40.1401 22.3731C40.3773 22.3927 40.6047 22.477 40.7974 22.6168C41.362 22.9932 41.9455 23.3388 42.5054 23.7188C42.9942 24.0502 43.0652 24.391 42.6888 24.842C42.168 25.4646 41.6034 26.0528 41.0389 26.6364C40.9359 26.7524 40.7394 26.7808 40.5974 26.8411Z" fill="#DEB646"/>
<path d="M26.3111 33.7261C26.7372 33.732 26.9739 34.0516 26.8555 34.467C26.8177 34.5972 26.7573 34.7203 26.7194 34.8493C26.6437 35.1073 26.5336 35.3677 26.8579 35.5595C26.9254 35.5985 26.9277 35.737 26.9881 35.8045C27.1854 36.0303 27.3948 36.2453 27.6154 36.4484C27.7482 36.543 27.8911 36.6224 28.0415 36.6851C29.2086 37.3029 28.9434 38.412 28.4416 39.1446C28.3527 39.293 28.2163 39.407 28.0546 39.4682C27.8928 39.5294 27.7152 39.5343 27.5503 39.482C26.8217 39.2758 26.1043 39.032 25.4009 38.7517C24.7546 38.4818 24.6588 37.9113 25.0955 37.355C25.1192 37.3243 25.163 37.2899 25.1606 37.2603C25.1168 36.7159 25.1914 36.1193 24.9902 35.6388C24.6446 34.8079 25.0458 33.732 26.3111 33.7261ZM26.3845 34.3025C25.6577 34.1924 25.2162 34.6351 25.4246 35.2091C25.6175 35.7406 25.7524 36.2472 25.627 36.8224C25.5986 36.9514 25.8341 37.2414 25.9974 37.2887C26.2697 37.3669 26.446 37.1396 26.4709 36.8686C26.485 36.7079 26.4627 36.546 26.4058 36.3951C26.1477 35.7098 25.9489 35.0316 26.3845 34.3025Z" fill="#DEB646"/>
<path d="M24.3766 37.1145C24.3766 37.9138 24.3766 38.7132 24.3766 39.5125C24.3766 39.6995 24.4074 39.9469 24.1245 39.9054C24.0286 39.8901 23.8996 39.6616 23.8973 39.5279C23.8677 37.917 23.857 36.3049 23.8464 34.6928C23.8464 34.494 23.8191 34.2265 24.115 34.2632C24.2156 34.2762 24.3518 34.5295 24.3577 34.6774C24.3814 35.4894 24.3695 36.3025 24.3695 37.1145H24.3766Z" fill="#DEB646"/>
<path d="M24.5325 53.7835C24.5089 54.0392 24.5006 54.2972 24.4568 54.5493C24.4012 54.8665 24.2319 55.108 23.8816 55.1411C23.5312 55.1743 23.2057 55.0748 23.0791 54.7245C22.9773 54.4416 22.885 54.1067 22.9406 53.825C23.0897 53.058 23.3111 52.304 23.5324 51.5512C23.559 51.4959 23.5993 51.4481 23.6494 51.4125C23.6995 51.3769 23.7578 51.3546 23.8188 51.3477C23.8772 51.3668 23.9302 51.3997 23.9733 51.4435C24.0163 51.4874 24.0482 51.541 24.0662 51.5998C24.2508 52.3182 24.4118 53.0426 24.5811 53.7646L24.5325 53.7835ZM23.8555 52.5135H23.7277C23.5632 53.1053 23.3134 53.6888 23.4626 54.328C23.4862 54.431 23.6164 54.5091 23.6993 54.599C23.7987 54.5108 23.8928 54.4168 23.981 54.3173C24.017 54.259 24.0316 54.19 24.0224 54.122C23.9703 53.5835 23.9123 53.0485 23.8555 52.5135Z" fill="#DEB646"/>
<path d="M23.8434 50.5144C23.5451 50.5144 23.2457 50.5322 22.951 50.505C22.8468 50.4943 22.7545 50.3736 22.6562 50.3038C22.7521 50.2126 22.8421 50.0493 22.9439 50.041C23.5511 49.9889 24.1606 49.9617 24.7702 49.9546C24.8791 49.9546 24.9891 50.0872 25.0992 50.1594C24.9915 50.2529 24.8945 50.4067 24.7761 50.4269C24.4666 50.464 24.1552 50.4834 23.8434 50.4848V50.5144Z" fill="#DEB646"/>
</svg>
