<svg width="177" height="178" viewBox="0 0 177 178" fill="none" xmlns="http://www.w3.org/2000/svg">
<path d="M140.118 140.827C140.119 141.03 140.067 141.23 139.967 141.408C139.867 141.585 139.723 141.733 139.549 141.838L128.762 148.437C128.58 148.549 128.372 148.609 128.159 148.613C127.946 148.617 127.735 148.564 127.549 148.46C127.365 148.357 127.212 148.207 127.105 148.025C126.998 147.843 126.942 147.636 126.941 147.425V134.229C126.942 134.018 126.998 133.811 127.105 133.629C127.212 133.447 127.365 133.297 127.549 133.194C127.735 133.09 127.946 133.037 128.159 133.04C128.372 133.044 128.58 133.105 128.762 133.217L139.549 139.815C139.723 139.921 139.867 140.069 139.967 140.246C140.067 140.424 140.119 140.624 140.118 140.827Z" fill="black"/>
<path d="M153.294 140.827C153.294 141.03 153.242 141.23 153.143 141.408C153.043 141.585 152.899 141.733 152.725 141.838L141.938 148.437C141.756 148.549 141.548 148.609 141.335 148.613C141.121 148.617 140.911 148.564 140.725 148.46C140.541 148.357 140.388 148.207 140.281 148.025C140.174 147.843 140.117 147.636 140.117 147.425V134.229C140.117 134.018 140.174 133.811 140.281 133.629C140.388 133.447 140.541 133.297 140.725 133.194C140.911 133.09 141.121 133.037 141.335 133.04C141.548 133.044 141.756 133.105 141.938 133.217L152.725 139.815C152.899 139.921 153.043 140.069 153.143 140.246C153.242 140.424 153.294 140.624 153.294 140.827Z" fill="black"/>
<path d="M39.1201 140.827C39.1196 141.03 39.1718 141.23 39.2715 141.408C39.3712 141.585 39.5151 141.733 39.6891 141.838L50.4761 148.437C50.658 148.549 50.8662 148.609 51.0795 148.613C51.2927 148.617 51.5031 148.564 51.6889 148.46C51.873 148.357 52.0264 148.207 52.1332 148.025C52.2401 147.843 52.2966 147.636 52.2969 147.425V134.229C52.2966 134.018 52.2401 133.811 52.1332 133.629C52.0264 133.447 51.873 133.297 51.6889 133.194C51.5031 133.09 51.2927 133.037 51.0795 133.04C50.8662 133.044 50.658 133.105 50.4761 133.217L39.6891 139.815C39.5151 139.921 39.3712 140.069 39.2715 140.246C39.1718 140.424 39.1196 140.624 39.1201 140.827Z" fill="black"/>
<path d="M25.9424 140.827C25.9419 141.03 25.994 141.23 26.0937 141.408C26.1934 141.585 26.3373 141.733 26.5114 141.838L37.2984 148.437C37.4802 148.549 37.6885 148.609 37.9017 148.613C38.1149 148.617 38.3253 148.564 38.5112 148.46C38.6953 148.357 38.8487 148.207 38.9555 148.025C39.0624 147.843 39.1188 147.636 39.1191 147.425V134.229C39.1188 134.018 39.0624 133.811 38.9555 133.629C38.8487 133.447 38.6953 133.297 38.5112 133.194C38.3253 133.09 38.1149 133.037 37.9017 133.04C37.6885 133.044 37.4802 133.105 37.2984 133.217L26.5114 139.815C26.3373 139.921 26.1934 140.069 26.0937 140.246C25.994 140.424 25.9419 140.624 25.9424 140.827Z" fill="black"/>
<rect x="79.9609" y="128.371" width="7.91895" height="25.5894" rx="2" fill="#D9D9D9"/>
<rect x="91.3555" y="128.371" width="7.91895" height="25.5894" rx="2" fill="#D9D9D9"/>
<path d="M6.7302 177.2C6.57032 177.2 6.41469 177.148 6.28616 177.053C6.27897 177.048 6.27241 177.043 6.26553 177.037L3.40753 174.697H1.23044C1.03153 174.697 0.840775 174.618 0.700129 174.477C0.559483 174.336 0.480469 174.146 0.480469 173.947V170.452C0.480469 170.253 0.559483 170.063 0.700129 169.922C0.840775 169.781 1.03153 169.702 1.23044 169.702H3.40691L6.26491 167.362C6.27178 167.356 6.27835 167.351 6.28553 167.346C6.39726 167.263 6.52963 167.214 6.6679 167.202C6.80617 167.191 6.94493 167.218 7.06874 167.28C7.19256 167.343 7.29656 167.439 7.3692 167.557C7.44183 167.675 7.48025 167.811 7.48017 167.95V176.45C7.48017 176.649 7.40115 176.839 7.26051 176.98C7.11986 177.121 6.92911 177.2 6.7302 177.2Z" fill="black"/>
<path d="M169.011 168.347L167.157 170.2H165.031C164.755 170.2 164.531 170.423 164.531 170.7V173.699C164.531 173.976 164.755 174.199 165.031 174.199H167.157L169.011 176.053C169.324 176.366 169.864 176.146 169.864 175.699V168.7C169.864 168.253 169.324 168.034 169.011 168.347ZM173.871 167.283C173.639 167.13 173.326 167.194 173.173 167.427C173.02 167.66 173.085 167.973 173.318 168.125C174.699 169.031 175.523 170.554 175.523 172.2C175.523 173.845 174.699 175.368 173.318 176.274C173.085 176.427 173.02 176.74 173.173 176.972C173.32 177.195 173.63 177.275 173.871 177.117C175.536 176.024 176.531 174.186 176.531 172.2C176.531 170.214 175.536 168.375 173.871 167.283ZM174.531 172.2C174.531 170.876 173.863 169.659 172.744 168.945C172.511 168.796 172.202 168.865 172.054 169.1C171.906 169.335 171.975 169.646 172.208 169.795C173.036 170.324 173.531 171.223 173.531 172.2C173.531 173.176 173.036 174.075 172.208 174.604C171.975 174.753 171.906 175.064 172.054 175.299C172.19 175.515 172.494 175.614 172.744 175.454C173.863 174.74 174.531 173.523 174.531 172.2ZM171.577 170.598C171.336 170.466 171.032 170.553 170.898 170.795C170.765 171.037 170.853 171.341 171.095 171.474C171.364 171.622 171.531 171.9 171.531 172.2C171.531 172.499 171.364 172.777 171.095 172.925C170.853 173.058 170.765 173.362 170.898 173.604C171.032 173.847 171.337 173.933 171.578 173.801C172.166 173.477 172.531 172.863 172.531 172.199C172.531 171.535 172.166 170.922 171.577 170.598Z" fill="black"/>
<rect x="15.2578" y="169.318" width="142.987" height="7.01361" rx="3.50681" fill="#D9D9D9"/>
<path d="M117.238 169.318H154.74C156.677 169.318 158.247 170.888 158.247 172.825C158.247 174.762 156.677 176.332 154.74 176.332H117.238V169.318Z" fill="black"/>
<path d="M82.0911 60.0742C80.2092 59.4244 79.5679 57.551 78.1192 56.3062V58.1355C78.1192 59.8176 77.6419 60.2907 75.9829 60.3139C75.2155 60.3244 74.4459 60.419 73.67 60.4337C72.6608 60.4526 72.215 60.0132 72.1982 58.9892C72.1814 57.9652 72.1856 57.0106 72.1982 56.0224C72.1982 54.7166 72.6713 54.2562 73.998 54.233C74.6898 54.2225 75.3816 54.233 76.0733 54.233L76.189 54.0417L71.7629 49.8785L70.0072 50.9866C70.5602 51.6867 70.2848 52.1262 69.6603 52.593C68.0392 53.8062 66.4538 55.0678 64.8831 56.3462C64.3343 56.7919 63.9453 56.8151 63.4113 56.302C61.4867 54.4797 59.534 52.6848 57.5533 50.9172C57.0529 50.4672 56.9877 50.1161 57.5239 49.7061C57.812 49.4853 58.1189 49.2855 58.5184 49.008L56.4242 47.0378C56.3474 47.0527 56.2721 47.0745 56.1992 47.103C54.6643 48.0576 54.9124 48.0933 53.5562 46.6825C51.8552 44.9057 50.1752 43.108 48.4552 41.3523C47.9653 40.8498 47.9064 40.4292 48.4069 39.9435C50.6231 37.7988 52.8399 35.6549 55.0575 33.5116C55.3624 33.2172 55.6462 33.2614 55.9217 33.581C56.1971 33.9006 56.5399 34.2496 56.9057 34.6323L59.0588 32.6537C58.6551 32.2458 58.2998 31.8631 57.9192 31.5078C57.5386 31.1524 57.5723 30.8517 57.9192 30.5237L64.3427 24.4723C64.6644 24.1696 64.9735 24.1906 65.3058 24.4618C67.7042 26.4106 69.8544 28.6463 71.7083 31.1188C71.8386 31.2912 71.7672 31.6802 71.6809 31.9304C71.6074 32.1407 71.374 32.2899 71.2184 32.4603C71.2289 32.5233 71.2184 32.5864 71.2457 32.6116C71.6452 32.988 71.99 33.5221 72.4652 33.6924C73.1528 33.9363 73.239 33.0616 73.6049 32.7294C74.3219 32.0587 74.9169 31.2575 75.7075 30.3387C74.9526 30.3387 74.3744 30.3387 73.7962 30.3387C72.8164 30.3387 72.3622 29.9182 72.3496 28.9425C72.3349 27.7861 72.3769 26.6296 72.4021 25.4711C72.4148 24.9097 72.686 24.63 73.2747 24.6847C74.2125 24.7583 75.1524 24.7961 76.0902 24.8676C76.885 24.9307 77.2487 25.3134 77.2739 26.1292C77.295 26.8483 77.2739 27.5674 77.2739 28.4821L81.0587 24.1885C80.3879 24.2179 79.8959 24.302 79.4249 24.2411C79.0656 24.2048 78.7302 24.0442 78.4767 23.7869C76.7945 21.6843 75.1629 19.5227 73.4871 17.4054C73.0981 16.9155 73.0792 16.5496 73.5208 16.0954C75.1145 14.4554 76.6621 12.7712 78.279 11.1564C79.099 10.3384 79.1495 10.391 80.0326 11.1269C80.1209 11.2005 80.2218 11.2636 80.3543 11.3603L82.4801 9.09577C82.4212 8.98644 82.4044 8.90864 82.356 8.86659C81.2185 7.88045 81.3425 7.93302 82.3749 6.89642C84.2673 5.00405 86.1471 3.09907 88.0394 1.2067C88.7627 0.481289 88.9099 0.453955 89.6164 1.2067C91.5929 3.2862 93.5357 5.39724 95.4891 7.49567C95.8423 7.87415 95.8297 8.27365 95.5185 8.67104C95.3713 8.85818 95.2136 9.04111 95.016 9.27871L96.9084 11.5327C96.9959 11.5209 97.0819 11.4997 97.1649 11.4697C98.3402 10.6749 98.3655 10.6538 99.3138 11.7766C100.744 13.4693 102.146 15.1871 103.54 16.9113C104.202 17.7313 104.223 18.1939 103.54 19.0244C102.912 19.7784 102.243 20.4966 101.534 21.1754C100.676 22.0165 99.749 22.7965 98.9016 23.6523C98.7009 23.8757 98.4455 24.0432 98.1606 24.1382C97.8757 24.2333 97.571 24.2528 97.2763 24.1948C97.0177 24.1527 96.7507 24.1654 96.2755 24.1443L99.831 28.3496L100.031 28.3054C100.031 27.5289 100.031 26.753 100.031 25.9778C100.031 25.6877 100.006 25.3975 100.031 25.1094C100.096 23.9383 100.575 23.4484 101.744 23.4126C102.726 23.386 103.714 23.386 104.709 23.4126C105.922 23.4463 106.362 23.9193 106.339 25.1221C106.32 26.1566 106.328 27.1932 106.25 28.2213C106.173 29.2495 105.79 29.5565 104.779 29.6091L101.332 29.7878C102.173 31.4384 104.16 32.1301 104.629 34.1171C104.757 33.8744 104.897 33.6385 105.05 33.4106C105.437 32.8745 105.756 32.2437 106.257 31.84C107.754 30.6289 109.335 29.5271 110.864 28.3454C112.026 27.4518 112.647 27.3172 113.748 28.3076C115.462 29.8509 117.037 31.5498 118.66 33.192C119.028 33.5641 118.952 33.9195 118.517 34.2139C118.307 34.361 118.109 34.5461 117.83 34.7795C118.435 35.488 119.011 36.1861 119.623 36.8463C119.708 36.8904 119.803 36.9134 119.899 36.9134C119.994 36.9134 120.089 36.8904 120.174 36.8463C121.143 36.2156 121.646 36.2955 122.365 37.2353C123.736 39.0072 125.105 40.7825 126.471 42.5613C126.692 42.8473 126.928 43.1248 127.148 43.4024C127.952 44.4411 127.889 45.0971 126.905 46.0391C125.267 47.6055 123.559 49.1089 122.029 50.7742C121.314 51.5522 120.748 51.4491 119.97 51.1106C118.753 50.5808 118.744 50.5997 117.834 51.6573C118.498 52.6329 118.454 53.0598 117.594 53.9702C116.122 55.529 114.65 57.0884 113.179 58.6486C112.148 59.7419 111.478 59.7546 110.483 58.6486C109.432 57.4879 108.418 56.2894 107.352 55.1414C106.398 54.109 105.952 52.8705 105.775 51.3924L102.068 54.0606C102.68 54.1552 103.12 54.2057 103.54 54.294C104.417 54.4706 104.785 54.8365 104.766 55.7196C104.729 56.7286 104.64 57.735 104.499 58.7348C104.423 59.3214 104.007 59.6683 103.431 59.5758C102.387 59.4205 101.355 59.1993 100.34 58.9135C99.6649 58.7159 99.5093 58.0893 99.585 57.4417C99.646 56.9202 99.7469 56.403 99.8605 55.6965C99.2612 56.117 98.7965 56.4198 98.3424 56.7478C96.7843 57.8643 96.5782 57.858 95.1884 56.6342C94.5198 57.3155 94.5156 57.675 95.1884 58.4005C95.3619 58.5671 95.549 58.7191 95.7477 58.8546C96.6434 59.5233 96.7885 60.0952 96.307 61.0981C95.5942 62.5847 95.6762 62.8812 97.106 63.7538C99.1792 65.0259 99.6502 66.1697 98.7881 68.4721C98.4297 69.4121 97.8855 70.2703 97.188 70.9952C96.3154 71.8973 95.1821 71.8489 94.0593 71.237C93.6745 71.0268 93.1972 70.9826 92.762 70.8628C92.7956 71.3106 92.7914 71.7648 92.8692 72.2043C93.1425 73.7392 93.4621 75.2636 93.7229 76.8006C93.7829 77.1099 93.7307 77.4305 93.5757 77.7047C93.2224 78.2052 93.3927 78.7434 93.3023 79.2586C93.0542 80.6632 93.643 82.1077 93.0689 83.4912C93.0332 83.5774 93.1026 83.7183 93.1446 83.8255C93.5525 84.9021 93.5652 85.1775 93.193 86.3024C94.5576 87.2108 94.5534 88.5312 94.2569 89.9568C93.9962 91.2016 93.6388 92.4526 93.5988 93.71C93.5441 95.4657 94.1833 97.11 94.8982 98.7017C95.0311 98.9242 95.1491 99.1553 95.2515 99.3934C95.5206 100.325 95.9453 100.981 97.0955 100.729C97.2385 100.697 97.6064 101.031 97.6296 101.225C97.7056 101.895 97.7175 102.571 97.6653 103.243C97.6527 103.407 97.3078 103.681 97.1186 103.679C91.3322 103.609 85.5541 103.508 79.7593 103.433C79.2567 103.433 79.0507 103.254 79.0486 102.77C79.0465 102.287 79.0381 101.805 79.0086 101.324C78.9792 100.842 79.2021 100.644 79.7046 100.693C80.2723 100.733 80.8484 100.693 81.4834 100.693C81.1596 99.7004 81.5717 98.9603 82.1247 98.3043C82.6209 97.7176 82.7114 97.1015 82.6357 96.3593C82.5622 95.7965 82.6384 95.2243 82.8564 94.7003C83.3296 93.7708 83.442 92.699 83.1718 91.6915C82.9616 90.903 82.7513 90.0788 82.7913 89.2861C82.8291 88.6426 83.1887 87.9845 83.5293 87.4042C83.7017 87.1077 83.8615 86.9164 83.6849 86.5863C83.6228 86.4547 83.5898 86.3112 83.5882 86.1657C83.5482 85.0955 83.502 84.0358 83.3632 82.9634C83.2496 82.0972 83.1929 80.9891 83.4284 80.188C83.8489 78.7266 83.0078 77.5008 83.1592 76.1467C83.1836 75.6408 83.166 75.1337 83.1067 74.6307C83.0583 73.7896 83.1782 73.0579 83.7774 72.3704C84.1209 71.9142 84.3168 71.364 84.3388 70.7934C84.3956 69.9523 83.7627 69.5718 82.9805 69.9187C82.6405 70.0988 82.3132 70.3019 82.0007 70.5264C80.6634 71.3569 79.282 70.8123 78.975 69.2648C78.8566 68.4794 78.815 67.6843 78.8509 66.8909C78.8509 65.9531 78.8762 65.0132 78.9687 64.0818C79.0381 63.3753 79.5238 62.9947 80.2176 62.8686C81.9628 62.5532 81.986 62.5216 82.0469 60.7659C82.0469 60.543 82.0743 60.3286 82.0911 60.0742ZM77.337 47.2039C77.2676 46.9558 77.1162 46.6972 77.1436 46.4617C77.213 45.8688 77.3728 45.2884 77.4821 44.6997C77.5054 44.5198 77.5159 44.3386 77.5136 44.1572L77.3265 44.1383C76.9796 45.0676 76.6347 45.997 76.2226 47.103L77.3538 47.1829C77.5641 47.267 77.7933 47.4499 77.9846 47.4184C78.8404 47.2775 79.6878 47.0736 80.6066 46.8759C80.3354 46.2451 80.1567 45.791 79.959 45.3557C79.7614 44.9205 79.5574 44.5273 79.3577 44.1131C79.3766 44.8174 79.589 45.4482 79.7172 46.0979C79.7635 46.3397 79.6878 46.7834 79.5385 46.8507C79.0885 47.0609 78.9981 46.6404 78.8951 46.3124L78.4914 45.0782C78.2496 45.6263 78.067 46.1986 77.9468 46.7855C77.8732 47.0694 77.8185 47.4583 77.337 47.2039ZM97.2385 50.7448L99.8941 54.4769C100.088 54.2877 100.127 54.1952 100.104 54.1594C99.1512 53.0212 98.1931 51.8872 97.2301 50.7574C97.2679 50.4588 97.3036 50.1602 97.3415 49.8617C97.6022 50.013 97.926 50.1077 98.1132 50.3242C98.9332 51.2704 99.7091 52.2545 100.512 53.2196C100.674 53.3888 100.846 53.5482 101.027 53.6969L101.191 53.5392C101.046 53.3394 100.912 53.1334 100.756 52.942C100.174 52.2334 99.5619 51.5501 99.0173 50.8141C98.8764 50.627 98.9395 50.2864 98.9101 50.0173C99.1645 50.1014 99.5051 50.1098 99.6628 50.2822C100.359 51.0496 100.998 51.8676 101.667 52.6603C101.783 52.7722 101.911 52.8722 102.047 52.9588L102.196 52.8117C101.81 52.3049 101.41 51.8066 101.042 51.2872C100.866 51.037 100.466 50.7258 100.922 50.4609C101.08 50.3684 101.528 50.5766 101.715 50.7721C102.161 51.2431 102.533 51.7877 102.935 52.3007L103.117 52.1703C102.797 51.7382 102.502 51.2882 102.232 50.8226C102.112 50.5913 102.163 50.2717 102.136 49.992L102.977 50.1056C103.225 49.4895 103.485 49.4432 103.988 50.0509C104.064 50.1434 104.141 50.2359 104.219 50.3263C104.867 51.0665 104.995 51.0581 105.645 50.2128C105.447 49.98 105.263 49.7357 105.094 49.4811C104.791 48.9701 104.478 48.8713 103.874 49.1152C101.561 50.0446 99.2927 49.7881 97.085 48.741C94.6459 47.5866 92.8313 45.6858 91.1219 43.6778C89.6227 41.9179 89.5765 42.4625 91.1534 40.6647C91.1677 40.6449 91.1831 40.6259 91.1997 40.608C93.0731 38.6105 94.7174 36.3733 97.1333 34.893C96.6834 34.5208 96.8537 34.1991 97.1733 33.8417C98.1615 32.7546 99.135 31.6507 100.117 30.5469C100.2 30.4315 100.271 30.3074 100.327 30.1768L100.172 30.0422C100.031 30.1642 99.8773 30.2756 99.7511 30.4102C98.4895 31.7327 97.228 33.0721 95.9411 34.3736C95.6867 34.6281 95.2851 34.7374 94.9529 34.914C93.1131 36.7559 91.3195 38.6988 89.5218 40.6542C88.6955 41.5478 88.6807 41.5563 87.7219 40.8645C85.2934 39.1382 82.9469 37.33 81.6012 34.5566C81.526 34.4348 81.4282 34.3284 81.3131 34.2433C79.9758 33.0616 78.6365 31.8827 77.295 30.7067C77.151 30.5918 77.0008 30.4851 76.845 30.3871L76.5485 30.7151C76.77 30.796 76.9817 30.9018 77.1793 31.0305C78.0015 31.7012 78.8089 32.3888 79.61 33.0847C79.8497 33.295 80.2744 33.5284 79.8938 33.8711C79.7572 33.9931 79.263 33.8711 79.0423 33.7134C78.1655 33.0364 77.3412 32.292 76.4876 31.5835C76.3405 31.4832 76.1842 31.3973 76.0208 31.3269L75.9051 31.493C76.0153 31.6294 76.134 31.7586 76.2605 31.8799C76.7378 32.2857 77.2466 32.66 77.6924 33.0952C77.8375 33.2382 77.8311 33.5347 77.8921 33.7597C77.6398 33.7597 77.3202 33.8438 77.1457 33.7239C76.5927 33.3413 76.0944 32.8829 75.5729 32.4518C75.4589 32.3802 75.3368 32.3223 75.2092 32.2794L75.0977 32.4434C75.6381 32.9354 76.1953 33.4106 76.7062 33.9321C76.8345 34.0604 76.8198 34.3337 76.8681 34.5398C76.6305 34.5503 76.3362 34.6533 76.1659 34.5524C75.821 34.3421 75.5582 34.0036 75.2281 33.7639C74.9504 33.5929 74.6609 33.4418 74.3618 33.3118C74.5174 33.5625 74.6579 33.8223 74.7823 34.0898C74.8378 34.28 74.8696 34.4763 74.8769 34.6743C74.6667 34.6933 74.4186 34.7858 74.2462 34.7143C74.0022 34.6176 73.8067 34.3989 73.5208 34.176C73.6911 35.1285 74.3618 35.6016 75.0998 35.4376C75.4279 35.3613 75.761 35.3079 76.0965 35.2778C78.8047 35.0486 81.1134 36.0011 83.1319 37.7316C84.5428 38.9385 85.8905 40.2169 87.3098 41.4112C87.785 41.8128 87.8691 42.187 87.5327 42.6454C86.5655 43.9617 85.6719 45.3557 84.5638 46.5479C82.7429 48.5139 80.5036 49.7797 77.7386 49.9121C75.9647 50.0218 74.2081 49.5087 72.7722 48.4613L72.2213 49.1026L73.8719 50.5745C73.9342 50.5311 73.9988 50.4911 74.0653 50.4546C74.3681 50.3305 74.8139 50.0194 74.9484 50.1203C75.3521 50.4231 74.9842 50.7321 74.7697 51.0202C74.7024 51.1064 74.7213 51.2578 74.673 51.5333C75.9346 50.3453 75.964 50.3411 76.2962 51.2263C76.4047 51.0666 76.5374 50.9247 76.6894 50.8057C76.9208 50.6995 77.1615 50.615 77.4085 50.5534C77.3833 50.8289 77.4422 51.1527 77.316 51.3671C77.052 51.7408 76.7641 52.0969 76.4539 52.4332C76.3664 52.5659 76.2917 52.7067 76.231 52.8537C76.325 52.8598 76.4192 52.844 76.506 52.8076C76.5929 52.7711 76.6701 52.7149 76.7315 52.6434C77.2761 52.0316 77.8101 51.4092 78.3547 50.7952C78.8993 50.1813 79.1117 50.2296 79.3345 50.873C79.652 50.8268 80.0494 50.6459 80.2071 50.77C80.6108 51.0833 80.2555 51.4008 80.0347 51.6804C79.9001 51.8507 79.7551 52.0127 79.6142 52.1788L78.0982 53.9765L77.9489 53.8104C79.1159 52.7591 80.3123 51.7498 81.4393 50.6565C82.5663 49.5631 83.6681 48.3856 84.753 47.2207C85.1357 46.8128 85.4953 46.4827 86.0609 46.7813C86.8641 45.6564 87.6273 44.5735 88.4053 43.5012C88.912 42.7989 89.0676 42.7905 89.6669 43.4171C91.0756 44.87 92.4781 46.3292 93.9331 47.8326C94.4756 47.2544 94.7931 47.6686 95.1295 48.1017C95.8276 48.9996 96.5362 49.868 97.2385 50.7448ZM65.4887 27.6599L61.3885 31.7096C61.0814 31.978 60.7998 32.2743 60.5475 32.5948C60.4738 32.7079 60.4249 32.8353 60.4039 32.9687C60.3829 33.102 60.3903 33.2383 60.4255 33.3686C60.8986 34.443 61.4495 35.4817 61.9352 36.5478C62.0551 36.8106 62.0362 37.1344 62.0824 37.4288C61.7922 37.3531 61.4621 37.3384 61.2182 37.187C60.6253 36.819 60.0996 36.3459 59.5025 35.9885C58.2598 35.242 57.5281 35.343 56.4453 36.3228C56.1761 36.5667 55.9028 36.8022 55.6378 37.0482L51.6428 40.7741C51.692 40.8679 51.7483 40.9579 51.811 41.0432C53.4932 42.7674 55.1963 44.4747 56.8574 46.2178C57.3557 46.7392 57.8477 46.7371 58.4112 46.4281C59.391 45.9066 60.354 45.3599 61.3444 44.8616C61.5547 44.7523 61.8595 44.8006 62.1203 44.7775C62.0656 45.055 62.0929 45.3915 61.9415 45.6017C61.3675 46.4049 60.722 47.1556 60.1333 47.9504C59.8326 48.3541 59.5025 48.8166 59.944 49.3171C61.1257 50.6501 62.3137 51.9811 63.5479 53.2658C63.733 53.4593 64.2944 53.5644 64.4962 53.4298C66.1783 52.3217 67.9824 51.3692 69.3575 49.8238C69.7654 49.3654 69.8622 48.9596 69.6035 48.4697C69.244 47.7927 68.8108 47.1556 68.4618 46.4743C68.363 46.283 68.445 45.9991 68.445 45.7573C68.6805 45.7573 68.9917 45.6669 69.1346 45.7825C69.7089 46.2527 70.2558 46.7554 70.7726 47.288C71.0401 47.5925 71.2873 47.9142 71.5127 48.251L71.8681 48.0597C71.8603 47.8389 71.8221 47.6203 71.7545 47.41C71.4265 46.7434 71.0859 46.0832 70.7032 45.4482C70.5384 45.2155 70.3227 45.0235 70.0724 44.8868C69.4984 44.5441 68.8823 44.2687 68.3335 43.8923C68.1674 43.7787 68.035 43.3456 68.1233 43.19C68.3335 42.8031 68.6321 43.0617 68.9013 43.2447C69.3218 43.5285 69.7675 43.7766 70.3163 44.1109V41.6151C70.0766 41.5836 69.8474 41.5478 69.614 41.5268C68.7982 41.4532 67.9782 41.4154 67.1687 41.2997C66.9248 41.2661 66.7103 41.0201 66.4832 40.8792C66.5882 40.679 66.7213 40.4949 66.8785 40.3325C68.2 39.2783 69.7068 38.4803 71.3214 37.9797C71.4572 37.9488 71.5835 37.8853 71.6894 37.7946C72.2781 37.1807 72.8542 36.5562 73.4703 35.9023C73.2032 35.6521 72.9068 35.3724 72.6082 35.0991C72.1603 34.689 71.7377 34.5818 71.2499 35.0843C70.4656 35.8939 69.6498 36.676 68.8193 37.4414C68.6489 37.597 68.3588 37.6243 68.1233 37.7105C68.1204 37.4395 68.1323 37.1686 68.159 36.8989C68.1737 36.7959 68.3104 36.7139 68.3693 36.6067C68.9097 35.5112 69.4942 34.4304 69.9526 33.2992C70.0096 33.0989 70.0203 32.8882 69.9839 32.6831C69.9475 32.478 69.8649 32.2839 69.7423 32.1154C68.342 30.5931 66.908 29.1381 65.4866 27.6599H65.4887ZM98.725 17.5084C97.9407 16.5475 97.2153 15.6854 96.5215 14.796C96.2439 14.4407 95.9832 14.4323 95.5921 14.5858C94.1679 15.1787 92.7353 15.7478 91.2943 16.2931C91.0841 16.3709 90.8086 16.2405 90.5626 16.2048C90.6867 15.9798 90.756 15.6266 90.9411 15.5488C92.537 14.8717 94.1539 14.2472 95.7666 13.608C96.1871 13.4398 96.553 13.4798 96.8579 13.8646C97.6232 14.8255 98.4265 15.7569 99.1708 16.7368C99.7154 17.4538 99.6523 17.6934 99.0383 18.36C98.273 19.1905 97.5391 20.0421 96.7591 20.8642C96.6689 20.9288 96.5658 20.973 96.4569 20.9937C96.348 21.0144 96.2358 21.0111 96.1283 20.9841C94.6712 20.5635 93.2266 20.101 91.7695 19.6804C91.2943 19.5438 91.0378 19.3335 91.2733 18.7721L89.4293 18.442V19.4155C90.1042 19.1758 90.3082 19.6111 90.4617 20.101C90.7329 20.9736 91.0588 21.8377 91.2439 22.7293C91.3784 23.3727 91.6854 23.6796 92.4213 23.7638C92.0008 23.0026 91.5971 22.3298 91.2754 21.6149C91.1808 21.4046 91.328 21.0787 91.3637 20.8053C91.5845 20.9357 91.8978 21.0156 92.0113 21.2049C92.5538 22.1153 93.0374 23.0594 93.5462 23.9887C93.889 24.6195 94.238 25.2335 94.4903 25.6856L95.5416 24.7289L95.569 24.8445L94.6333 25.1157C94.6732 24.712 94.7132 24.3104 94.7721 23.7049C94.381 23.2276 93.8154 22.5674 93.3002 21.8777C93.1615 21.6948 93.1509 21.413 93.09 21.1754C93.3486 21.1039 93.6303 20.9315 93.8616 20.982C94.6123 21.146 95.3335 21.4151 96.0883 21.5917C96.3238 21.6485 96.6876 21.6359 96.8411 21.4929C98.0732 20.3407 99.2612 19.1422 100.481 17.9752C100.794 17.6724 100.781 17.4453 100.51 17.1215C99.2486 15.6048 97.9926 14.079 96.7422 12.5441C96.4521 12.1867 96.2124 12.1888 95.836 12.4432C94.7574 13.1728 93.6577 13.8688 92.5433 14.5458C92.3204 14.6804 91.9966 14.6509 91.7212 14.6972C91.7863 14.4007 91.7611 14.0328 91.9314 13.8183C92.6905 12.8532 93.4958 11.9259 94.3074 10.9987C94.7279 10.5235 94.7132 10.1366 94.259 9.69082C92.8643 8.32411 91.4829 6.94338 90.1147 5.54863C89.6501 5.07344 89.2442 4.53937 88.7228 3.9317C86.7715 6.06378 84.9801 7.98348 83.237 9.94734C82.4969 10.7884 82.5432 11.0365 83.237 11.9364C83.7795 12.645 84.3388 13.341 84.8392 14.0769C84.9591 14.2535 84.8771 14.5668 84.8897 14.8149C84.6398 14.7625 84.3955 14.6865 84.1601 14.5879C84.0003 14.5017 83.9015 14.304 83.7585 14.1673C83.1653 13.6067 82.539 13.0822 81.8829 12.5967C81.6369 12.4306 81.0419 12.4116 80.8568 12.5967C79.3408 14.1106 77.8837 15.6833 76.3551 17.296L79.3198 20.9757C79.4644 21.1972 79.6361 21.3999 79.8308 21.5791C80.023 21.7095 80.2503 21.7785 80.4826 21.7768C81.3489 21.7768 82.2172 21.6948 83.0835 21.699C83.359 21.699 83.6365 21.863 83.912 21.9513C83.7942 22.2225 83.7311 22.54 83.5503 22.7587C82.9363 23.4946 82.2887 24.1969 81.5991 24.956L82.5705 25.8222C83.319 24.4324 84.0129 23.1393 84.7152 21.8504C84.8687 21.5686 85.0116 21.1165 85.4259 21.4088C85.573 21.5118 85.5646 22.0081 85.4616 22.2499C85.1946 22.8806 84.8308 23.4904 84.4313 24.2621C84.9843 23.995 85.3565 23.8226 85.7181 23.6313C85.9662 23.503 86.3489 23.4105 86.4246 23.2108C86.8136 22.2393 87.1248 21.2364 87.4949 20.1514C86.6118 20.1031 85.8485 20.0568 85.0831 20.0253C84.9759 20.0253 84.7867 20.0694 84.7677 20.1325C84.5743 20.7633 84.0318 20.6582 83.5755 20.7233C82.6231 20.8579 81.6706 21.0009 80.7139 21.1018C80.604 21.1118 80.4932 21.0993 80.3883 21.0649C80.2835 21.0306 80.1868 20.9752 80.1041 20.9021C79.2904 19.9832 78.4914 19.0475 77.7218 18.0887C77.2361 17.4832 77.2803 17.0374 77.869 16.5139C78.6953 15.7737 79.5511 15.0567 80.4174 14.3755C80.5835 14.2472 80.9157 14.3334 81.1722 14.3187C81.0986 14.5584 81.0986 14.8759 80.9388 15.021C80.2597 15.6329 79.5322 16.1943 78.8236 16.7746C78.3715 17.1447 78.2748 17.5126 78.7353 17.9815C79.1958 18.4504 79.5932 18.9613 80.0116 19.4534C80.3442 19.8151 80.793 20.0489 81.28 20.1142C81.7671 20.1795 82.2616 20.0722 82.6777 19.8108C82.3529 19.8263 82.0274 19.8023 81.7084 19.7393C81.536 19.6846 81.4267 19.426 81.2879 19.2599C81.4414 19.1401 81.5886 18.9319 81.7505 18.9214C82.1837 18.8983 82.6182 18.9173 83.0478 18.9782C84.6563 19.1884 86.309 18.9592 87.8838 19.5501C88.3969 19.7414 88.46 19.9538 88.3044 20.3911C88.0037 21.2742 87.7093 22.1616 87.3834 23.1351L88.4768 22.99V18.3936C87.9406 18.3936 87.4591 18.4252 86.986 18.3789C86.7589 18.3579 86.5466 18.1855 86.3258 18.0824C86.4562 17.8448 86.5361 17.5568 86.7274 17.3886C86.9274 17.2532 87.163 17.18 87.4044 17.1783C90.3481 16.9491 93.3107 16.7262 96.267 16.5307C96.4626 16.5181 96.675 16.741 96.881 16.8545C96.7149 17.0143 96.5698 17.275 96.3785 17.3192C95.828 17.4171 95.2729 17.4872 94.7153 17.5294C95.0791 17.6241 95.4449 17.5757 95.7919 17.6388C96.0812 17.7227 96.3594 17.8413 96.6203 17.992L96.1409 18.5492L97.0429 19.0286L98.725 17.5084ZM107.775 51.6426L107.583 51.9117C108.736 53.1018 109.867 54.3171 111.053 55.4715C111.633 56.0371 112.104 55.9929 112.775 55.4C113.967 54.3487 115.132 53.2637 116.305 52.1914C116.766 51.7709 116.936 51.2347 116.639 50.6859C116.234 49.9268 115.723 49.214 115.298 48.476C115.18 48.2658 115.214 47.9756 115.176 47.7233C115.43 47.759 115.729 47.7233 115.931 47.841C116.772 48.3541 117.575 48.9365 118.423 49.439C118.61 49.5526 119.034 49.5526 119.171 49.4201C120.78 47.8599 122.375 46.283 123.929 44.6682C124.659 43.907 124.611 43.4066 123.883 42.5907C122.671 41.2198 121.449 39.8545 120.218 38.4948C119.99 38.2474 119.737 38.0227 119.465 37.8241C119.251 37.6417 118.977 37.5438 118.695 37.5489C118.413 37.5539 118.143 37.6615 117.935 37.8514C117.617 38.1058 117.352 38.4254 117.045 38.6925C116.668 39.0609 116.258 39.3938 115.819 39.687C115.609 39.8111 115.269 39.7038 114.978 39.6996C115.019 39.4396 115.097 39.1868 115.21 38.949C115.462 38.5705 115.809 38.2551 116.076 37.8872C117.239 36.2892 117.127 35.0234 115.731 33.6503C114.8 32.742 113.851 31.8484 112.901 30.9611C112.203 30.3072 111.688 30.2777 110.922 30.8812C110.292 31.3753 109.718 31.9199 109.114 32.4392C107.604 33.7387 107.371 34.422 108.347 35.8644C108.391 35.9533 108.413 36.052 108.41 36.1515C108.407 36.2509 108.38 36.3481 108.33 36.4342C108.245 36.4891 108.148 36.5232 108.048 36.5338C107.948 36.5444 107.846 36.5311 107.752 36.4952C107.477 36.3443 107.223 36.1607 106.993 35.9485C106.29 35.3766 105.973 35.4271 105.416 36.2198C105.513 36.3538 105.621 36.4797 105.739 36.5961C106.822 37.5129 107.924 38.4065 108.986 39.3443C109.175 39.5104 109.215 39.8468 109.322 40.1054C109.051 40.0928 108.748 40.1538 108.517 40.0508C108.157 39.8483 107.816 39.614 107.497 39.3506L108.065 41.8843C108.576 42.0546 109.352 41.8611 109.198 42.8178L111.417 42.9482C111.29 41.7854 111.883 40.6353 110.843 39.6933C110.655 39.5272 110.586 39.1656 110.567 38.888C110.493 37.8367 110.428 36.7728 110.443 35.7151C110.443 35.4313 110.737 34.9224 110.918 34.9119C111.431 34.8825 111.339 35.3682 111.339 35.7214C111.339 36.7517 111.339 37.782 111.339 38.8123L111.534 38.8291C111.587 38.5053 111.658 38.1836 111.69 37.8577C111.776 36.9473 111.845 36.0347 111.919 35.1243C111.949 34.7605 111.936 34.3022 112.462 34.422C112.615 34.4578 112.758 34.9414 112.745 35.2126C112.689 36.4447 112.573 37.6769 112.478 38.909C113.203 38.2818 113.836 37.5556 114.358 36.7517C114.453 36.5574 114.504 36.3445 114.507 36.1283C114.51 35.9121 114.466 35.6978 114.377 35.5007C113.912 34.713 113.393 33.9585 112.823 33.2424C112.478 32.7735 112.079 32.7714 111.669 33.1857C111.3 33.5993 110.903 33.987 110.481 34.3463C109.602 35.0213 109.463 35.8539 109.766 36.8569C110.046 37.8016 110.299 38.7541 110.525 39.7143C110.567 39.9036 110.38 40.1349 110.298 40.3598C110.088 40.2148 109.762 40.1033 109.709 39.9162C109.369 38.7114 109.102 37.4877 108.784 36.2765C108.681 35.9022 108.686 35.5065 108.798 35.1347C108.909 34.7628 109.123 34.4299 109.415 34.1739C110.046 33.5431 110.714 32.9502 111.396 32.3783C112.171 31.7285 112.798 31.8 113.433 32.618C114.039 33.398 114.61 34.2054 115.163 35.0234C115.716 35.8413 115.71 36.4784 115.098 37.2795C114.396 38.1983 113.673 39.1025 112.954 40.0129C112.781 40.2232 112.455 40.4145 112.422 40.6437C112.314 41.3943 112.312 42.1576 112.264 43.0092C112.851 42.9398 113.38 43.0239 113.736 42.8094C115.184 41.8747 116.896 41.4323 118.616 41.5478C118.946 41.571 119.457 41.3165 119.468 41.8843C119.478 42.452 118.927 42.3679 118.549 42.4351C118.433 42.4562 118.307 42.3931 118.189 42.4057C117.504 42.4793 116.818 42.5634 116.133 42.6433L116.154 42.8368C116.32 42.8368 116.484 42.8368 116.65 42.8368C117.659 42.7779 118.671 42.6917 119.682 42.6707C119.907 42.6707 120.138 42.8809 120.365 43.0029C120.155 43.1774 119.934 43.3582 119.709 43.5222C119.661 43.558 119.566 43.5222 119.499 43.5327L116.246 43.8187V44.0395C116.925 44.1067 117.609 44.1551 118.284 44.2497C118.524 44.3118 118.756 44.4021 118.976 44.5189C118.765 44.7018 118.587 45.0109 118.362 45.0424C117.155 45.2392 115.919 44.9669 114.907 44.2813C114.066 43.7009 113.237 43.8607 112.333 43.8734V46.1442C112.659 46.3755 112.964 46.489 113.107 46.7119C113.856 47.9735 114.579 49.2603 115.277 50.5513C115.605 51.1548 115.746 51.8634 115.25 52.3869C114.394 53.2958 113.471 54.1392 112.489 54.9101C111.806 55.4442 111.227 55.3306 110.628 54.6851C109.896 53.8861 109.242 53.0177 108.525 52.2019C108.297 51.9881 108.045 51.8005 107.775 51.6426ZM89.4818 76.1088C88.5651 75.354 88.5336 74.5823 89.3641 74.0441C90.4911 73.3144 90.6152 73.0138 90.3544 71.6597C90.201 70.8754 90.264 70.1121 90.7161 69.4393C90.795 69.3632 90.8893 69.305 90.9927 69.2687C91.0962 69.2324 91.2062 69.2189 91.3153 69.229C91.3994 69.229 91.5845 69.6306 91.5256 69.7252C90.8443 70.8228 91.2165 71.8952 91.6349 72.917C92.2066 74.3807 92.2841 75.9911 91.8557 77.5029C91.5046 78.7876 92.436 80.0113 91.6455 81.1657C91.6181 81.2077 91.7127 81.3381 91.759 81.4222C92.1122 82.0635 92.0071 82.6838 91.8116 83.3692C91.6413 83.9664 91.6644 84.6308 91.6497 85.2616C91.6505 85.6464 91.6935 86.03 91.7779 86.4054C91.81 86.6496 91.9073 86.8806 92.0597 87.0741C92.7094 87.7595 92.9911 88.5459 92.7514 89.4606C92.54 90.1752 92.288 90.8773 91.9966 91.5632C91.7207 92.2354 91.6572 92.9759 91.8147 93.6852C91.9722 94.3946 92.3432 95.0386 92.8776 95.5309C92.8893 95.4085 92.8893 95.2853 92.8776 95.1629C92.5706 93.6574 92.7935 92.2045 93.2161 90.7474C93.3964 90.0259 93.4896 89.2854 93.4937 88.5417C93.5125 88.2365 93.4412 87.9325 93.2887 87.6674C93.1362 87.4024 92.9091 87.188 92.6358 87.051C92.1059 86.7671 92.0408 86.4202 92.3456 85.9345C92.7325 85.3037 92.6316 84.717 92.2699 84.0989C92.2036 83.9734 92.1641 83.8355 92.1539 83.694C92.1438 83.5525 92.1633 83.4103 92.2111 83.2767C92.4844 82.6649 92.5538 82.0929 92.2741 81.4685C92.1825 81.2537 92.1728 81.0128 92.2468 80.7914C92.4065 80.4142 92.4888 80.0088 92.4888 79.5992C92.4888 79.1896 92.4065 78.7842 92.2468 78.407C92.1816 78.2367 92.2468 77.8688 92.373 77.791C92.9175 77.4629 92.9218 76.9856 92.8503 76.4642C92.7262 75.5601 92.6022 74.6538 92.4571 73.7518C92.415 73.4953 92.373 73.1588 92.2027 73.018C91.6181 72.5428 91.738 71.8973 91.7085 71.3001C91.6602 70.2909 92.455 69.6643 93.4243 69.946C93.8086 70.0873 94.1782 70.2654 94.5282 70.478C95.4891 70.9847 96.2713 70.8607 96.9714 70.0217C97.6988 69.1423 98.143 68.0633 98.2456 66.9266C98.3487 65.9847 97.9407 65.3055 97.1733 64.7946C96.5826 64.4219 96.0139 64.0154 95.4701 63.5771C94.8583 63.0578 94.7384 62.3492 95.0496 61.6049C95.1582 61.3633 95.2854 61.1306 95.4302 60.9089C95.7582 60.379 95.7225 59.9312 95.2199 59.5106C94.7658 59.1322 94.3558 58.7032 93.9058 58.2764C91.9545 60.2087 89.6143 60.9194 86.7842 60.1688L87.5138 61.1255C87.8039 61.0435 88.0962 60.8711 88.2098 60.951C88.3035 61.0308 88.3797 61.1292 88.4336 61.2399C88.4875 61.3506 88.518 61.4713 88.523 61.5944C88.5357 64.5612 88.5336 67.528 88.4978 70.4927C88.4978 70.7576 88.2203 71.0205 88.0773 71.2833C87.9301 71.0289 87.6568 70.7766 87.6568 70.52C87.6168 69.1218 87.642 67.7214 87.642 66.3148V62.1558C87.2593 62.5446 86.9018 62.9576 86.5718 63.3921C86.405 63.6512 86.3378 63.962 86.3826 64.2668C86.5274 64.9205 86.7279 65.5607 86.9818 66.1802C87.3077 66.9813 87.1816 68.1945 86.6517 68.7034C86.0714 69.2564 85.6824 69.2332 84.5154 68.5772C83.6176 68.0726 82.9258 68.2744 82.2235 69.311C82.4527 69.2248 82.6062 69.1786 82.7513 69.1008C83.0503 68.9353 83.3936 68.8676 83.733 68.9072C84.0724 68.9468 84.3908 69.0917 84.6437 69.3215C84.9227 69.5397 85.1287 69.8375 85.2346 70.1755C85.3405 70.5134 85.3412 70.8756 85.2366 71.2139C85.1168 71.6513 85.0264 72.1601 84.7467 72.4755C83.9582 73.3712 84.0171 74.412 84.0507 75.4696C84.0383 75.9994 84.0566 76.5295 84.1054 77.0571C84.1547 77.5067 84.298 77.9408 84.5259 78.3313C84.8245 78.7876 84.8687 79.1429 84.5259 79.5614C84.0823 80.0891 84.1054 80.6316 84.5806 81.1173C84.896 81.4453 84.9065 81.6976 84.5806 82.0404C83.9961 82.6712 84.036 83.1548 84.5554 83.8171C84.7089 84.0126 84.8035 84.429 84.6983 84.6224C84.3073 85.352 84.2778 86.0186 84.7173 86.725C84.9843 87.1456 84.9465 87.543 84.4061 87.7764C84.1556 87.8773 83.9447 88.057 83.8055 88.2884C83.6662 88.5199 83.6062 88.7904 83.6344 89.059C83.6783 89.7771 83.7896 90.4895 83.9666 91.1868C84.3073 92.4652 84.3682 93.6721 83.7227 94.9043C83.4893 95.3501 83.4935 95.9766 83.5503 96.5044C83.6176 97.1352 83.5755 97.684 83.1803 98.2075C82.8428 98.6157 82.5686 99.0721 82.3665 99.5616C82.2656 99.8434 82.3918 100.274 82.56 100.552C82.6462 100.695 83.0478 100.642 83.2097 100.666C83.3274 100.127 83.3379 99.671 83.5272 99.3093C83.7164 98.9477 84.0823 98.6785 84.3682 98.3652C83.9267 97.1499 83.9835 96.393 84.6079 95.2596C84.9338 94.6688 85.3838 94.1158 85.5604 93.4829C85.7371 92.85 85.8443 92.0847 85.5983 91.5548C84.8434 89.9358 84.7278 88.4219 85.7938 86.929C85.081 86.069 84.9528 85.1796 85.3607 84.1956C85.4347 83.9607 85.4159 83.7063 85.3081 83.4849C84.9906 82.8541 84.8876 82.2233 85.1672 81.5399C85.2073 81.4459 85.228 81.3447 85.228 81.2424C85.228 81.1402 85.2073 81.039 85.1672 80.9449C84.7005 80.2027 84.9696 79.5277 85.1147 78.7498C85.245 78.0454 84.6836 77.2464 85.0768 76.4579C85.1285 76.3769 85.1688 76.2891 85.1967 76.1972C85.2374 76.0642 85.2374 75.9222 85.1967 75.7892C84.711 74.9482 84.9864 74.166 85.285 73.3628C85.6593 72.3704 86.0546 71.3863 85.8191 70.2761C85.7749 70.0659 85.9936 69.8073 86.0924 69.5696C86.2795 69.7652 86.5676 69.9292 86.637 70.1605C87.0007 71.3842 86.6685 72.5344 86.2164 73.4427C86.944 74.2228 87.6483 74.8746 88.2203 75.6252C88.6408 76.1656 88.3948 76.521 87.785 76.563C87.6771 76.5757 87.5731 76.6108 87.4796 76.6663C87.3862 76.7217 87.3054 76.7961 87.2425 76.8847C87.1795 76.9877 87.3182 77.2569 87.4276 77.4083C87.6378 77.7005 87.9743 77.9276 88.0962 78.2493C88.2182 78.571 88.1235 78.9348 88.1256 79.2817C87.8544 79.2817 87.5832 79.267 87.314 79.2817C87.1584 79.2817 86.9124 79.2964 86.8704 79.3848C86.8342 79.4664 86.8172 79.5553 86.8205 79.6445C86.8237 79.7338 86.8473 79.8211 86.8893 79.8999C87.0393 80.0539 87.2197 80.1749 87.4192 80.2552C87.9679 80.5559 88.378 80.9512 88.2076 81.6367C88.0436 82.2906 87.497 82.2969 86.8851 82.3053C87.0428 82.5737 87.2305 82.8234 87.4444 83.0496C87.6988 83.3545 88.0226 83.6426 88.1614 83.9979C88.338 84.4479 88.031 84.6708 87.5537 84.6098C87.3245 84.5804 87.0722 84.7339 86.6475 84.8558L88.4137 86.2414L89.6606 84.1388C88.5819 83.5227 88.5714 83.262 89.5176 81.4832C88.5861 80.4319 88.5903 80.3772 89.6669 78.7287C88.6534 77.8099 88.6282 77.5113 89.4839 76.1088H89.4818ZM98.7545 40.5196C98.2561 39.7585 97.8587 39.134 97.4445 38.5221C97.0303 37.9103 97.1544 37.3173 97.8651 37.023C99.1834 36.4742 100.535 36.2387 101.948 36.6929C102.808 36.9704 102.897 37.2627 102.529 38.0533C102.223 38.779 101.976 39.5278 101.789 40.2926C101.656 40.7594 101.904 40.9423 102.367 40.9612C102.754 40.9856 103.141 40.9015 103.483 40.7184C103.826 40.5353 104.11 40.2604 104.305 39.9246C104.764 39.2265 105.203 39.2455 105.599 39.9835C106.12 40.9182 106.34 41.9909 106.229 43.0554C106.049 44.6555 106.046 45.3683 104.053 44.7649C103.998 45.2863 104.091 45.6606 104.728 45.7132C105.207 45.7531 105.681 45.8772 106.2 45.9718C107.962 43.4844 107.121 39.1719 105.241 37.4519C105.144 37.5823 105.058 37.7274 104.947 37.8514C104.284 38.5852 103.63 39.3233 102.939 40.0339C102.817 40.158 102.535 40.1244 102.327 40.1643C102.304 39.954 102.18 39.6155 102.274 39.5335C102.871 39.0037 102.775 38.2719 102.962 37.6075C103.072 37.3405 103.213 37.0871 103.382 36.8527L104.104 37.4519L104.709 36.7791C104.539 36.6214 104.411 36.4784 104.259 36.3585C101.839 34.5145 98.6619 34.4662 96.41 36.5141C94.5765 38.1752 92.9701 40.0886 91.2796 41.9053C91.2305 41.9854 91.2028 42.0768 91.1991 42.1706C91.1954 42.2645 91.2159 42.3578 91.2586 42.4415C92.6463 43.8776 94.0467 45.301 95.4786 46.6951C95.611 46.8255 96.0252 46.8233 96.2103 46.714C96.7212 46.4133 97.1417 45.812 97.6653 45.7174C98.5652 45.5576 98.3613 44.8868 98.5715 44.3633C97.9015 44.6295 97.2694 44.983 96.6918 45.4146C95.8991 46.0328 95.6741 46.0454 95.0517 45.2253C93.7901 43.5958 93.8427 41.4616 95.1611 39.8174C95.6068 39.2623 95.7919 39.2581 96.2881 39.7985C96.8957 40.4902 97.6359 40.7467 98.7545 40.5196ZM86.4625 87.5766C85.7118 88.5102 85.6887 89.6582 86.2522 90.8231C86.8157 91.9879 86.822 93.136 86.1176 94.2504C85.8351 94.6703 85.5943 95.1168 85.3985 95.5835C85.1649 96.1263 85.018 96.7024 84.9633 97.2908C84.9444 97.8459 85.2219 98.2201 85.9599 98.1907C87.8081 98.1129 89.6627 98.1003 91.5109 98.1634C92.1417 98.1844 92.4508 97.9531 92.3372 97.4401C92.1877 96.6715 91.9211 95.9305 91.5466 95.2428C90.8023 93.9623 90.5857 92.7028 91.2312 91.3361C91.4013 90.9905 91.5331 90.6274 91.6244 90.2533C91.7683 89.6729 91.8557 89.08 91.8852 88.4828C91.8852 87.871 91.0189 87.133 90.6236 87.4315C89.7531 88.0918 88.8426 87.8226 87.9343 87.7953C87.4398 87.7515 86.9483 87.6784 86.4625 87.5766ZM86.1387 30.1305C85.8317 29.6196 85.6004 29.2348 85.3712 28.8479C84.4019 27.2142 84.4544 27.0165 86.1239 26.0325C87.9049 24.9812 90.0243 25.1242 91.288 26.3836C91.9693 27.0628 92.0197 27.3971 91.5698 28.2403C91.2249 28.89 90.878 29.5397 90.4638 30.3156C91.0756 30.2188 91.5151 30.1326 91.9651 30.0801C92.8061 29.9812 93.2708 30.3198 93.3002 31.1797C93.334 31.9735 93.296 32.7688 93.1867 33.5557C93.0269 34.6302 92.3561 34.8909 91.4142 34.319C91.021 34.0793 90.6341 33.8333 90.1021 33.5011C90.447 34.6911 90.7329 35.692 91.0252 36.695C91.1408 36.2198 91.0588 35.7761 91.0672 35.3324C91.0672 35.1222 91.246 34.9119 91.3448 34.689C91.5256 34.8594 91.7989 35.0002 91.8683 35.2084C91.9745 35.6257 92.0448 36.0513 92.0786 36.4805C94.6018 34.4599 95.3482 31.9346 94.6964 28.8542C94.0256 25.675 92.2699 24.0392 89.0508 23.932C88.0161 23.8755 86.982 24.0519 86.0246 24.4482C85.0672 24.8445 84.2109 25.4506 83.5188 26.2217C84.6353 27.2331 84.6647 28.5683 84.6542 29.9287L86.1387 30.1305ZM85.8947 48.7998C85.9599 48.8987 86.023 48.9975 86.0861 49.0963C86.3961 49.0042 86.6973 48.8846 86.986 48.7388C88.5483 47.7843 90.1168 47.7653 91.719 48.6274C92.2048 48.8881 92.2994 49.1552 91.9524 49.6535C91.6033 50.221 91.2908 50.8103 91.0168 51.4176L91.227 51.5774C91.7674 51.2263 92.3162 50.8898 92.844 50.5261C93.1615 50.3053 93.4369 50.2738 93.6219 50.6459C94.3894 52.1935 94.5534 53.7663 93.7838 55.3727C93.5063 55.953 93.09 56.1233 92.4823 55.8794C92.1555 55.7751 91.8227 55.6908 91.4857 55.6271C91.7548 56.2053 91.923 56.6321 92.1438 57.0274C92.4466 57.5657 92.2826 57.9063 91.7968 58.228C90.6173 59.006 89.3473 59.2499 88.0121 58.8315C87.5097 58.687 87.058 58.4044 86.7085 58.0157C86.5276 57.7886 86.7316 57.2545 86.761 56.8845C85.798 57.305 85.1841 57.1157 84.7341 56.1696C84.6141 55.9607 84.5376 55.7296 84.5091 55.4904C84.4839 54.6304 84.4713 53.7683 84.5091 52.9105C84.528 52.5404 84.5995 52.0925 84.8266 51.8381C85.0074 51.6279 85.4574 51.6762 85.8969 51.5879C84.9191 51.3566 85.4111 50.6522 85.3691 50.1035C84.4629 51.6047 83.851 53.1502 83.9162 54.8912C83.9814 56.6321 84.7236 57.9946 86.2438 58.8862C88.3065 60.091 91.0925 59.6978 92.926 57.9505C93.1551 57.7402 93.3465 57.4774 93.5862 57.1956C93.3949 57.1431 93.3276 57.1179 93.2582 57.1052C92.8271 57.019 92.0912 57.2272 92.2174 56.4744C92.3288 55.8289 92.9491 56.2032 93.3738 56.2221C93.7523 56.2389 94.1981 56.4471 94.4378 55.9088C95.3566 53.8567 95.6615 51.7036 94.278 49.8469C92.7493 47.7927 90.8969 45.976 89.1097 43.9596L85.8947 48.7998ZM107.949 50.5892C108.439 49.3675 108.944 48.0534 109.512 46.7666C109.612 46.5353 109.968 46.4133 110.208 46.2409C110.237 46.5185 110.363 46.8297 110.279 47.063C109.951 47.9693 109.562 48.8503 109.181 49.7376C108.816 50.5913 108.86 51.3629 109.52 52.0778C109.993 52.5909 110.407 53.1586 110.866 53.6863C111.385 54.2856 111.837 54.3571 112.426 53.8651C113.09 53.31 113.721 52.7086 114.318 52.0905C114.48 51.9243 114.648 51.5606 114.575 51.3966C114.009 50.1623 113.383 48.9554 112.777 47.738L112.527 47.8621C112.92 48.8124 113.334 49.7544 113.689 50.7195C113.767 50.9298 113.641 51.2115 113.61 51.4597C113.364 51.3314 113.128 51.1859 112.903 51.0244C112.793 50.8986 112.703 50.7568 112.636 50.6039C112.565 50.7479 112.523 50.9043 112.512 51.0644C112.424 51.3314 112.302 51.5837 112.184 51.8423C112.001 51.6089 111.711 51.3987 111.654 51.138C111.57 50.5965 111.521 50.05 111.509 49.5021H111.326C111.259 50.0677 111.225 50.6396 111.116 51.1968C111.065 51.447 110.857 51.6657 110.723 51.897C110.571 51.6699 110.266 51.4176 110.302 51.2158C110.466 50.1308 110.573 48.9996 110.979 47.9987C111.299 47.2288 111.449 46.3992 111.421 45.566C111.372 43.8187 111.387 43.8082 109.617 43.7787C108.986 43.7661 108.416 43.7325 108.66 42.6013C108.307 42.8683 108.04 42.9629 108.008 43.108C107.84 43.8902 107.731 44.6871 107.588 45.5471C107.962 45.1893 108.36 44.8564 108.778 44.5504C108.988 44.4137 109.316 44.4495 109.589 44.4074C109.512 44.6681 109.509 45.0109 109.339 45.177C108.685 45.8078 107.977 46.3923 107.483 46.8234C107.483 47.3827 107.548 47.7422 107.468 48.066C107.314 48.6968 107.079 49.3276 106.942 49.7481L107.949 50.5892ZM73.3399 47.7527C73.4871 47.3848 73.6028 47.1009 73.7163 46.8149C73.8199 46.5428 73.9998 46.3062 74.2343 46.1336C74.4689 45.9609 74.7482 45.8595 75.0389 45.8414C75.8799 45.73 76.1154 45.4209 76.0733 44.4957C76.026 44.4981 75.9793 44.5073 75.9346 44.5231C75.4194 44.7838 74.9043 45.0466 74.3912 45.3158C73.5817 45.7363 73.1801 45.6038 72.7848 44.7733C72.0384 43.2005 72.379 41.3418 73.6091 40.0171C73.9812 39.6176 74.2735 39.584 74.7171 39.8931C75.3479 40.3325 76.0292 40.7005 76.6894 41.1L76.8702 40.9192C76.538 40.2183 76.2051 39.5174 75.8715 38.8165L75.6949 38.8922C75.72 39.057 75.7165 39.2249 75.6844 39.3884C75.5915 39.5606 75.4762 39.7196 75.3416 39.8615C75.186 39.7143 74.9737 39.5924 74.8959 39.4116C74.8181 39.2307 74.8601 38.9301 74.7949 38.7009C74.6099 38.0491 74.3975 37.4077 74.1642 36.655C71.9564 38.0448 71.416 40.118 71.2057 42.2732C71.0039 44.3717 71.5338 46.2788 73.3399 47.7527ZM75.4005 46.7182C74.4039 46.7413 74.3849 47.4583 74.2483 48.0008C74.1011 48.5812 74.7003 48.5433 75.0031 48.6589C76.3724 49.1617 77.8677 49.2074 79.2651 48.7893C82.6819 47.841 84.8098 45.3683 86.555 42.4814C86.6349 42.3468 86.5171 41.9831 86.3763 41.8506C85.5836 41.0768 84.753 40.343 83.9393 39.5903C83.1256 38.8375 82.6672 38.9322 82.192 39.7669C82.5663 39.8195 83.1298 39.7249 83.4073 39.9646C84.5049 40.9086 84.8413 43.5159 84.1243 44.7565C83.7038 45.4945 83.073 45.69 82.3077 45.3347C81.8051 45.0992 81.2942 44.8826 80.7853 44.6576C80.8744 45.2048 81.0534 45.7334 81.3152 46.222C81.3887 46.3349 81.4361 46.4628 81.4538 46.5964C81.4716 46.73 81.4592 46.8658 81.4177 46.994C81.3762 47.1222 81.3065 47.2394 81.2139 47.3372C81.1212 47.4351 81.0078 47.5109 80.8821 47.5593C79.2736 48.3057 77.6188 48.7536 75.9051 47.8032C75.4825 47.5635 75.0641 47.3784 75.4005 46.7182ZM56.235 35.242L55.354 34.3295L48.8947 40.5196L54.9229 46.8402L55.9196 46.1905C54.2669 44.6135 52.7215 43.1332 51.1676 41.6614C50.3855 40.9192 50.3623 40.8203 51.1676 40.0592C52.8203 38.4591 54.5024 36.8779 56.235 35.242ZM94.7321 21.945L94.6585 22.2499C94.9655 22.5358 95.2326 22.9858 95.59 23.0762C96.8158 23.3853 98.0143 23.6061 99.0446 22.3949C100.195 21.0429 101.538 19.8571 102.756 18.5597C102.949 18.3495 103.105 17.8133 102.981 17.6535C101.456 15.677 99.8773 13.7405 98.273 11.7472L97.6211 12.2813C98.847 13.772 100.024 15.2039 101.196 16.6337C101.837 17.4117 101.839 17.8532 101.122 18.5702C100.237 19.4555 99.2738 20.265 98.4349 21.1901C97.4067 22.3382 96.3848 23.278 94.7321 21.945ZM64.7843 25.2524L58.7266 30.9611C59.6518 32.1974 59.6602 32.1995 60.6715 31.1713C61.9962 29.8411 63.3202 28.5094 64.6434 27.1763C65.3709 26.4425 65.5476 26.4488 66.273 27.2037C67.5724 28.5606 68.8746 29.9154 70.1797 31.2681C70.3332 31.4279 70.5056 31.5708 70.7242 31.7727C70.7936 30.9022 66.6451 26.432 64.7843 25.2524ZM119.783 50.0151C120.523 50.5198 120.998 50.5471 121.562 49.9668C123.034 48.4676 124.566 47.042 126.074 45.587C126.78 44.9057 126.835 44.4221 126.236 43.6273C125.729 42.9545 125.17 42.3216 124.651 41.6572C123.624 40.3493 122.626 39.0184 121.579 37.7295C121.429 37.5465 121.074 37.5339 120.813 37.4414C120.899 37.6769 120.929 37.9607 121.084 38.1395C122.298 39.5419 123.551 40.9107 124.762 42.3174C125.58 43.2657 125.588 44.0899 124.762 45.0361C124.083 45.8162 123.332 46.5353 122.598 47.2649C121.684 48.1774 120.75 49.0732 119.783 50.0151ZM94.341 8.59325C94.9529 8.26313 94.812 7.97717 94.4903 7.63655C93.5483 6.63779 92.6295 5.62012 91.6938 4.61506C90.7581 3.61 89.833 2.63228 89.0466 1.79543L82.7261 7.94984C83.0625 8.49022 83.3863 8.40611 83.7921 7.97297C85.1756 6.49692 86.5774 5.03559 87.9974 3.58897C88.6282 2.93505 88.7522 2.95819 89.3998 3.61841C91.0294 5.27108 92.6758 6.92375 94.3368 8.59114L94.341 8.59325ZM101.28 28.4568C102.386 28.4568 103.416 28.4821 104.434 28.4337C104.556 28.405 104.67 28.3459 104.764 28.2617C104.857 28.1776 104.928 28.0711 104.97 27.9522C105.056 27.0691 105.054 26.1776 105.092 25.2882C105.113 24.8193 104.882 24.6427 104.436 24.6574C103.62 24.6742 102.802 24.6826 101.986 24.6805C101.538 24.6805 101.29 24.9139 101.282 25.3281C101.265 26.3942 101.28 27.4707 101.28 28.4547V28.4568ZM79.0339 11.3982C77.4548 13.0992 75.9409 14.7393 74.4186 16.3688C74.0737 16.7368 74.2735 16.9996 74.5111 17.3045C75.9661 19.1611 77.4106 21.0282 78.8614 22.8891C79.4334 23.625 81.7736 23.5367 82.3203 22.7608C82.3413 22.7314 82.3203 22.6704 82.3203 22.6725C81.5612 22.6725 80.7959 22.7019 80.0368 22.6578C79.7379 22.6452 79.4539 22.5241 79.2378 22.3171C78.0099 20.8348 76.8198 19.3188 75.615 17.8154C75.0262 17.0795 75.0283 17.0185 75.7222 16.333C76.0292 16.0261 76.353 15.7296 76.6495 15.4205C77.7008 14.344 78.7647 13.2632 79.8476 12.1593L79.0339 11.3982ZM88.5756 100.708C89.7531 100.708 90.9306 100.724 92.108 100.695C92.3793 100.695 92.6463 100.531 92.9154 100.443C92.7556 100.1 92.6821 99.5869 92.4171 99.4502C91.8682 99.1598 91.261 98.9967 90.6404 98.9729C89.0088 98.954 87.375 99.036 85.7434 99.1117C85.3597 99.1081 84.9821 99.2075 84.65 99.3997C84.5223 99.5086 84.4188 99.6431 84.3464 99.7945C84.2739 99.9459 84.2341 100.111 84.2295 100.279C84.2295 100.422 84.7026 100.68 84.9675 100.699C86.1702 100.733 87.3729 100.708 88.5756 100.708ZM86.4036 33.499C85.7244 33.8753 85.2114 34.1655 84.692 34.4451C84.2526 34.6827 83.8026 34.7731 83.4683 34.3022C82.8228 33.3938 82.7282 32.3383 82.7639 31.2681C82.785 30.6373 82.9427 30.0717 83.6239 29.8193C83.6786 29.8004 83.7185 29.7163 83.7459 29.6553C84.0087 29.0456 83.5356 27.4938 82.9511 27.0607C80.8001 29.5481 81.66 35.1979 84.5596 36.9557C84.4986 36.4868 84.4334 36.0978 84.4061 35.7088C84.3935 35.5364 84.4061 35.2547 84.5007 35.2063C84.5942 35.1667 84.6946 35.1463 84.7961 35.1463C84.8976 35.1463 84.9981 35.1667 85.0915 35.2063C85.2534 35.2841 85.3502 35.5028 85.5352 35.7341L86.4036 33.499ZM76.7903 55.4484C75.9787 55.4484 75.1629 55.4904 74.3555 55.4357C73.6238 55.3853 73.4009 55.7701 73.4009 56.3819C73.4009 57.1494 73.445 57.919 73.4493 58.6948C73.4493 59.0691 73.5985 59.2121 73.9707 59.1889C74.6919 59.1448 75.4152 59.1153 76.1364 59.0985C76.7672 59.0817 76.9943 58.7201 76.9775 58.1629C76.9207 57.2819 76.8471 56.4198 76.7903 55.4484ZM83.3926 64.1575C83.4851 63.9157 83.6491 63.6802 83.6533 63.4405C83.6585 62.8877 83.6312 62.3352 83.5713 61.7857C83.4221 60.1814 84.0318 59.5317 85.1567 59.6011L83.3695 57.7613L81.9481 58.9513L82.0112 59.1427C82.2674 59.0815 82.5201 59.0064 82.7681 58.9177C83.031 58.8147 83.2686 58.6233 83.5398 58.5624C83.6284 58.5602 83.7161 58.5804 83.7948 58.6212C83.8734 58.662 83.9405 58.7221 83.9898 58.7958C84.0486 58.9219 83.9687 59.2436 83.8699 59.2836C82.8543 59.6915 82.9279 60.5851 82.8985 61.4177C82.8438 62.8896 82.2887 63.4951 80.8295 63.6423C80.3186 63.6949 79.7929 63.8526 79.7782 64.4245C79.7172 65.9111 79.6331 67.4123 79.7782 68.8863C79.8938 70.1058 80.8779 70.3581 81.8283 69.5339C80.8821 69.6432 80.4573 69.4246 80.3564 68.6193C80.213 67.6193 80.1427 66.6101 80.1461 65.5999C80.1468 65.3326 80.2061 65.0688 80.3197 64.8269C80.4333 64.585 80.5986 64.3709 80.8038 64.1998C81.009 64.0286 81.2493 63.9045 81.5077 63.8362C81.766 63.7678 82.0362 63.7569 82.2992 63.8042C82.6672 63.8949 83.029 64.0094 83.3821 64.147L83.3926 64.1575ZM117.367 52.7381L117.216 52.5699C116.877 52.8579 116.53 53.1355 116.202 53.434C115.239 54.3087 114.31 55.2171 113.317 56.0602C112.228 56.9917 111.387 56.9559 110.302 56.0119C110.014 55.7595 109.76 55.4652 109.493 55.1876L107.215 52.799L106.976 52.9651C107.197 53.3541 107.365 53.7915 107.651 54.1279C108.723 55.3895 109.829 56.6363 110.933 57.8769C111.602 58.6296 111.879 58.6275 112.562 57.9042C114.005 56.3833 115.446 54.8617 116.885 53.3394C117.053 53.1441 117.211 52.9398 117.356 52.7275L117.367 52.7381ZM85.6361 27.6032L87.2278 30.1831L87.4381 30.099C87.2993 29.5082 87.1185 28.9257 87.0386 28.3265C87.007 28.091 87.2005 27.8239 87.2909 27.5695C87.4738 27.744 87.7261 27.8849 87.825 28.0973C87.9925 28.5082 88.133 28.9296 88.2455 29.3589C88.4389 28.9888 88.4558 28.6187 88.5882 28.3076C88.7207 27.9964 88.5062 27.2394 89.1812 27.3719C89.812 27.4938 89.4671 28.0826 89.4314 28.4758C89.3788 29.0203 89.2758 29.5607 89.1938 30.1032L89.4882 30.1894C89.8624 29.5103 90.2472 28.8332 90.611 28.1477C91.0609 27.3067 90.939 26.9682 90.0664 26.5561C88.6008 25.8685 86.7232 26.2995 85.6361 27.6032ZM64.1745 55.7764L69.4311 51.6342L69.3281 51.4849C69.202 51.5289 69.0796 51.5831 68.9622 51.6468C67.7511 52.4269 66.5337 53.2006 65.3352 53.9996C64.1367 54.7986 63.6173 54.744 62.6522 53.7095C61.3612 52.3238 60.066 50.9445 58.7434 49.5336L58.1126 50.2107L64.1745 55.7764ZM85.3712 60.5115C84.5301 60.5367 84.2274 61.0014 84.4082 61.7584C84.6332 62.6982 84.692 63.5877 84.2253 64.4918C84.0953 64.776 84.0817 65.0997 84.1874 65.3938C84.3329 65.768 84.5806 66.0936 84.9023 66.3337C85.0621 66.4409 85.6277 66.2853 85.6971 66.1234C85.8298 65.7811 85.8253 65.4007 85.6845 65.0616C85.1946 64.1007 85.3628 63.3122 86.105 62.5742C86.4246 62.2504 86.8704 61.8572 86.5255 61.4051C86.1807 60.9531 85.6382 60.7049 85.367 60.5115H85.3712ZM82.3413 38.2803C80.3943 36.327 76.6074 35.6037 75.0325 36.5078L75.6633 38.1899C76.7588 37.1596 78.689 36.9641 80.1062 37.7231C81.3362 38.3813 81.3362 38.3813 80.8947 39.6807C80.8821 39.7185 80.9094 39.7711 80.9157 39.8132L82.3413 38.2803ZM117.821 33.5936C116.391 31.7305 114.682 30.0993 112.754 28.7575C112.518 28.5956 111.967 28.7197 111.656 28.8858C111.154 29.1528 110.731 29.5712 110.271 29.9203C109.299 30.6562 108.325 31.39 107.348 32.1217L107.443 32.3698C107.653 32.3131 107.895 32.311 108.044 32.189C108.843 31.5316 109.627 30.8559 110.397 30.1621C111.591 29.0855 112.222 29.0582 113.355 30.1873C114.638 31.4783 115.899 32.8177 117.178 34.1508L117.821 33.5936ZM76.0565 28.9951V26.0682L74.816 26.0094L73.607 25.9547C73.607 26.411 73.607 26.7958 73.607 27.1742C73.5754 29.3757 73.6869 29.464 76.0565 28.9951ZM101.25 55.278C100.592 58.0262 100.575 57.8243 102.676 58.2806L102.817 58.3079C103.25 58.3878 103.448 58.1902 103.46 57.7676C103.492 57.2188 103.601 56.6658 103.555 56.1254C103.526 55.9806 103.463 55.8449 103.37 55.7299C103.277 55.615 103.158 55.5241 103.023 55.4652C102.438 55.3566 101.845 55.2912 101.25 55.2696V55.278ZM89.1959 33.581L88.9457 33.6314C88.9856 33.8816 89.0151 34.1339 89.0676 34.38C89.2169 35.0864 89.4062 35.7845 89.5092 36.4973C89.5365 36.6908 89.3199 36.9178 89.2148 37.1281C89.0382 36.9809 88.767 36.8632 88.7039 36.6781C88.5062 36.0852 88.3885 35.4649 88.2392 34.8573C87.989 35.3997 87.8986 35.9464 87.7156 36.4616C87.6315 36.7013 87.3498 37.0692 87.1942 37.0524C86.7484 37.004 86.7989 36.6319 86.8872 36.2702C87.0975 35.406 87.2594 34.5335 87.4402 33.663C86.9407 34.5973 86.514 35.5688 86.1639 36.5688C86.145 36.6651 86.1489 36.7645 86.1752 36.859C86.2015 36.9535 86.2494 37.0406 86.3153 37.1134C86.9313 37.7 88.9814 37.8766 89.6669 37.3972C89.8582 37.2627 90.1126 36.9599 90.0748 36.798C89.8267 35.7088 89.4987 34.6428 89.1959 33.581ZM98.1573 47.7296L98.0248 47.8705C98.1699 48.0387 98.2856 48.3036 98.4664 48.3604C100.821 49.09 103.071 49.0206 105.079 47.3869C105.214 47.2368 105.325 47.0665 105.407 46.8822C105.207 46.7981 105.006 46.6383 104.808 46.6425C104.198 46.6572 103.652 46.4701 103.416 45.9318C103.239 45.5218 103.309 45.0046 103.26 44.42L102.552 44.2539C102.838 45.095 103.073 45.7636 103.309 46.4428C103.519 47.0273 103.345 47.4647 102.817 47.7948C101.486 48.6358 100.123 48.7557 98.7124 48.005C98.5316 47.8957 98.3445 47.8095 98.1594 47.7191L98.1573 47.7296ZM98.048 27.6557L97.8377 27.4455L95.651 29.3757V33.4527L99.4988 29.3757L99.2276 29.115C98.5211 29.8593 97.8356 30.6268 97.0976 31.3353C96.9336 31.493 96.5824 31.451 96.3175 31.5014C96.3722 31.2512 96.3469 30.9295 96.4962 30.7613C97.0219 30.1684 97.6106 29.6322 98.1783 29.0687C98.3592 28.8858 98.5295 28.6923 98.704 28.5031L98.5631 28.3832C98.1426 28.7785 97.7452 29.1886 97.3121 29.5649C97.0135 29.8257 96.7065 30.406 96.2607 29.9581C95.7687 29.4598 96.471 29.2348 96.7065 28.9573C97.1186 28.4905 97.6064 28.0805 98.0501 27.6452L98.048 27.6557ZM85.3207 37.576L85.1462 37.8094L88.4621 40.3851C89.6816 39.4095 91.1219 37.6811 91.1093 37.2311C89.3094 39.3926 87.3288 38.6904 85.3207 37.576ZM97.352 42.2396C95.5543 41.5815 95.5543 41.5815 95.6131 41.1L96.9693 41.4743L96.9861 41.4007L95.7246 40.629C94.7069 41.9032 94.8246 43.8691 95.9664 44.8174L97.2574 43.9596L97.2132 43.8607L95.6699 44.1194L95.5669 43.8376L97.1249 43.1732C96.7044 43.1311 96.3995 43.1564 96.1493 43.0575C95.9496 42.9776 95.8087 42.7442 95.6426 42.5802C95.836 42.4478 96.0189 42.2291 96.2292 42.2018C96.6037 42.179 96.9794 42.1895 97.352 42.2333V42.2396ZM74.2861 40.7152C73.1381 41.7434 72.9278 43.4697 73.8256 44.6093L75.6991 43.64C75.2892 43.6768 74.8846 43.7579 74.4922 43.8818C74.323 43.8784 74.156 43.8427 74.0002 43.7766C74.1137 43.6463 74.1999 43.4612 74.3408 43.4003C74.7487 43.2236 75.1818 43.0975 75.6024 42.9503C75.1652 42.8295 74.7196 42.7416 74.2693 42.6875C73.8488 42.6013 73.731 42.3342 73.9938 41.9515C74.1284 41.7539 74.2504 41.5499 74.4543 41.2303L75.2197 41.4196L75.2743 41.3144L74.2861 40.7152ZM101.62 44.3086L101.364 44.3338C101.347 44.4946 101.347 44.6567 101.364 44.8174C101.477 45.3095 101.587 45.8036 101.747 46.2788C101.871 46.6488 101.902 47.0042 101.467 47.0652C101.307 47.0862 101.032 46.7245 100.916 46.4869C100.762 46.106 100.636 45.7146 100.537 45.3158L100.401 45.3305C100.191 46.0286 99.9698 46.7266 99.7427 47.4647C100.155 47.5971 100.591 47.6349 101.02 47.5752C101.448 47.5155 101.858 47.3599 102.218 47.1198C102.287 47.0657 102.343 46.9956 102.379 46.9154C102.416 46.8352 102.432 46.7474 102.428 46.6593C102.186 45.8624 101.894 45.0845 101.618 44.3044L101.62 44.3086ZM100.464 43.6925C101.076 43.6925 101.463 43.272 101.454 42.6181C101.454 41.9978 101.059 41.5668 100.521 41.5668C100.376 41.5597 100.232 41.5814 100.095 41.6305C99.9593 41.6796 99.8342 41.7553 99.7274 41.853C99.6207 41.9508 99.5344 42.0687 99.4735 42.2C99.4126 42.3314 99.3783 42.4734 99.3726 42.6181C99.3703 42.7608 99.397 42.9025 99.4511 43.0346C99.5053 43.1666 99.5858 43.2863 99.6877 43.3862C99.7896 43.4861 99.9108 43.5643 100.044 43.6159C100.177 43.6674 100.319 43.6914 100.462 43.6862L100.464 43.6925ZM85.0453 48.4382L84.9465 48.3246C82.7765 50.5787 80.6073 52.8334 78.4388 55.0888C78.5037 55.113 78.5744 55.1173 78.6418 55.1012C78.7092 55.0851 78.7703 55.0493 78.8173 54.9984C80.0789 53.7368 81.3278 52.4647 82.5726 51.1863C82.9279 50.8205 83.2496 50.4294 83.7438 51.037L85.0453 48.4382ZM80.8169 42.9146C81.6075 43.4781 82.5831 43.2005 83.1803 43.804L83.1193 44.0142L81.475 43.825C81.8169 44.086 82.1872 44.3075 82.5789 44.4852C83.0856 44.7649 83.3653 44.5336 83.4914 44.0773C83.7417 43.2094 83.6845 42.2817 83.3295 41.4511L82.5053 41.6467C82.7156 41.8254 82.9448 42.0188 83.1739 42.2123C82.8943 42.3763 82.6336 42.6076 82.3329 42.6896C81.8318 42.7937 81.3248 42.8667 80.8148 42.9082L80.8169 42.9146ZM87.5453 57.6099C88.8342 58.4173 90.2241 58.329 91.3301 57.387C91.0399 56.773 90.7434 56.1443 90.4449 55.5156L90.2346 55.6145C90.4564 56.0513 90.6475 56.5031 90.8065 56.9665C90.8591 57.1515 90.6698 57.4059 90.5962 57.6288C90.4091 57.5258 90.1589 57.4669 90.0475 57.3113C89.8205 56.942 89.6202 56.5569 89.4482 56.159C89.3662 56.6973 89.3704 57.0274 89.2527 57.3029C89.1622 57.5131 88.9183 57.6708 88.7417 57.8517C88.6156 57.6288 88.3927 57.4101 88.3864 57.1851C88.4074 56.7461 88.4636 56.3094 88.5546 55.8794L88.4452 55.85C88.132 56.4177 87.8418 56.9917 87.5348 57.6036L87.5453 57.6099ZM78.504 28.7176L78.4178 28.8206L80.0852 30.3955C80.327 30.6268 80.6781 30.9043 80.2954 31.2071C80.1567 31.3164 79.6899 31.1608 79.4754 30.9968C78.9645 30.5994 78.525 30.1116 78.0351 29.6869C77.9174 29.5839 77.7134 29.5838 77.5473 29.5376L77.4863 29.7205L80.901 32.721C80.8652 31.9136 80.8421 31.2912 80.8043 30.6709C80.8016 30.5578 80.7566 30.4497 80.6781 30.3681C79.9443 29.7962 79.2147 29.2579 78.4893 28.7113L78.504 28.7176ZM88.256 32.8282C88.3939 32.8366 88.5321 32.8155 88.6612 32.7663C88.7903 32.717 88.9075 32.6408 89.0048 32.5427C89.1021 32.4446 89.1774 32.3268 89.2255 32.1973C89.2737 32.0678 89.2937 31.9295 89.2842 31.7916C89.2716 31.3248 89.1265 30.9043 88.5903 30.8559C88.4393 30.8417 88.2869 30.8589 88.1428 30.9064C87.9986 30.954 87.8659 31.0308 87.753 31.1321C87.64 31.2334 87.5492 31.357 87.4863 31.4951C87.4235 31.6332 87.3899 31.7829 87.3876 31.9346C87.3851 32.049 87.4052 32.1627 87.4468 32.2693C87.4884 32.3759 87.5507 32.4732 87.63 32.5557C87.7093 32.6382 87.8042 32.7041 87.9091 32.7498C88.014 32.7955 88.1269 32.82 88.2413 32.8219L88.256 32.8282ZM90.529 53.7915C90.5246 53.5553 90.436 53.3284 90.2791 53.1518C90.1221 52.9752 89.9072 52.8605 89.6732 52.8285C89.1896 52.7339 88.6765 53.2995 88.687 53.8461C88.6976 54.3928 88.9436 54.7713 89.547 54.7839C89.677 54.7849 89.8058 54.7595 89.9257 54.7092C90.0455 54.6589 90.1539 54.5849 90.2444 54.4915C90.3348 54.3982 90.4053 54.2874 90.4517 54.166C90.4981 54.0446 90.5194 53.915 90.5142 53.7852L90.529 53.7915ZM89.1959 49.7712C89.444 49.5862 89.7194 49.233 89.9045 49.275C90.4238 49.3928 90.2619 49.8343 90.1778 50.2212C90.0937 50.6081 90.0601 50.9845 90.0033 51.365H90.0706C90.379 50.6754 90.6881 49.9871 90.9978 49.3003C89.751 48.6695 88.3296 48.7956 87.4822 49.5988L88.3233 51.098C88.3329 50.6371 88.3188 50.176 88.2812 49.7166C88.2812 49.5442 88.4242 49.2519 88.5504 49.2246C88.6765 49.1972 88.9204 49.357 89.0697 49.4832C89.1665 49.561 89.1791 49.7313 89.1959 49.7712ZM87.0197 54.7881L85.9263 54.3844L86.616 53.4992C86.4709 53.3394 85.6887 53.5455 86.0798 52.7549L85.4364 52.6203V55.7175L87.0197 54.7881ZM101.738 37.5297C100.43 37.3026 99.2696 37.2816 98.1216 37.9082L99.0657 39.3022C99.1089 39.1136 99.1053 38.9172 99.0551 38.7303C98.9942 38.3855 98.6493 37.9418 99.2086 37.7568C99.7679 37.5718 99.7448 38.1437 99.9109 38.4507C99.9298 38.4822 99.9866 38.4948 99.9404 38.4696L100.598 37.8619L101.139 38.8333L101.738 37.5297ZM68.3293 40.2884L68.3798 40.5196L70.4824 40.7573L71.048 38.9006L68.3293 40.2884ZM77.8059 40.9192L77.93 40.896C77.8606 40.4587 77.7723 40.0255 77.7302 39.5861C77.7008 39.2539 77.2655 38.7892 77.8732 38.6147C78.4809 38.4401 78.4409 39.0352 78.5776 39.3842C78.5902 39.4179 78.6322 39.4368 78.6764 39.4767L79.2946 38.3098C78.4304 38.0491 77.5767 37.9986 76.7588 38.5032L77.8059 40.9192ZM93.3423 97.2424C93.2624 97.5515 93.1783 97.8249 93.132 98.1024C93.09 98.3127 93.0038 98.5776 93.0837 98.7521C93.3633 99.3829 93.7145 99.9822 94.0656 100.674H94.8457L93.3423 97.2424ZM78.4136 43.6358C78.7815 43.2741 79.1201 43.0323 79.324 42.7043C79.4081 42.5655 79.2757 42.1807 79.1138 42.0293C78.7584 41.6824 78.422 41.8927 78.1339 42.1976C78.1045 42.2291 78.0309 42.2249 78.0078 42.2585C77.8585 42.4835 77.5515 42.7821 77.6125 42.9272C77.7281 43.1774 78.0519 43.3372 78.4178 43.6358H78.4136ZM101.637 34.1949C102.07 34.3316 102.527 34.4451 102.96 34.6155C103.355 34.7732 103.487 34.5692 103.569 34.2559C103.742 33.5894 103.3 33.2656 102.798 32.8997L101.637 34.1949ZM83.0415 54.1258L82.8312 53.9597C81.9775 54.8596 81.1176 55.7532 80.2807 56.6679C80.1651 56.794 80.1588 57.019 80.102 57.1978L80.3858 57.3618C80.9704 56.0308 82.602 55.5766 83.0457 54.1258H83.0415ZM85.0306 33.2298L84.3998 33.0721L85.0453 32.4792C84.7567 32.4036 84.4753 32.303 84.2042 32.1785C84.1685 32.1617 84.3241 31.758 84.3872 31.5477L83.9393 31.1882L84.6584 30.8496C83.9645 30.734 83.7206 30.8244 83.6575 31.3501C83.5903 31.7516 83.6059 32.1627 83.7035 32.5579C83.8012 32.9532 83.9787 33.3242 84.2253 33.6482L85.0306 33.2298ZM105.231 41.531L103.784 41.9684C104.013 42.084 104.247 42.0399 104.429 42.1177C104.61 42.2307 104.771 42.3727 104.905 42.5382C104.765 42.6963 104.602 42.8324 104.421 42.9419C104.232 43.0197 104.001 42.9881 103.62 43.0155L105.031 43.3603L104.987 43.6421L104.146 43.7577L105.235 44.1782L105.231 41.531ZM90.4869 23.0678C90.1778 22.0922 89.8877 21.1754 89.5996 20.2713L89.423 20.3112C89.423 20.9673 89.4608 21.6275 89.4125 22.2814C89.3578 23.0131 89.6984 23.2003 90.4869 23.0678ZM97.1859 26.6822L97.0303 26.5287C96.7967 26.787 96.5374 27.0209 96.2565 27.2268C96.0463 27.3487 95.7624 27.3235 95.5101 27.3635C95.5564 27.1175 95.5374 26.8294 95.6657 26.6402C95.9113 26.327 96.1813 26.0339 96.4731 25.7634L96.2986 25.5931L95.0076 26.6444L95.5479 28.5073L97.1859 26.6822ZM102.022 31.8379L99.5409 34.0961H101.126C100.594 33.0595 102.215 32.9312 102.022 31.8379ZM98.9837 34.2328C98.9164 34.0225 98.7734 33.7807 98.8344 33.7197C99.6018 32.8787 100.397 32.0565 101.21 31.1966C101.16 31.1629 100.966 31.0136 100.95 31.0305C99.8983 32.1449 98.8785 33.274 97.8482 34.3947L97.9618 34.525L98.9837 34.2328ZM98.3991 54.2225L98.5421 54.0858L95.7729 50.4378C95.8108 51.1401 95.9622 51.6825 96.5635 52.1451C97.2847 52.696 97.7978 53.5181 98.3991 54.2225ZM104.347 35.2988C104.486 35.4334 104.577 35.528 104.581 35.5238C105.432 34.7858 106.278 34.0414 107.188 33.2424L106.448 32.7399C105.651 33.5641 105.71 34.9876 104.347 35.2904V35.2988ZM86.883 52.0316L87.6105 52.2629C87.478 51.3083 87.1732 50.5997 86.4456 50.0971C86.5739 50.6985 86.7085 51.2999 86.883 52.0316ZM80.8484 29.4661L81.0587 29.2958C80.7391 28.5578 79.9884 28.1982 79.4355 27.6705C79.3892 27.6284 79.1642 27.7756 78.9308 27.8807C79.6352 28.4674 80.2387 28.9657 80.84 29.4661H80.8484ZM93.2266 19.098L93.1993 19.1989C94.1034 19.4765 95.0013 19.7772 95.9159 20.0148C96.082 20.0568 96.3133 19.8529 96.6308 19.7099C96.5165 19.6385 96.3962 19.5773 96.2713 19.5269L93.2266 19.098ZM82.9931 56.1044L81.0692 57.9568C82.028 57.6814 82.7934 56.9202 82.9847 56.1002L82.9931 56.1044ZM81.3531 53.9218C79.5763 55.4273 79.2504 55.8331 79.4081 56.3567L81.3531 53.9218ZM92.2868 33.049V31.5919L92.1038 31.5477C92.1669 32.1785 91.8494 32.456 91.2838 32.5675L92.2868 33.049ZM96.2208 53.024L96.0105 53.1838C96.4941 54.0501 97.3983 54.5463 98.1132 55.2192L96.2208 53.024ZM81.0335 25.6036C80.6718 26.1545 80.962 26.5876 81.8745 27.0355C82.1668 26.207 81.3131 26.1397 81.0335 25.6036ZM79.1937 40.9717C79.8476 40.2652 80.2029 39.0962 79.9443 38.6273L79.1937 40.9717ZM99.5535 44.9814C98.7818 46.1337 98.6388 46.6299 98.9416 47.0504L99.5535 44.9814ZM92.0344 52.8348L92.0534 52.9378L93.4033 52.8537L93.2561 52.2229L92.0344 52.8348ZM91.8873 53.9555C93.2603 54.3466 93.2939 54.3382 93.2477 53.6317L91.8873 53.9555Z" fill="#DEB646"/>
<path d="M64.0082 36.5078C63.8126 35.5175 63.6108 34.5271 63.4215 33.5347C63.3576 33.3028 63.3355 33.0615 63.3564 32.8219C63.3787 32.7355 63.4218 32.6559 63.4819 32.59C63.542 32.524 63.6173 32.4737 63.7012 32.4434C63.7878 32.4537 63.8705 32.4854 63.9417 32.5357C64.0129 32.586 64.0705 32.6533 64.1091 32.7315C64.2521 33.0994 64.3194 33.4968 64.5738 33.8732C64.5473 33.4528 64.5536 33.031 64.5927 32.6116C64.6242 32.4119 64.8639 32.2458 65.0132 32.0649C65.1646 32.2437 65.4211 32.4098 65.4464 32.6053C65.5074 33.0994 65.4674 33.6083 65.6209 34.1339C65.6454 33.8977 65.7035 33.6662 65.7933 33.4464C65.9426 33.2429 66.1179 33.0598 66.3148 32.9018C66.4262 33.1541 66.647 33.4127 66.6323 33.6566C66.5768 34.159 66.4754 34.6551 66.3295 35.139C65.8438 37.0103 65.9342 38.9111 66.0309 40.8161C66.0667 41.531 66.0982 42.2102 66.5503 42.862C66.8257 43.2573 66.8089 43.8691 66.8783 44.3885C66.935 44.809 66.9266 45.2506 66.9519 45.7762C67.631 45.5365 67.7193 45.9528 67.7509 46.4322C67.8139 47.3931 67.8896 48.352 67.9422 49.3129C67.9801 49.9436 67.488 50.2422 67.0402 50.4966C66.2244 50.9634 65.3707 51.3608 64.5422 51.8024C64.0923 52.0421 63.7622 51.9243 63.4909 51.5227C62.8875 50.6228 62.2504 49.7439 61.6995 48.8124C61.6252 48.6602 61.5842 48.4939 61.5791 48.3246C61.5741 48.1553 61.605 47.9869 61.67 47.8305C62.0269 47.146 62.4405 46.4926 62.9064 45.8772C63.0368 45.7005 63.3669 45.6669 63.6045 45.5723C63.6171 45.8225 63.7222 46.119 63.6255 46.3103C63.3395 46.8654 62.94 47.3616 62.6562 47.9167C62.6065 48.034 62.5827 48.1607 62.5863 48.288C62.5899 48.4154 62.6209 48.5404 62.6772 48.6547C63.144 49.4096 63.6718 50.1266 64.2416 50.9529C65.0826 50.5156 65.9868 50.1119 66.8089 49.5904C67.0192 49.46 66.9939 48.9596 67.0612 48.6947C66.4977 48.1879 65.2656 49.4832 65.2887 47.8747C65.2761 48.0092 65.3076 48.169 65.2424 48.2699C65.0912 48.4739 64.9269 48.6677 64.7504 48.8503C64.6264 48.64 64.3951 48.4445 64.3972 48.2426C64.4119 46.4343 64.4602 44.6261 64.5233 42.8199C64.5233 42.5949 64.6116 42.2774 64.7714 42.1702C65.2992 41.817 65.152 41.3628 65.11 40.978L60.4106 42.412C60.2949 42.4478 60.1625 42.5171 60.0615 42.4877C59.7756 42.4036 59.5022 42.2774 59.2205 42.166C59.4476 41.9831 59.641 41.7202 59.9059 41.634C60.4589 41.4532 61.0393 41.3628 61.6091 41.2345L61.5754 41.0348C60.8395 41.0831 60.1036 41.1651 59.3677 41.1588C59.1175 41.1588 58.6822 40.9654 58.6528 40.8035C58.5666 40.3388 58.9787 40.3199 59.3319 40.3031C60.3496 40.2568 61.3673 40.2 62.3849 40.1454L62.3955 39.9246C61.7226 39.8699 61.0498 39.8047 60.3748 39.7669C60.0889 39.7522 59.7861 39.8531 59.5127 39.7942C59.3025 39.7501 59.1217 39.5398 58.9282 39.4031C59.0764 39.2444 59.2489 39.1103 59.4392 39.0057C59.7765 38.9194 60.1204 38.861 60.4673 38.8312C59.8366 38.3728 59.334 37.9733 58.7852 37.6222C58.6927 37.5633 58.4173 37.6643 58.31 37.7736C57.387 38.6903 56.4681 39.6134 55.5892 40.5743C55.5298 40.6833 55.4986 40.8055 55.4986 40.9297C55.4986 41.0538 55.5298 41.176 55.5892 41.285C56.2873 42.2354 57.0611 43.1374 57.7634 44.0794C58.0388 44.4453 58.289 44.3906 58.6254 44.2119C59.5401 43.7283 60.4526 43.2341 61.3967 42.8094C61.6259 42.7064 61.9707 42.8599 62.263 42.8956C62.1032 43.1206 61.9939 43.4381 61.7752 43.5558C60.6776 44.1572 59.5632 44.7375 58.4215 45.2379C58.2644 45.2851 58.0981 45.2931 57.9372 45.2612C57.7763 45.2293 57.6257 45.1585 57.4984 45.055C56.4821 43.8537 55.4988 42.6082 54.5484 41.3186C54.476 41.1712 54.4415 41.008 54.4481 40.8439C54.4547 40.6798 54.5022 40.5199 54.5863 40.3788C55.7385 39.1172 56.9433 37.8955 58.1607 36.697C58.2995 36.5625 58.6654 36.5667 58.8883 36.634C59.1564 36.7427 59.4028 36.8986 59.6158 37.0944C60.9804 38.1836 62.3366 39.2791 64.0965 39.6996C64.4287 39.7795 64.7168 40.036 65.0637 40.2316V37.2227L64.8661 37.3531L63.9935 36.4931L64.0082 36.5078Z" fill="#DEB646"/>
<path d="M63.9964 36.4932C63.435 37.0966 63.1554 37.0462 62.8316 36.2829C62.4363 35.3262 62.0515 34.3632 61.6373 33.4149C61.4102 32.8977 61.4796 32.5171 61.9401 32.1533C62.718 31.5436 63.4456 30.8749 64.2151 30.261C64.9847 29.647 65.6428 29.6554 66.2652 30.3577C66.9938 31.2199 67.6787 32.1182 68.3174 33.0491C68.3649 33.1419 68.3934 33.2433 68.401 33.3473C68.4085 33.4514 68.3951 33.5559 68.3615 33.6546C68.0377 34.6113 67.7055 35.568 67.3102 36.4974C67.2177 36.7076 66.8897 36.8359 66.6584 36.9999C66.6037 36.7371 66.4481 36.4427 66.5175 36.2156C66.7425 35.4566 67.0621 34.7249 67.3102 33.9721C67.3901 33.7345 67.4763 33.3876 67.3649 33.2194C66.8533 32.435 66.2848 31.6894 65.6638 30.9885C65.5145 30.8245 64.9384 30.8287 64.7219 30.9885C63.9919 31.541 63.2902 32.1298 62.6192 32.7526C62.5309 32.8325 62.4363 33.0259 62.472 33.1121C62.9683 34.2518 63.4855 35.3809 64.0007 36.5142L63.9964 36.4932Z" fill="#DEB646"/>
<path d="M88.1331 11.4509C88.1331 10.5867 88.0995 9.71836 88.1521 8.85628C88.1689 8.58504 88.3918 8.12456 88.5726 8.10144C89.0835 8.03415 88.9826 8.50514 88.9931 8.82264C88.9931 9.92862 88.9931 11.0346 89.1151 12.1595C89.237 11.3332 89.3253 10.5005 89.4957 9.68682C89.5503 9.42399 89.8405 8.99085 89.9877 9.00557C90.4671 9.04972 90.4082 9.44291 90.3451 9.84662C90.1811 10.7592 90.0697 11.6822 89.9351 12.6011L90.1328 12.6852C90.6605 11.903 91.1988 11.1292 91.6992 10.3302C91.756 10.2377 91.653 9.95806 91.5415 9.85714C90.4061 8.81633 89.2517 7.79445 88.0322 6.70318C87.2038 7.63675 86.4447 8.59556 85.5742 9.43661C84.9434 10.0674 84.8383 10.5783 85.3009 11.3584C85.8122 12.287 86.261 13.2486 86.6445 14.2369C86.7265 14.4325 86.573 14.7268 86.5267 14.9749C86.3165 14.8446 85.9948 14.7647 85.8959 14.5775C85.2441 13.2886 84.6154 11.985 84.0393 10.6603C83.9911 10.5147 83.9768 10.36 83.9975 10.208C84.0183 10.0561 84.0736 9.91086 84.1592 9.78354C85.242 8.49253 86.388 7.26038 87.4897 5.97568C87.8388 5.56987 88.089 5.55515 88.4885 5.93362C89.7206 7.08586 90.9745 8.21358 92.2501 9.31676C92.7968 9.78985 92.9713 10.202 92.4456 10.8201C92.0125 11.3311 91.7202 11.9619 91.2976 12.4833C90.4713 13.4968 90.0991 14.71 89.6744 15.9085C89.4914 16.43 89.2538 17.086 88.5999 16.9809C87.946 16.8757 87.7021 16.2428 87.6264 15.5574C87.4161 13.6208 87.1344 11.6906 86.9115 9.7541C86.8842 9.52702 87.0019 9.1107 87.1365 9.07075C87.578 8.94038 87.6811 9.28101 87.7273 9.66369C87.7988 10.2566 87.8998 10.8475 87.9881 11.4383L88.1331 11.4509Z" fill="#DEB646"/>
<path d="M83.5586 16.4572C83.2259 16.2023 82.9112 15.9248 82.6166 15.6267C82.4947 15.4921 82.522 15.225 82.4821 15.0169C82.6923 14.998 82.9825 14.8802 83.1128 14.9748C83.902 15.5243 84.666 16.1068 85.4047 16.7221C85.4696 16.8081 85.5115 16.9093 85.5262 17.0161C85.5409 17.1228 85.528 17.2315 85.4888 17.3319C85.3479 17.5295 85.0347 17.7524 84.8349 17.7314C83.5565 17.5211 82.2844 17.2709 81.0228 16.985C80.8399 16.9429 80.7158 16.6485 80.5645 16.4698C80.7747 16.3563 80.985 16.1229 81.1679 16.146C81.9459 16.2469 82.7133 16.4257 83.4808 16.5665L83.5586 16.4572Z" fill="#DEB646"/>
<path d="M83.0427 18.7175C82.4119 18.686 81.7938 18.6839 81.1756 18.604C80.9653 18.5788 80.7929 18.3559 80.6016 18.2213C80.7782 18.0741 80.9527 17.8008 81.1293 17.8008C82.4245 17.8008 83.7191 17.8337 85.0129 17.8996C85.1916 17.9101 85.3577 18.1919 85.5301 18.3496C85.3472 18.4883 85.1748 18.7322 84.9835 18.747C84.34 18.7974 83.6882 18.7659 83.0406 18.7659L83.0427 18.7175Z" fill="#DEB646"/>
<path d="M118.662 47.5006C118.292 47.3828 117.985 47.3155 117.703 47.1915C116.36 46.5985 115.022 45.9958 113.689 45.3832C113.403 45.2508 112.932 45.1309 113.203 44.6999C113.304 44.5422 113.815 44.5022 114.061 44.601C115.441 45.1645 116.795 45.7764 118.161 46.3904C118.534 46.5607 118.836 46.5649 119.126 46.239C119.928 45.3412 120.741 44.4539 121.542 43.5581C121.923 43.1376 121.828 42.8075 121.332 42.5068C120.386 41.9328 119.44 41.342 118.529 40.7238C118.294 40.5554 118.015 40.457 117.726 40.4399C117.437 40.4228 117.149 40.4877 116.896 40.6271C115.956 41.0602 115.022 41.5081 114.061 41.8886C113.809 41.9875 113.306 41.9685 113.199 41.8129C112.911 41.3924 113.367 41.2536 113.66 41.1212C114.644 40.6712 115.638 40.2402 116.626 39.7986C117.005 39.6098 117.428 39.5284 117.849 39.5633C118.271 39.5981 118.675 39.7479 119.017 39.9963C120.02 40.6649 121.057 41.2789 122.051 41.9538C122.92 42.5426 123.046 43.1481 122.377 43.9492C121.452 45.0552 120.449 46.1002 119.446 47.1368C119.263 47.3429 118.914 47.3933 118.662 47.5006Z" fill="#DEB646"/>
<path d="M93.2809 59.7314C94.0378 59.742 94.4584 60.3097 94.2481 61.0477C94.1808 61.279 94.0736 61.4977 94.0063 61.7268C93.8717 62.1852 93.6762 62.6478 94.2523 62.9884C94.3722 63.0578 94.3764 63.3038 94.4836 63.4237C94.834 63.8249 95.2061 64.2067 95.598 64.5675C95.8338 64.7356 96.0877 64.8766 96.3549 64.988C98.4281 66.0856 97.9572 68.0558 97.0656 69.3573C96.9077 69.6208 96.6655 69.8234 96.3782 69.9321C96.0908 70.0409 95.7752 70.0495 95.4824 69.9566C94.1881 69.5902 92.9136 69.1572 91.664 68.6592C90.5159 68.1798 90.3456 67.1664 91.1215 66.1781C91.1635 66.1235 91.2413 66.0625 91.2371 66.0099C91.1593 65.0427 91.2918 63.983 90.9344 63.1293C90.3204 61.6533 91.0332 59.742 93.2809 59.7314ZM93.4113 60.7554C92.1202 60.5599 91.336 61.3463 91.706 62.366C92.0488 63.3101 92.2885 64.2101 92.0656 65.2319C92.0151 65.4611 92.4335 65.9763 92.7237 66.0604C93.2073 66.1992 93.5206 65.7954 93.5648 65.3139C93.5898 65.0285 93.5503 64.741 93.4491 64.4729C92.9907 63.2555 92.6375 62.0507 93.4113 60.7554Z" fill="#DEB646"/>
<path d="M89.8474 65.7515C89.8474 67.1715 89.8474 68.5914 89.8474 70.0114C89.8474 70.3436 89.9021 70.7831 89.3996 70.7095C89.2293 70.6822 89.0001 70.2763 88.9959 70.0387C88.9433 67.1771 88.9244 64.3133 88.9055 61.4495C88.9055 61.0962 88.8571 60.621 89.3828 60.6862C89.5615 60.7094 89.8033 61.1593 89.8138 61.4221C89.8559 62.8646 89.8348 64.3091 89.8348 65.7515H89.8474Z" fill="#DEB646"/>
<path d="M90.1234 95.3629C90.0814 95.817 90.0667 96.2754 89.9889 96.7233C89.89 97.2868 89.5894 97.7157 88.967 97.7746C88.3446 97.8335 87.7664 97.6568 87.5414 97.0345C87.3606 96.5319 87.1966 95.9369 87.2954 95.4365C87.5603 94.074 87.9535 92.7346 88.3467 91.3973C88.394 91.2989 88.4655 91.2141 88.5545 91.1509C88.6435 91.0876 88.7471 91.048 88.8555 91.0356C88.9593 91.0696 89.0534 91.128 89.1299 91.206C89.2064 91.2839 89.263 91.3791 89.295 91.4835C89.623 92.7598 89.909 94.0466 90.2096 95.3292L90.1234 95.3629ZM88.9207 93.1067H88.6936C88.4014 94.1581 87.9577 95.1947 88.2227 96.3301C88.2647 96.513 88.496 96.6518 88.6432 96.8116C88.8198 96.6549 88.9869 96.4878 89.1436 96.3112C89.2076 96.2075 89.2336 96.0849 89.2172 95.9642C89.1247 95.0075 89.0217 94.0571 88.9207 93.1067Z" fill="#DEB646"/>
<path d="M88.898 89.5551C88.3681 89.5551 87.8362 89.5866 87.3126 89.5383C87.1276 89.5193 86.9636 89.3049 86.7891 89.1808C86.9594 89.0189 87.1192 88.7288 87.3 88.714C88.3787 88.6215 89.4615 88.5732 90.5444 88.5605C90.7378 88.5605 90.9334 88.796 91.1289 88.9243C90.9376 89.0904 90.7651 89.3638 90.5549 89.3995C90.005 89.4656 89.4518 89.5 88.898 89.5025V89.5551Z" fill="#DEB646"/>
</svg>
