<svg width="530" height="793" viewBox="0 0 530 793" fill="none" xmlns="http://www.w3.org/2000/svg">
<rect y="0.879883" width="530" height="792" rx="30" fill="white"/>
<path d="M174.133 96.8799H170.969V78.1199H178.641C182.589 78.1199 185.669 80.1359 185.669 84.6159C185.669 88.8999 182.617 90.9439 178.641 90.9439H174.133V96.8799ZM178.333 80.9199H174.133V88.1439H178.333C180.489 88.1439 182.393 87.3319 182.393 84.6159C182.393 81.7039 180.489 80.9199 178.333 80.9199ZM194.895 97.1599C190.835 97.1599 188.175 94.3319 188.175 90.0759C188.175 85.7919 190.835 82.9639 194.671 82.9639C198.759 82.9639 201.027 85.6799 201.027 89.4599C201.027 89.9639 200.971 90.5519 200.915 90.8319H191.171C191.339 93.2679 192.767 94.5839 194.923 94.5839C197.303 94.5839 198.367 93.3519 198.871 92.2039L200.803 94.2199C199.767 95.7879 197.919 97.1599 194.895 97.1599ZM194.671 85.4839C192.739 85.4839 191.451 86.6039 191.199 88.8159H198.199C197.975 86.6599 196.743 85.4839 194.671 85.4839ZM208.032 96.8799H204.896V83.2439H208.032V87.1079C208.536 84.9239 209.908 82.9639 212.344 82.9639C214.052 82.9639 215.312 84.0839 215.312 86.0999C215.312 87.4159 214.948 88.3959 214.696 88.8159H211.476C211.924 88.3679 212.344 87.4719 212.344 86.6879C212.344 85.9319 211.98 85.3159 211.056 85.3159C209.488 85.3159 208.032 87.1079 208.032 89.3759V96.8799ZM223.758 97.1599C220.846 97.1599 218.186 95.9839 217.15 93.8279L218.998 91.8679C219.754 93.2399 221.434 94.6399 223.87 94.6399C225.214 94.6399 226.082 94.1639 226.082 93.1839C226.082 92.1759 225.046 91.8399 223.534 91.4759L221.714 91.0279C219.558 90.5239 217.57 89.5719 217.57 87.0799C217.57 84.5319 219.614 82.9919 222.75 82.9919C225.662 82.9919 227.706 84.3919 228.546 85.9319L226.698 87.8919C225.746 86.3799 224.29 85.4839 222.526 85.4839C221.322 85.4839 220.51 85.9879 220.51 86.9119C220.51 87.8919 221.238 88.2559 223.086 88.7319L224.738 89.1519C227.79 89.9359 228.91 91.1679 228.91 93.1279C228.91 95.8159 226.642 97.1599 223.758 97.1599ZM237.978 97.1599C234.058 97.1599 231.37 94.3039 231.37 90.0759C231.37 85.8199 234.058 82.9639 237.978 82.9639C241.954 82.9639 244.642 85.8199 244.642 90.0759C244.642 94.3039 241.954 97.1599 237.978 97.1599ZM238.006 94.5559C240.05 94.5559 241.45 93.2119 241.45 90.0759C241.45 86.9119 240.05 85.5679 238.006 85.5679C235.99 85.5679 234.59 86.9119 234.59 90.0759C234.59 93.2119 235.99 94.5559 238.006 94.5559ZM251.588 96.8799H248.452V83.2439H251.588V86.9679C252.092 84.8119 253.492 82.9639 256.208 82.9639C258.868 82.9639 260.492 84.5599 260.492 87.3879V96.8799H257.328V88.3399C257.328 86.6599 256.768 85.5119 254.668 85.5119C252.372 85.5119 251.588 86.9959 251.588 89.2359V96.8799ZM267.741 97.1599C265.501 97.1599 264.157 95.8999 264.157 93.9399C264.157 92.0079 265.501 90.8319 267.713 89.9639L272.277 88.0319C272.165 86.6599 271.549 85.7359 269.673 85.7359C267.853 85.7359 266.425 86.7999 265.641 88.2279L263.765 85.9879C264.829 84.5319 266.957 82.9639 269.981 82.9639C273.369 82.9639 275.273 84.8959 275.273 88.2559V93.3799C275.273 93.9959 275.497 94.1919 276.001 94.1919H276.869V96.8799H274.937C273.481 96.8799 272.333 96.2079 272.333 94.2479V93.2399C271.913 95.0319 270.597 97.1599 267.741 97.1599ZM267.181 93.4639C267.181 94.2479 267.713 94.7239 268.861 94.7239C270.933 94.7239 272.333 93.4919 272.333 91.6439V90.1879L268.833 91.7559C267.657 92.2879 267.181 92.7639 267.181 93.4639ZM283.523 96.8799H280.387V78.1199H283.523V96.8799ZM291.096 81.3119H287.96V78.1199H291.096V81.3119ZM291.096 96.8799H287.96V83.2439H291.096V96.8799ZM306.789 96.8799H294.749V94.4439L300.881 87.6119L302.897 85.7639L299.705 85.9319H295.253V83.2439H306.509V85.6799L300.377 92.3159L298.221 94.3599L301.749 94.2199H306.789V96.8799ZM312.99 97.1599C310.75 97.1599 309.406 95.8999 309.406 93.9399C309.406 92.0079 310.75 90.8319 312.962 89.9639L317.526 88.0319C317.414 86.6599 316.798 85.7359 314.922 85.7359C313.102 85.7359 311.674 86.7999 310.89 88.2279L309.014 85.9879C310.078 84.5319 312.206 82.9639 315.23 82.9639C318.618 82.9639 320.522 84.8959 320.522 88.2559V93.3799C320.522 93.9959 320.746 94.1919 321.25 94.1919H322.118V96.8799H320.186C318.73 96.8799 317.582 96.2079 317.582 94.2479V93.2399C317.162 95.0319 315.846 97.1599 312.99 97.1599ZM312.43 93.4639C312.43 94.2479 312.962 94.7239 314.11 94.7239C316.182 94.7239 317.582 93.4919 317.582 91.6439V90.1879L314.082 91.7559C312.906 92.2879 312.43 92.7639 312.43 93.4639ZM330.209 97.1879C327.633 97.1879 326.149 95.5639 326.149 93.1559V85.6799H324.021V83.2439H326.149V81.5919L329.285 79.6039V83.2439H333.457V85.6799H329.285V92.3999C329.285 93.8839 329.985 94.2479 330.909 94.2479C331.973 94.2479 332.757 93.3799 333.149 92.5959L334.129 95.3959C333.541 96.2639 332.197 97.1879 330.209 97.1879ZM340.502 81.3119H337.366V78.1199H340.502V81.3119ZM340.502 96.8799H337.366V83.2439H340.502V96.8799ZM350.679 97.1599C346.759 97.1599 344.071 94.3039 344.071 90.0759C344.071 85.8199 346.759 82.9639 350.679 82.9639C354.655 82.9639 357.343 85.8199 357.343 90.0759C357.343 94.3039 354.655 97.1599 350.679 97.1599ZM350.707 94.5559C352.751 94.5559 354.151 93.2119 354.151 90.0759C354.151 86.9119 352.751 85.5679 350.707 85.5679C348.691 85.5679 347.291 86.9119 347.291 90.0759C347.291 93.2119 348.691 94.5559 350.707 94.5559ZM364.289 96.8799H361.153V83.2439H364.289V86.9679C364.793 84.8119 366.193 82.9639 368.909 82.9639C371.569 82.9639 373.193 84.5599 373.193 87.3879V96.8799H370.029V88.3399C370.029 86.6599 369.469 85.5119 367.369 85.5119C365.073 85.5119 364.289 86.9959 364.289 89.2359V96.8799Z" fill="black"/>
<path d="M96.1361 489.204H94.0267V474.192H88.6947V472.294H101.468V474.192H96.1361V489.204ZM104.444 489.204V472.294H106.483V478.962H106.53C107.209 477.603 108.545 476.806 110.397 476.806C113.069 476.806 114.686 478.61 114.686 481.329V489.204H112.647V481.704C112.647 479.771 111.674 478.61 109.764 478.61C107.737 478.61 106.483 479.993 106.483 482.103V489.204H104.444ZM123.123 478.575C121.212 478.575 119.876 480.04 119.748 482.067H126.369C126.322 480.028 125.044 478.575 123.123 478.575ZM126.322 485.712H128.326C127.974 487.845 125.912 489.415 123.251 489.415C119.759 489.415 117.638 486.989 117.638 483.157C117.638 479.372 119.794 476.806 123.158 476.806C126.451 476.806 128.478 479.196 128.478 482.888V483.661H119.736V483.778C119.736 486.11 121.107 487.646 123.298 487.646C124.845 487.646 125.982 486.86 126.322 485.712ZM139.808 489.204H137.699V472.294H139.808V480.544H139.925L147.39 472.294H150.05L143.101 479.782L150.671 489.204H147.976L141.636 481.282L139.808 483.298V489.204ZM157.292 478.575C155.381 478.575 154.045 480.04 153.917 482.067H160.538C160.491 480.028 159.213 478.575 157.292 478.575ZM160.491 485.712H162.495C162.143 487.845 160.081 489.415 157.42 489.415C153.928 489.415 151.807 486.989 151.807 483.157C151.807 479.372 153.963 476.806 157.327 476.806C160.62 476.806 162.647 479.196 162.647 482.888V483.661H153.905V483.778C153.905 486.11 155.276 487.646 157.467 487.646C159.014 487.646 160.151 486.86 160.491 485.712ZM170.287 489.415C167.181 489.415 165.072 486.931 165.072 483.11C165.072 479.29 167.17 476.806 170.24 476.806C171.986 476.806 173.392 477.661 174.119 478.997H174.166V472.294H176.205V489.204H174.259V487.142H174.224C173.439 488.548 172.045 489.415 170.287 489.415ZM170.673 478.599C168.517 478.599 167.158 480.356 167.158 483.11C167.158 485.876 168.517 487.622 170.673 487.622C172.771 487.622 174.177 485.841 174.177 483.11C174.177 480.392 172.771 478.599 170.673 478.599ZM189.926 477.017V489.204H187.993V487.224H187.946C187.219 488.63 185.954 489.415 184.079 489.415C181.419 489.415 179.86 487.692 179.86 484.927V477.017H181.899V484.563C181.899 486.544 182.825 487.61 184.712 487.61C186.692 487.61 187.887 486.251 187.887 484.177V477.017H189.926ZM193.324 480.38C193.324 478.294 195.187 476.806 197.871 476.806C200.39 476.806 202.242 478.306 202.336 480.368H200.39C200.25 479.196 199.3 478.47 197.8 478.47C196.312 478.47 195.328 479.208 195.328 480.274C195.328 481.118 195.972 481.681 197.355 482.032L199.242 482.489C201.703 483.11 202.593 484.001 202.593 485.794C202.593 487.915 200.59 489.415 197.742 489.415C195.07 489.415 193.207 487.962 192.996 485.806H195.035C195.258 487.071 196.218 487.751 197.871 487.751C199.523 487.751 200.543 487.048 200.543 485.946C200.543 485.079 200.039 484.61 198.668 484.247L196.523 483.696C194.379 483.146 193.324 482.044 193.324 480.38ZM218.26 489.204H211.873V472.294H218.283C221.178 472.294 223.135 473.981 223.135 476.513C223.135 478.271 221.845 479.911 220.217 480.204V480.298C222.513 480.591 223.99 482.208 223.99 484.458C223.99 487.435 221.857 489.204 218.26 489.204ZM213.982 474.157V479.583H217.146C219.642 479.583 221.002 478.587 221.002 476.759C221.002 475.083 219.853 474.157 217.803 474.157H213.982ZM213.982 487.341H217.943C220.486 487.341 221.822 486.31 221.822 484.353C221.822 482.396 220.439 481.399 217.744 481.399H213.982V487.341ZM227.13 489.204V477.017H229.169V489.204H227.13ZM228.149 474.966C227.458 474.966 226.884 474.392 226.884 473.7C226.884 472.997 227.458 472.435 228.149 472.435C228.852 472.435 229.427 472.997 229.427 473.7C229.427 474.392 228.852 474.966 228.149 474.966ZM238.941 489.415C237.16 489.415 235.765 488.548 234.98 487.142H234.933V489.204H232.988V472.294H235.027V479.056H235.074C235.836 477.661 237.254 476.806 238.976 476.806C242.047 476.806 244.121 479.29 244.121 483.11C244.121 486.942 242.058 489.415 238.941 489.415ZM238.543 478.599C236.48 478.599 235.015 480.403 235.015 483.11C235.015 485.829 236.48 487.622 238.543 487.622C240.699 487.622 242.035 485.899 242.035 483.11C242.035 480.345 240.699 478.599 238.543 478.599ZM247.261 489.204V472.294H249.3V489.204H247.261ZM257.9 478.575C255.99 478.575 254.654 480.04 254.525 482.067H261.146C261.1 480.028 259.822 478.575 257.9 478.575ZM261.1 485.712H263.103C262.752 487.845 260.689 489.415 258.029 489.415C254.537 489.415 252.416 486.989 252.416 483.157C252.416 479.372 254.572 476.806 257.935 476.806C261.228 476.806 263.256 479.196 263.256 482.888V483.661H254.514V483.778C254.514 486.11 255.885 487.646 258.076 487.646C259.623 487.646 260.76 486.86 261.1 485.712ZM283.469 489.204L281.77 484.364H275.043L273.344 489.204H271.129L277.363 472.294H279.449L285.684 489.204H283.469ZM278.371 474.86L275.664 482.571H281.148L278.441 474.86H278.371ZM294.179 476.806C297.284 476.806 299.394 479.29 299.394 483.11C299.394 486.931 297.296 489.415 294.226 489.415C292.48 489.415 291.073 488.56 290.347 487.224H290.3V493.271H288.261V477.017H290.194V479.079H290.241C290.991 477.708 292.409 476.806 294.179 476.806ZM293.78 487.622C295.948 487.622 297.308 485.876 297.308 483.11C297.308 480.356 295.948 478.599 293.78 478.599C291.694 478.599 290.288 480.403 290.288 483.11C290.288 485.829 291.694 487.622 293.78 487.622ZM308.334 476.806C311.44 476.806 313.549 479.29 313.549 483.11C313.549 486.931 311.451 489.415 308.381 489.415C306.635 489.415 305.229 488.56 304.502 487.224H304.455V493.271H302.416V477.017H304.35V479.079H304.397C305.147 477.708 306.565 476.806 308.334 476.806ZM307.936 487.622C310.104 487.622 311.463 485.876 311.463 483.11C311.463 480.356 310.104 478.599 307.936 478.599C305.85 478.599 304.443 480.403 304.443 483.11C304.443 485.829 305.85 487.622 307.936 487.622ZM326.473 487.681C328.395 487.681 329.871 486.333 329.871 484.575V483.579L326.613 483.778C324.973 483.884 324.035 484.61 324.035 485.759C324.035 486.919 325.008 487.681 326.473 487.681ZM326.016 489.415C323.59 489.415 321.961 487.95 321.961 485.759C321.961 483.673 323.567 482.36 326.379 482.196L329.871 481.997V480.978C329.871 479.489 328.887 478.599 327.199 478.599C325.629 478.599 324.645 479.337 324.387 480.532H322.418C322.559 478.423 324.363 476.806 327.246 476.806C330.106 476.806 331.91 478.353 331.91 480.778V489.204H329.977V487.106H329.93C329.203 488.501 327.656 489.415 326.016 489.415ZM335.566 489.204V472.294H337.605V489.204H335.566ZM341.424 489.204V472.294H343.463V489.204H341.424ZM352.228 489.415C348.853 489.415 346.579 486.989 346.579 483.11C346.579 479.22 348.853 476.806 352.228 476.806C355.591 476.806 357.865 479.22 357.865 483.11C357.865 486.989 355.591 489.415 352.228 489.415ZM352.228 487.622C354.384 487.622 355.79 485.981 355.79 483.11C355.79 480.239 354.384 478.599 352.228 478.599C350.072 478.599 348.654 480.239 348.654 483.11C348.654 485.981 350.072 487.622 352.228 487.622ZM376.391 477.017L372.992 489.204H370.918L368.164 479.771H368.117L365.375 489.204H363.301L359.891 477.017H361.918L364.356 486.931H364.403L367.157 477.017H369.125L371.891 486.931H371.938L374.375 477.017H376.391ZM378.816 480.38C378.816 478.294 380.679 476.806 383.363 476.806C385.882 476.806 387.734 478.306 387.828 480.368H385.882C385.742 479.196 384.792 478.47 383.292 478.47C381.804 478.47 380.82 479.208 380.82 480.274C380.82 481.118 381.464 481.681 382.847 482.032L384.734 482.489C387.195 483.11 388.085 484.001 388.085 485.794C388.085 487.915 386.081 489.415 383.234 489.415C380.562 489.415 378.699 487.962 378.488 485.806H380.527C380.749 487.071 381.71 487.751 383.363 487.751C385.015 487.751 386.035 487.048 386.035 485.946C386.035 485.079 385.531 484.61 384.16 484.247L382.015 483.696C379.87 483.146 378.816 482.044 378.816 480.38ZM398.056 493.763C397.81 493.763 397.4 493.739 397.177 493.692V491.981C397.4 492.028 397.716 492.04 397.974 492.04C399.111 492.04 399.744 491.489 400.212 490.071L400.494 489.216L395.994 477.017H398.173L401.548 487.165H401.583L404.958 477.017H407.103L402.31 490.06C401.267 492.907 400.259 493.763 398.056 493.763ZM414.379 489.415C411.004 489.415 408.731 486.989 408.731 483.11C408.731 479.22 411.004 476.806 414.379 476.806C417.743 476.806 420.016 479.22 420.016 483.11C420.016 486.989 417.743 489.415 414.379 489.415ZM414.379 487.622C416.536 487.622 417.942 485.981 417.942 483.11C417.942 480.239 416.536 478.599 414.379 478.599C412.223 478.599 410.805 480.239 410.805 483.11C410.805 485.981 412.223 487.622 414.379 487.622ZM433.046 477.017V489.204H431.113V487.224H431.066C430.339 488.63 429.074 489.415 427.199 489.415C424.539 489.415 422.98 487.692 422.98 484.927V477.017H425.019V484.563C425.019 486.544 425.945 487.61 427.832 487.61C429.812 487.61 431.007 486.251 431.007 484.177V477.017H433.046ZM443.193 474.075H445.232V477.017H447.599V478.692H445.232V485.935C445.232 487.048 445.701 487.552 446.744 487.552C446.978 487.552 447.447 487.517 447.588 487.493V489.204C447.341 489.263 446.779 489.298 446.298 489.298C444.06 489.298 443.193 488.384 443.193 486.04V478.692H441.377V477.017H443.193V474.075ZM455.438 489.415C452.063 489.415 449.79 486.989 449.79 483.11C449.79 479.22 452.063 476.806 455.438 476.806C458.801 476.806 461.075 479.22 461.075 483.11C461.075 486.989 458.801 489.415 455.438 489.415ZM455.438 487.622C457.594 487.622 459.001 485.981 459.001 483.11C459.001 480.239 457.594 478.599 455.438 478.599C453.282 478.599 451.864 480.239 451.864 483.11C451.864 485.981 453.282 487.622 455.438 487.622ZM116.127 516.806C119.233 516.806 121.342 519.29 121.342 523.11C121.342 526.931 119.245 529.415 116.174 529.415C114.428 529.415 113.022 528.56 112.295 527.224H112.248V533.271H110.209V517.017H112.143V519.079H112.19C112.94 517.708 114.358 516.806 116.127 516.806ZM115.729 527.622C117.897 527.622 119.256 525.876 119.256 523.11C119.256 520.356 117.897 518.599 115.729 518.599C113.643 518.599 112.237 520.403 112.237 523.11C112.237 525.829 113.643 527.622 115.729 527.622ZM129.251 518.575C127.341 518.575 126.005 520.04 125.876 522.067H132.498C132.451 520.028 131.173 518.575 129.251 518.575ZM132.451 525.712H134.455C134.103 527.845 132.04 529.415 129.38 529.415C125.888 529.415 123.767 526.989 123.767 523.157C123.767 519.372 125.923 516.806 129.287 516.806C132.58 516.806 134.607 519.196 134.607 522.888V523.661H125.865V523.778C125.865 526.11 127.236 527.646 129.427 527.646C130.974 527.646 132.111 526.86 132.451 525.712ZM137.629 529.204V517.017H139.551V519.009H139.598C139.997 517.661 141.122 516.806 142.551 516.806C142.903 516.806 143.208 516.864 143.372 516.888V518.868C143.208 518.81 142.774 518.751 142.282 518.751C140.7 518.751 139.668 519.888 139.668 521.61V529.204H137.629ZM145.785 520.38C145.785 518.294 147.648 516.806 150.332 516.806C152.851 516.806 154.703 518.306 154.796 520.368H152.851C152.71 519.196 151.761 518.47 150.261 518.47C148.773 518.47 147.789 519.208 147.789 520.274C147.789 521.118 148.433 521.681 149.816 522.032L151.703 522.489C154.164 523.11 155.054 524.001 155.054 525.794C155.054 527.915 153.05 529.415 150.203 529.415C147.531 529.415 145.668 527.962 145.457 525.806H147.496C147.718 527.071 148.679 527.751 150.332 527.751C151.984 527.751 153.003 527.048 153.003 525.946C153.003 525.079 152.5 524.61 151.128 524.247L148.984 523.696C146.839 523.146 145.785 522.044 145.785 520.38ZM163.186 529.415C159.811 529.415 157.538 526.989 157.538 523.11C157.538 519.22 159.811 516.806 163.186 516.806C166.549 516.806 168.823 519.22 168.823 523.11C168.823 526.989 166.549 529.415 163.186 529.415ZM163.186 527.622C165.342 527.622 166.749 525.981 166.749 523.11C166.749 520.239 165.342 518.599 163.186 518.599C161.03 518.599 159.612 520.239 159.612 523.11C159.612 525.981 161.03 527.622 163.186 527.622ZM171.845 529.204V517.017H173.767V518.962H173.814C174.494 517.649 175.795 516.806 177.681 516.806C180.353 516.806 181.9 518.528 181.9 521.294V529.204H179.861V521.657C179.861 519.688 178.935 518.61 177.06 518.61C175.138 518.61 173.884 519.97 173.884 522.032V529.204H171.845ZM189.481 527.681C191.403 527.681 192.88 526.333 192.88 524.575V523.579L189.622 523.778C187.981 523.884 187.044 524.61 187.044 525.759C187.044 526.919 188.016 527.681 189.481 527.681ZM189.024 529.415C186.598 529.415 184.969 527.95 184.969 525.759C184.969 523.673 186.575 522.36 189.387 522.196L192.88 521.997V520.978C192.88 519.489 191.895 518.599 190.208 518.599C188.637 518.599 187.653 519.337 187.395 520.532H185.426C185.567 518.423 187.372 516.806 190.255 516.806C193.114 516.806 194.919 518.353 194.919 520.778V529.204H192.985V527.106H192.938C192.212 528.501 190.665 529.415 189.024 529.415ZM198.574 529.204V512.294H200.613V529.204H198.574ZM204.432 529.204V517.017H206.471V529.204H204.432ZM205.452 514.966C204.76 514.966 204.186 514.392 204.186 513.7C204.186 512.997 204.76 512.435 205.452 512.435C206.155 512.435 206.729 512.997 206.729 513.7C206.729 514.392 206.155 514.966 205.452 514.966ZM209.928 529.204V527.751L216.678 518.728V518.692H209.939V517.017H218.986V518.505L212.283 527.493V527.528H219.021V529.204H209.928ZM226.79 518.575C224.88 518.575 223.544 520.04 223.415 522.067H230.036C229.989 520.028 228.712 518.575 226.79 518.575ZM229.989 525.712H231.993C231.641 527.845 229.579 529.415 226.919 529.415C223.427 529.415 221.305 526.989 221.305 523.157C221.305 519.372 223.462 516.806 226.825 516.806C230.118 516.806 232.145 519.196 232.145 522.888V523.661H223.403V523.778C223.403 526.11 224.774 527.646 226.966 527.646C228.513 527.646 229.649 526.86 229.989 525.712ZM242.058 533.763C241.811 533.763 241.401 533.739 241.179 533.692V531.981C241.401 532.028 241.718 532.04 241.975 532.04C243.112 532.04 243.745 531.489 244.214 530.071L244.495 529.216L239.995 517.017H242.175L245.55 527.165H245.585L248.96 517.017H251.104L246.311 530.06C245.268 532.907 244.261 533.763 242.058 533.763ZM258.381 529.415C255.006 529.415 252.732 526.989 252.732 523.11C252.732 519.22 255.006 516.806 258.381 516.806C261.744 516.806 264.018 519.22 264.018 523.11C264.018 526.989 261.744 529.415 258.381 529.415ZM258.381 527.622C260.537 527.622 261.943 525.981 261.943 523.11C261.943 520.239 260.537 518.599 258.381 518.599C256.225 518.599 254.807 520.239 254.807 523.11C254.807 525.981 256.225 527.622 258.381 527.622ZM277.048 517.017V529.204H275.114V527.224H275.067C274.341 528.63 273.075 529.415 271.2 529.415C268.54 529.415 266.981 527.692 266.981 524.927V517.017H269.02V524.563C269.02 526.544 269.946 527.61 271.833 527.61C273.813 527.61 275.009 526.251 275.009 524.177V517.017H277.048ZM280.656 529.204V517.017H282.578V519.009H282.625C283.023 517.661 284.148 516.806 285.578 516.806C285.93 516.806 286.234 516.864 286.398 516.888V518.868C286.234 518.81 285.801 518.751 285.309 518.751C283.727 518.751 282.695 519.888 282.695 521.61V529.204H280.656ZM301.607 529.204H295.221V512.294H301.631C304.525 512.294 306.482 513.981 306.482 516.513C306.482 518.271 305.193 519.911 303.565 520.204V520.298C305.861 520.591 307.338 522.208 307.338 524.458C307.338 527.435 305.205 529.204 301.607 529.204ZM297.33 514.157V519.583H300.494C302.99 519.583 304.35 518.587 304.35 516.759C304.35 515.083 303.201 514.157 301.15 514.157H297.33ZM297.33 527.341H301.291C303.834 527.341 305.17 526.31 305.17 524.353C305.17 522.396 303.787 521.399 301.092 521.399H297.33V527.341ZM310.478 529.204V517.017H312.517V529.204H310.478ZM311.497 514.966C310.806 514.966 310.232 514.392 310.232 513.7C310.232 512.997 310.806 512.435 311.497 512.435C312.2 512.435 312.775 512.997 312.775 513.7C312.775 514.392 312.2 514.966 311.497 514.966ZM322.289 529.415C320.508 529.415 319.113 528.548 318.328 527.142H318.281V529.204H316.336V512.294H318.375V519.056H318.422C319.184 517.661 320.602 516.806 322.324 516.806C325.395 516.806 327.469 519.29 327.469 523.11C327.469 526.942 325.406 529.415 322.289 529.415ZM321.891 518.599C319.828 518.599 318.363 520.403 318.363 523.11C318.363 525.829 319.828 527.622 321.891 527.622C324.047 527.622 325.383 525.899 325.383 523.11C325.383 520.345 324.047 518.599 321.891 518.599ZM330.609 529.204V512.294H332.648V529.204H330.609ZM341.248 518.575C339.338 518.575 338.002 520.04 337.873 522.067H344.494C344.448 520.028 343.17 518.575 341.248 518.575ZM344.448 525.712H346.451C346.1 527.845 344.037 529.415 341.377 529.415C337.885 529.415 335.764 526.989 335.764 523.157C335.764 519.372 337.92 516.806 341.283 516.806C344.576 516.806 346.604 519.196 346.604 522.888V523.661H337.862V523.778C337.862 526.11 339.233 527.646 341.424 527.646C342.971 527.646 344.108 526.86 344.448 525.712ZM355.508 529.204V517.017H357.43V519.009H357.477C357.875 517.661 359 516.806 360.43 516.806C360.782 516.806 361.086 516.864 361.25 516.888V518.868C361.086 518.81 360.653 518.751 360.16 518.751C358.578 518.751 357.547 519.888 357.547 521.61V529.204H355.508ZM368.175 518.575C366.265 518.575 364.929 520.04 364.8 522.067H371.421C371.374 520.028 370.097 518.575 368.175 518.575ZM371.374 525.712H373.378C373.027 527.845 370.964 529.415 368.304 529.415C364.812 529.415 362.691 526.989 362.691 523.157C362.691 519.372 364.847 516.806 368.21 516.806C371.503 516.806 373.531 519.196 373.531 522.888V523.661H364.788V523.778C364.788 526.11 366.16 527.646 368.351 527.646C369.898 527.646 371.035 526.86 371.374 525.712ZM380.573 527.681C382.495 527.681 383.971 526.333 383.971 524.575V523.579L380.713 523.778C379.073 523.884 378.135 524.61 378.135 525.759C378.135 526.919 379.108 527.681 380.573 527.681ZM380.116 529.415C377.69 529.415 376.061 527.95 376.061 525.759C376.061 523.673 377.666 522.36 380.479 522.196L383.971 521.997V520.978C383.971 519.489 382.987 518.599 381.299 518.599C379.729 518.599 378.745 519.337 378.487 520.532H376.518C376.659 518.423 378.463 516.806 381.346 516.806C384.205 516.806 386.01 518.353 386.01 520.778V529.204H384.077V527.106H384.03C383.303 528.501 381.756 529.415 380.116 529.415ZM394.177 529.415C391.072 529.415 388.962 526.931 388.962 523.11C388.962 519.29 391.06 516.806 394.13 516.806C395.876 516.806 397.283 517.661 398.009 518.997H398.056V512.294H400.095V529.204H398.15V527.142H398.115C397.33 528.548 395.935 529.415 394.177 529.415ZM394.564 518.599C392.408 518.599 391.048 520.356 391.048 523.11C391.048 525.876 392.408 527.622 394.564 527.622C396.662 527.622 398.068 525.841 398.068 523.11C398.068 520.392 396.662 518.599 394.564 518.599ZM403.915 529.204V517.017H405.954V529.204H403.915ZM404.934 514.966C404.243 514.966 403.668 514.392 403.668 513.7C403.668 512.997 404.243 512.435 404.934 512.435C405.637 512.435 406.211 512.997 406.211 513.7C406.211 514.392 405.637 514.966 404.934 514.966ZM409.668 529.204V517.017H411.589V518.962H411.636C412.316 517.649 413.617 516.806 415.503 516.806C418.175 516.806 419.722 518.528 419.722 521.294V529.204H417.683V521.657C417.683 519.688 416.757 518.61 414.882 518.61C412.96 518.61 411.707 519.97 411.707 522.032V529.204H409.668ZM428.241 527.505C430.362 527.505 431.78 525.747 431.78 523.063C431.78 520.38 430.362 518.599 428.241 518.599C426.143 518.599 424.772 520.333 424.772 523.063C424.772 525.794 426.143 527.505 428.241 527.505ZM428.311 533.798C425.628 533.798 423.506 532.286 423.167 530.212H425.264C425.663 531.325 426.87 532.063 428.393 532.063C430.503 532.063 431.78 530.845 431.78 529.028V527.106H431.733C430.983 528.431 429.542 529.298 427.831 529.298C424.725 529.298 422.686 526.849 422.686 523.063C422.686 519.243 424.725 516.806 427.878 516.806C429.6 516.806 431.03 517.649 431.838 519.067H431.874V517.017H433.819V528.958C433.819 531.864 431.674 533.798 428.311 533.798ZM69.7361 558.575C67.8259 558.575 66.49 560.04 66.3611 562.067H72.9822C72.9353 560.028 71.658 558.575 69.7361 558.575ZM72.9353 565.712H74.9392C74.5877 567.845 72.5252 569.415 69.865 569.415C66.3728 569.415 64.2517 566.989 64.2517 563.157C64.2517 559.372 66.408 556.806 69.7713 556.806C73.0642 556.806 75.0916 559.196 75.0916 562.888V563.661H66.3494V563.778C66.3494 566.11 67.7205 567.646 69.9119 567.646C71.4588 567.646 72.5955 566.86 72.9353 565.712ZM82.1922 564.563H82.1453L79.2039 569.204H76.9422L81.0906 563.11L77.0125 557.017H79.2859L82.2156 561.587H82.2625L85.157 557.017H87.4305L83.3172 563.028L87.3719 569.204H85.1102L82.1922 564.563ZM96.0311 556.806C99.1366 556.806 101.246 559.29 101.246 563.11C101.246 566.931 99.1483 569.415 96.078 569.415C94.3319 569.415 92.9256 568.56 92.1991 567.224H92.1522V573.271H90.1131V557.017H92.0467V559.079H92.0936C92.8436 557.708 94.2616 556.806 96.0311 556.806ZM95.6327 567.622C97.8006 567.622 99.16 565.876 99.16 563.11C99.16 560.356 97.8006 558.599 95.6327 558.599C93.5467 558.599 92.1405 560.403 92.1405 563.11C92.1405 565.829 93.5467 567.622 95.6327 567.622ZM109.155 558.575C107.245 558.575 105.909 560.04 105.78 562.067H112.401C112.354 560.028 111.077 558.575 109.155 558.575ZM112.354 565.712H114.358C114.007 567.845 111.944 569.415 109.284 569.415C105.792 569.415 103.671 566.989 103.671 563.157C103.671 559.372 105.827 556.806 109.19 556.806C112.483 556.806 114.511 559.196 114.511 562.888V563.661H105.768V563.778C105.768 566.11 107.14 567.646 109.331 567.646C110.878 567.646 112.015 566.86 112.354 565.712ZM117.533 569.204V557.017H119.455V559.009H119.502C119.9 557.661 121.025 556.806 122.455 556.806C122.807 556.806 123.111 556.864 123.275 556.888V558.868C123.111 558.81 122.678 558.751 122.185 558.751C120.603 558.751 119.572 559.888 119.572 561.61V569.204H117.533ZM126.005 569.204V557.017H128.044V569.204H126.005ZM127.024 554.966C126.333 554.966 125.759 554.392 125.759 553.7C125.759 552.997 126.333 552.435 127.024 552.435C127.728 552.435 128.302 552.997 128.302 553.7C128.302 554.392 127.728 554.966 127.024 554.966ZM136.645 558.575C134.734 558.575 133.398 560.04 133.27 562.067H139.891C139.844 560.028 138.566 558.575 136.645 558.575ZM139.844 565.712H141.848C141.496 567.845 139.434 569.415 136.773 569.415C133.281 569.415 131.16 566.989 131.16 563.157C131.16 559.372 133.316 556.806 136.68 556.806C139.973 556.806 142 559.196 142 562.888V563.661H133.258V563.778C133.258 566.11 134.629 567.646 136.82 567.646C138.367 567.646 139.504 566.86 139.844 565.712ZM145.023 569.204V557.017H146.944V558.962H146.991C147.671 557.649 148.972 556.806 150.858 556.806C153.53 556.806 155.077 558.528 155.077 561.294V569.204H153.038V561.657C153.038 559.688 152.112 558.61 150.237 558.61C148.315 558.61 147.062 559.97 147.062 562.032V569.204H145.023ZM168.764 561.013H166.772C166.479 559.688 165.447 558.599 163.654 558.599C161.545 558.599 160.115 560.345 160.115 563.11C160.115 565.946 161.568 567.622 163.678 567.622C165.342 567.622 166.432 566.743 166.783 565.278H168.787C168.471 567.704 166.432 569.415 163.666 569.415C160.291 569.415 158.041 567.036 158.041 563.11C158.041 559.267 160.279 556.806 163.643 556.806C166.69 556.806 168.506 558.821 168.764 561.013ZM176.509 558.575C174.599 558.575 173.263 560.04 173.134 562.067H179.755C179.708 560.028 178.431 558.575 176.509 558.575ZM179.708 565.712H181.712C181.36 567.845 179.298 569.415 176.638 569.415C173.146 569.415 171.025 566.989 171.025 563.157C171.025 559.372 173.181 556.806 176.544 556.806C179.837 556.806 181.864 559.196 181.864 562.888V563.661H173.122V563.778C173.122 566.11 174.493 567.646 176.685 567.646C178.232 567.646 179.368 566.86 179.708 565.712ZM196.827 569.415C195.046 569.415 193.652 568.548 192.866 567.142H192.82V569.204H190.874V552.294H192.913V559.056H192.96C193.722 557.661 195.14 556.806 196.863 556.806C199.933 556.806 202.007 559.29 202.007 563.11C202.007 566.942 199.945 569.415 196.827 569.415ZM196.429 558.599C194.366 558.599 192.902 560.403 192.902 563.11C192.902 565.829 194.366 567.622 196.429 567.622C198.585 567.622 199.921 565.899 199.921 563.11C199.921 560.345 198.585 558.599 196.429 558.599ZM205.698 573.763C205.451 573.763 205.041 573.739 204.819 573.692V571.981C205.041 572.028 205.358 572.04 205.615 572.04C206.752 572.04 207.385 571.489 207.854 570.071L208.135 569.216L203.635 557.017H205.815L209.19 567.165H209.225L212.6 557.017H214.744L209.951 570.06C208.908 572.907 207.901 573.763 205.698 573.763ZM233.328 561.013H231.336C231.043 559.688 230.012 558.599 228.219 558.599C226.11 558.599 224.68 560.345 224.68 563.11C224.68 565.946 226.133 567.622 228.243 567.622C229.907 567.622 230.996 566.743 231.348 565.278H233.352C233.035 567.704 230.996 569.415 228.231 569.415C224.856 569.415 222.606 567.036 222.606 563.11C222.606 559.267 224.844 556.806 228.207 556.806C231.254 556.806 233.071 558.821 233.328 561.013ZM236.292 569.204V552.294H238.331V558.962H238.378C239.058 557.603 240.394 556.806 242.245 556.806C244.917 556.806 246.535 558.61 246.535 561.329V569.204H244.495V561.704C244.495 559.771 243.523 558.61 241.613 558.61C239.585 558.61 238.331 559.993 238.331 562.103V569.204H236.292ZM255.135 569.415C251.76 569.415 249.487 566.989 249.487 563.11C249.487 559.22 251.76 556.806 255.135 556.806C258.498 556.806 260.772 559.22 260.772 563.11C260.772 566.989 258.498 569.415 255.135 569.415ZM255.135 567.622C257.291 567.622 258.698 565.981 258.698 563.11C258.698 560.239 257.291 558.599 255.135 558.599C252.979 558.599 251.561 560.239 251.561 563.11C251.561 565.981 252.979 567.622 255.135 567.622ZM268.845 569.415C265.47 569.415 263.197 566.989 263.197 563.11C263.197 559.22 265.47 556.806 268.845 556.806C272.208 556.806 274.482 559.22 274.482 563.11C274.482 566.989 272.208 569.415 268.845 569.415ZM268.845 567.622C271.001 567.622 272.408 565.981 272.408 563.11C272.408 560.239 271.001 558.599 268.845 558.599C266.689 558.599 265.271 560.239 265.271 563.11C265.271 565.981 266.689 567.622 268.845 567.622ZM277.293 560.38C277.293 558.294 279.157 556.806 281.84 556.806C284.36 556.806 286.211 558.306 286.305 560.368H284.36C284.219 559.196 283.27 558.47 281.77 558.47C280.282 558.47 279.297 559.208 279.297 560.274C279.297 561.118 279.942 561.681 281.325 562.032L283.211 562.489C285.672 563.11 286.563 564.001 286.563 565.794C286.563 567.915 284.559 569.415 281.711 569.415C279.04 569.415 277.176 567.962 276.965 565.806H279.004C279.227 567.071 280.188 567.751 281.84 567.751C283.493 567.751 284.512 567.048 284.512 565.946C284.512 565.079 284.008 564.61 282.637 564.247L280.493 563.696C278.348 563.146 277.293 562.044 277.293 560.38ZM289.75 569.204V557.017H291.789V569.204H289.75ZM290.769 554.966C290.078 554.966 289.503 554.392 289.503 553.7C289.503 552.997 290.078 552.435 290.769 552.435C291.472 552.435 292.046 552.997 292.046 553.7C292.046 554.392 291.472 554.966 290.769 554.966ZM295.503 569.204V557.017H297.424V558.962H297.471C298.151 557.649 299.452 556.806 301.338 556.806C304.01 556.806 305.557 558.528 305.557 561.294V569.204H303.518V561.657C303.518 559.688 302.592 558.61 300.717 558.61C298.795 558.61 297.542 559.97 297.542 562.032V569.204H295.503ZM314.076 567.505C316.197 567.505 317.615 565.747 317.615 563.063C317.615 560.38 316.197 558.599 314.076 558.599C311.978 558.599 310.607 560.333 310.607 563.063C310.607 565.794 311.978 567.505 314.076 567.505ZM314.146 573.798C311.463 573.798 309.341 572.286 309.002 570.212H311.099C311.498 571.325 312.705 572.063 314.228 572.063C316.338 572.063 317.615 570.845 317.615 569.028V567.106H317.568C316.818 568.431 315.377 569.298 313.666 569.298C310.56 569.298 308.521 566.849 308.521 563.063C308.521 559.243 310.56 556.806 313.713 556.806C315.435 556.806 316.865 557.649 317.673 559.067H317.709V557.017H319.654V568.958C319.654 571.864 317.509 573.798 314.146 573.798ZM330.164 573.763C329.918 573.763 329.508 573.739 329.285 573.692V571.981C329.508 572.028 329.824 572.04 330.082 572.04C331.218 572.04 331.851 571.489 332.32 570.071L332.601 569.216L328.101 557.017H330.281L333.656 567.165H333.691L337.066 557.017H339.211L334.418 570.06C333.375 572.907 332.367 573.763 330.164 573.763ZM346.487 569.415C343.112 569.415 340.839 566.989 340.839 563.11C340.839 559.22 343.112 556.806 346.487 556.806C349.85 556.806 352.124 559.22 352.124 563.11C352.124 566.989 349.85 569.415 346.487 569.415ZM346.487 567.622C348.643 567.622 350.05 565.981 350.05 563.11C350.05 560.239 348.643 558.599 346.487 558.599C344.331 558.599 342.913 560.239 342.913 563.11C342.913 565.981 344.331 567.622 346.487 567.622ZM365.154 557.017V569.204H363.22V567.224H363.174C362.447 568.63 361.181 569.415 359.306 569.415C356.646 569.415 355.088 567.692 355.088 564.927V557.017H357.127V564.563C357.127 566.544 358.052 567.61 359.939 567.61C361.92 567.61 363.115 566.251 363.115 564.177V557.017H365.154ZM368.763 569.204V557.017H370.684V559.009H370.731C371.13 557.661 372.255 556.806 373.684 556.806C374.036 556.806 374.341 556.864 374.505 556.888V558.868C374.341 558.81 373.907 558.751 373.415 558.751C371.833 558.751 370.802 559.888 370.802 561.61V569.204H368.763ZM388.929 556.806C392.034 556.806 394.143 559.29 394.143 563.11C394.143 566.931 392.046 569.415 388.975 569.415C387.229 569.415 385.823 568.56 385.097 567.224H385.05V573.271H383.011V557.017H384.944V559.079H384.991C385.741 557.708 387.159 556.806 388.929 556.806ZM388.53 567.622C390.698 567.622 392.057 565.876 392.057 563.11C392.057 560.356 390.698 558.599 388.53 558.599C386.444 558.599 385.038 560.403 385.038 563.11C385.038 565.829 386.444 567.622 388.53 567.622ZM397.166 569.204V557.017H399.088V559.009H399.135C399.533 557.661 400.658 556.806 402.088 556.806C402.439 556.806 402.744 556.864 402.908 556.888V558.868C402.744 558.81 402.31 558.751 401.818 558.751C400.236 558.751 399.205 559.888 399.205 561.61V569.204H397.166ZM409.833 558.575C407.923 558.575 406.587 560.04 406.458 562.067H413.079C413.032 560.028 411.755 558.575 409.833 558.575ZM413.032 565.712H415.036C414.685 567.845 412.622 569.415 409.962 569.415C406.47 569.415 404.349 566.989 404.349 563.157C404.349 559.372 406.505 556.806 409.868 556.806C413.161 556.806 415.188 559.196 415.188 562.888V563.661H406.446V563.778C406.446 566.11 407.817 567.646 410.009 567.646C411.556 567.646 412.692 566.86 413.032 565.712ZM418.867 569.204V558.692H417.168V557.017H418.867V555.657C418.867 553.313 419.957 552.2 422.207 552.2C422.664 552.2 423.156 552.247 423.449 552.294V553.946C423.203 553.911 422.863 553.876 422.523 553.876C421.422 553.876 420.895 554.462 420.895 555.669V557.017H423.391V558.692H420.906V569.204H418.867ZM430.761 558.575C428.851 558.575 427.515 560.04 427.386 562.067H434.007C433.96 560.028 432.683 558.575 430.761 558.575ZM433.96 565.712H435.964C435.612 567.845 433.55 569.415 430.89 569.415C427.398 569.415 425.276 566.989 425.276 563.157C425.276 559.372 427.433 556.806 430.796 556.806C434.089 556.806 436.116 559.196 436.116 562.888V563.661H427.374V563.778C427.374 566.11 428.745 567.646 430.937 567.646C432.483 567.646 433.62 566.86 433.96 565.712ZM439.139 569.204V557.017H441.061V559.009H441.107C441.506 557.661 442.631 556.806 444.061 556.806C444.412 556.806 444.717 556.864 444.881 556.888V558.868C444.717 558.81 444.283 558.751 443.791 558.751C442.209 558.751 441.178 559.888 441.178 561.61V569.204H439.139ZM447.505 569.204V557.017H449.427V559.009H449.474C449.872 557.661 450.997 556.806 452.427 556.806C452.778 556.806 453.083 556.864 453.247 556.888V558.868C453.083 558.81 452.65 558.751 452.157 558.751C450.575 558.751 449.544 559.888 449.544 561.61V569.204H447.505ZM460.172 558.575C458.262 558.575 456.926 560.04 456.797 562.067H463.418C463.371 560.028 462.094 558.575 460.172 558.575ZM463.371 565.712H465.375C465.024 567.845 462.961 569.415 460.301 569.415C456.809 569.415 454.688 566.989 454.688 563.157C454.688 559.372 456.844 556.806 460.207 556.806C463.5 556.806 465.528 559.196 465.528 562.888V563.661H456.785V563.778C456.785 566.11 458.156 567.646 460.348 567.646C461.895 567.646 463.031 566.86 463.371 565.712ZM473.167 569.415C470.062 569.415 467.952 566.931 467.952 563.11C467.952 559.29 470.05 556.806 473.12 556.806C474.866 556.806 476.273 557.661 476.999 558.997H477.046V552.294H479.085V569.204H477.14V567.142H477.105C476.32 568.548 474.925 569.415 473.167 569.415ZM473.554 558.599C471.398 558.599 470.038 560.356 470.038 563.11C470.038 565.876 471.398 567.622 473.554 567.622C475.652 567.622 477.058 565.841 477.058 563.11C477.058 560.392 475.652 558.599 473.554 558.599ZM103.38 609.204H96.993V592.294H103.403C106.298 592.294 108.255 593.981 108.255 596.513C108.255 598.271 106.966 599.911 105.337 600.204V600.298C107.634 600.591 109.11 602.208 109.11 604.458C109.11 607.435 106.977 609.204 103.38 609.204ZM99.1023 594.157V599.583H102.266C104.762 599.583 106.122 598.587 106.122 596.759C106.122 595.083 104.973 594.157 102.923 594.157H99.1023ZM99.1023 607.341H103.063C105.606 607.341 106.942 606.31 106.942 604.353C106.942 602.396 105.559 601.399 102.864 601.399H99.1023V607.341ZM112.25 609.204V597.017H114.289V609.204H112.25ZM113.269 594.966C112.578 594.966 112.004 594.392 112.004 593.7C112.004 592.997 112.578 592.435 113.269 592.435C113.972 592.435 114.547 592.997 114.547 593.7C114.547 594.392 113.972 594.966 113.269 594.966ZM124.061 609.415C122.28 609.415 120.886 608.548 120.1 607.142H120.054V609.204H118.108V592.294H120.147V599.056H120.194C120.956 597.661 122.374 596.806 124.097 596.806C127.167 596.806 129.241 599.29 129.241 603.11C129.241 606.942 127.179 609.415 124.061 609.415ZM123.663 598.599C121.6 598.599 120.136 600.403 120.136 603.11C120.136 605.829 121.6 607.622 123.663 607.622C125.819 607.622 127.155 605.899 127.155 603.11C127.155 600.345 125.819 598.599 123.663 598.599ZM132.381 609.204V592.294H134.42V609.204H132.381ZM143.02 598.575C141.11 598.575 139.774 600.04 139.645 602.067H146.267C146.22 600.028 144.942 598.575 143.02 598.575ZM146.22 605.712H148.224C147.872 607.845 145.81 609.415 143.149 609.415C139.657 609.415 137.536 606.989 137.536 603.157C137.536 599.372 139.692 596.806 143.056 596.806C146.349 596.806 148.376 599.196 148.376 602.888V603.661H139.634V603.778C139.634 606.11 141.005 607.646 143.196 607.646C144.743 607.646 145.88 606.86 146.22 605.712ZM157.937 594.075H159.976V597.017H162.343V598.692H159.976V605.935C159.976 607.048 160.444 607.552 161.487 607.552C161.722 607.552 162.19 607.517 162.331 607.493V609.204C162.085 609.263 161.522 609.298 161.042 609.298C158.804 609.298 157.937 608.384 157.937 606.04V598.692H156.12V597.017H157.937V594.075ZM165.482 609.204V597.017H167.404V599.009H167.451C167.85 597.661 168.975 596.806 170.404 596.806C170.756 596.806 171.061 596.864 171.225 596.888V598.868C171.061 598.81 170.627 598.751 170.135 598.751C168.553 598.751 167.522 599.888 167.522 601.61V609.204H165.482ZM177.634 607.681C179.556 607.681 181.032 606.333 181.032 604.575V603.579L177.775 603.778C176.134 603.884 175.196 604.61 175.196 605.759C175.196 606.919 176.169 607.681 177.634 607.681ZM177.177 609.415C174.751 609.415 173.122 607.95 173.122 605.759C173.122 603.673 174.728 602.36 177.54 602.196L181.032 601.997V600.978C181.032 599.489 180.048 598.599 178.36 598.599C176.79 598.599 175.806 599.337 175.548 600.532H173.579C173.72 598.423 175.525 596.806 178.407 596.806C181.267 596.806 183.071 598.353 183.071 600.778V609.204H181.138V607.106H181.091C180.364 608.501 178.817 609.415 177.177 609.415ZM186.621 609.204V597.017H188.543V598.962H188.59C189.27 597.649 190.57 596.806 192.457 596.806C195.129 596.806 196.676 598.528 196.676 601.294V609.204H194.637V601.657C194.637 599.688 193.711 598.61 191.836 598.61C189.914 598.61 188.66 599.97 188.66 602.032V609.204H186.621ZM200.027 600.38C200.027 598.294 201.89 596.806 204.573 596.806C207.093 596.806 208.945 598.306 209.038 600.368H207.093C206.952 599.196 206.003 598.47 204.503 598.47C203.015 598.47 202.03 599.208 202.03 600.274C202.03 601.118 202.675 601.681 204.058 602.032L205.945 602.489C208.405 603.11 209.296 604.001 209.296 605.794C209.296 607.915 207.292 609.415 204.445 609.415C201.773 609.415 199.909 607.962 199.698 605.806H201.737C201.96 607.071 202.921 607.751 204.573 607.751C206.226 607.751 207.245 607.048 207.245 605.946C207.245 605.079 206.741 604.61 205.37 604.247L203.226 603.696C201.081 603.146 200.027 602.044 200.027 600.38ZM212.483 609.204V592.294H214.522V609.204H212.483ZM222.255 607.681C224.177 607.681 225.654 606.333 225.654 604.575V603.579L222.396 603.778C220.755 603.884 219.818 604.61 219.818 605.759C219.818 606.919 220.79 607.681 222.255 607.681ZM221.798 609.415C219.372 609.415 217.743 607.95 217.743 605.759C217.743 603.673 219.349 602.36 222.161 602.196L225.654 601.997V600.978C225.654 599.489 224.669 598.599 222.982 598.599C221.411 598.599 220.427 599.337 220.169 600.532H218.2C218.341 598.423 220.146 596.806 223.029 596.806C225.888 596.806 227.693 598.353 227.693 600.778V609.204H225.759V607.106H225.712C224.986 608.501 223.439 609.415 221.798 609.415ZM231.899 594.075H233.938V597.017H236.305V598.692H233.938V605.935C233.938 607.048 234.407 607.552 235.45 607.552C235.684 607.552 236.153 607.517 236.293 607.493V609.204C236.047 609.263 235.485 609.298 235.004 609.298C232.766 609.298 231.899 608.384 231.899 606.04V598.692H230.082V597.017H231.899V594.075ZM239.55 609.204V597.017H241.589V609.204H239.55ZM240.57 594.966C239.878 594.966 239.304 594.392 239.304 593.7C239.304 592.997 239.878 592.435 240.57 592.435C241.273 592.435 241.847 592.997 241.847 593.7C241.847 594.392 241.273 594.966 240.57 594.966ZM250.354 609.415C246.979 609.415 244.705 606.989 244.705 603.11C244.705 599.22 246.979 596.806 250.354 596.806C253.717 596.806 255.991 599.22 255.991 603.11C255.991 606.989 253.717 609.415 250.354 609.415ZM250.354 607.622C252.51 607.622 253.916 605.981 253.916 603.11C253.916 600.239 252.51 598.599 250.354 598.599C248.198 598.599 246.78 600.239 246.78 603.11C246.78 605.981 248.198 607.622 250.354 607.622ZM259.013 609.204V597.017H260.935V598.962H260.982C261.662 597.649 262.962 596.806 264.849 596.806C267.521 596.806 269.068 598.528 269.068 601.294V609.204H267.029V601.657C267.029 599.688 266.103 598.61 264.228 598.61C262.306 598.61 261.052 599.97 261.052 602.032V609.204H259.013ZM274.024 612.567H272.325L273.461 606.603H275.629L274.024 612.567ZM284.182 600.38C284.182 598.294 286.045 596.806 288.729 596.806C291.249 596.806 293.1 598.306 293.194 600.368H291.249C291.108 599.196 290.159 598.47 288.659 598.47C287.17 598.47 286.186 599.208 286.186 600.274C286.186 601.118 286.831 601.681 288.213 602.032L290.1 602.489C292.561 603.11 293.452 604.001 293.452 605.794C293.452 607.915 291.448 609.415 288.6 609.415C285.928 609.415 284.065 607.962 283.854 605.806H285.893C286.116 607.071 287.077 607.751 288.729 607.751C290.381 607.751 291.401 607.048 291.401 605.946C291.401 605.079 290.897 604.61 289.526 604.247L287.381 603.696C285.237 603.146 284.182 602.044 284.182 600.38ZM301.42 598.575C299.509 598.575 298.173 600.04 298.045 602.067H304.666C304.619 600.028 303.341 598.575 301.42 598.575ZM304.619 605.712H306.623C306.271 607.845 304.209 609.415 301.548 609.415C298.056 609.415 295.935 606.989 295.935 603.157C295.935 599.372 298.091 596.806 301.455 596.806C304.748 596.806 306.775 599.196 306.775 602.888V603.661H298.033V603.778C298.033 606.11 299.404 607.646 301.595 607.646C303.142 607.646 304.279 606.86 304.619 605.712ZM310.454 594.075H312.493V597.017H314.86V598.692H312.493V605.935C312.493 607.048 312.962 607.552 314.005 607.552C314.239 607.552 314.708 607.517 314.848 607.493V609.204C314.602 609.263 314.04 609.298 313.559 609.298C311.321 609.298 310.454 608.384 310.454 606.04V598.692H308.637V597.017H310.454V594.075ZM318.656 594.075H320.695V597.017H323.062V598.692H320.695V605.935C320.695 607.048 321.164 607.552 322.207 607.552C322.441 607.552 322.91 607.517 323.05 607.493V609.204C322.804 609.263 322.242 609.298 321.761 609.298C319.523 609.298 318.656 608.384 318.656 606.04V598.692H316.84V597.017H318.656V594.075ZM326.307 609.204V597.017H328.346V609.204H326.307ZM327.327 594.966C326.635 594.966 326.061 594.392 326.061 593.7C326.061 592.997 326.635 592.435 327.327 592.435C328.03 592.435 328.604 592.997 328.604 593.7C328.604 594.392 328.03 594.966 327.327 594.966ZM332.06 609.204V597.017H333.982V598.962H334.029C334.709 597.649 336.01 596.806 337.896 596.806C340.568 596.806 342.115 598.528 342.115 601.294V609.204H340.076V601.657C340.076 599.688 339.15 598.61 337.275 598.61C335.353 598.61 334.099 599.97 334.099 602.032V609.204H332.06ZM350.634 607.505C352.755 607.505 354.173 605.747 354.173 603.063C354.173 600.38 352.755 598.599 350.634 598.599C348.536 598.599 347.165 600.333 347.165 603.063C347.165 605.794 348.536 607.505 350.634 607.505ZM350.704 613.798C348.02 613.798 345.899 612.286 345.559 610.212H347.657C348.055 611.325 349.263 612.063 350.786 612.063C352.895 612.063 354.173 610.845 354.173 609.028V607.106H354.126C353.376 608.431 351.934 609.298 350.223 609.298C347.118 609.298 345.079 606.849 345.079 603.063C345.079 599.243 347.118 596.806 350.27 596.806C351.993 596.806 353.423 597.649 354.231 599.067H354.266V597.017H356.212V608.958C356.212 611.864 354.067 613.798 350.704 613.798ZM375.722 597.017V609.204H373.788V607.224H373.741C373.015 608.63 371.749 609.415 369.874 609.415C367.214 609.415 365.655 607.692 365.655 604.927V597.017H367.694V604.563C367.694 606.544 368.62 607.61 370.507 607.61C372.487 607.61 373.682 606.251 373.682 604.177V597.017H375.722ZM385.248 596.806C388.353 596.806 390.463 599.29 390.463 603.11C390.463 606.931 388.365 609.415 385.295 609.415C383.549 609.415 382.143 608.56 381.416 607.224H381.369V613.271H379.33V597.017H381.264V599.079H381.31C382.06 597.708 383.478 596.806 385.248 596.806ZM384.85 607.622C387.018 607.622 388.377 605.876 388.377 603.11C388.377 600.356 387.018 598.599 384.85 598.599C382.764 598.599 381.357 600.403 381.357 603.11C381.357 605.829 382.764 607.622 384.85 607.622ZM403.984 609.415C400.879 609.415 398.77 606.931 398.77 603.11C398.77 599.29 400.867 596.806 403.938 596.806C405.684 596.806 407.09 597.661 407.816 598.997H407.863V592.294H409.902V609.204H407.957V607.142H407.922C407.137 608.548 405.742 609.415 403.984 609.415ZM404.371 598.599C402.215 598.599 400.855 600.356 400.855 603.11C400.855 605.876 402.215 607.622 404.371 607.622C406.469 607.622 407.875 605.841 407.875 603.11C407.875 600.392 406.469 598.599 404.371 598.599ZM417.636 607.681C419.558 607.681 421.034 606.333 421.034 604.575V603.579L417.776 603.778C416.136 603.884 415.198 604.61 415.198 605.759C415.198 606.919 416.171 607.681 417.636 607.681ZM417.179 609.415C414.753 609.415 413.124 607.95 413.124 605.759C413.124 603.673 414.73 602.36 417.542 602.196L421.034 601.997V600.978C421.034 599.489 420.05 598.599 418.362 598.599C416.792 598.599 415.808 599.337 415.55 600.532H413.581C413.722 598.423 415.526 596.806 418.409 596.806C421.269 596.806 423.073 598.353 423.073 600.778V609.204H421.14V607.106H421.093C420.366 608.501 418.819 609.415 417.179 609.415ZM426.729 609.204V597.017H428.768V609.204H426.729ZM427.748 594.966C427.057 594.966 426.482 594.392 426.482 593.7C426.482 592.997 427.057 592.435 427.748 592.435C428.451 592.435 429.025 592.997 429.025 593.7C429.025 594.392 428.451 594.966 427.748 594.966ZM432.587 609.204V592.294H434.626V609.204H432.587ZM439.348 613.763C439.102 613.763 438.692 613.739 438.469 613.692V611.981C438.692 612.028 439.008 612.04 439.266 612.04C440.402 612.04 441.035 611.489 441.504 610.071L441.785 609.216L437.285 597.017H439.465L442.84 607.165H442.875L446.25 597.017H448.395L443.602 610.06C442.559 612.907 441.551 613.763 439.348 613.763ZM124.834 649.415C121.728 649.415 119.619 646.931 119.619 643.11C119.619 639.29 121.717 636.806 124.787 636.806C126.533 636.806 127.939 637.661 128.666 638.997H128.713V632.294H130.752V649.204H128.807V647.142H128.771C127.986 648.548 126.592 649.415 124.834 649.415ZM125.221 638.599C123.064 638.599 121.705 640.356 121.705 643.11C121.705 645.876 123.064 647.622 125.221 647.622C127.318 647.622 128.725 645.841 128.725 643.11C128.725 640.392 127.318 638.599 125.221 638.599ZM139.353 638.575C137.442 638.575 136.106 640.04 135.978 642.067H142.599C142.552 640.028 141.274 638.575 139.353 638.575ZM142.552 645.712H144.556C144.204 647.845 142.142 649.415 139.481 649.415C135.989 649.415 133.868 646.989 133.868 643.157C133.868 639.372 136.024 636.806 139.388 636.806C142.681 636.806 144.708 639.196 144.708 642.888V643.661H135.966V643.778C135.966 646.11 137.337 647.646 139.528 647.646C141.075 647.646 142.212 646.86 142.552 645.712ZM157.727 637.017L153.25 649.204H151.164L146.676 637.017H148.82L152.184 647.036H152.23L155.605 637.017H157.727ZM164.991 649.415C161.616 649.415 159.343 646.989 159.343 643.11C159.343 639.22 161.616 636.806 164.991 636.806C168.355 636.806 170.628 639.22 170.628 643.11C170.628 646.989 168.355 649.415 164.991 649.415ZM164.991 647.622C167.148 647.622 168.554 645.981 168.554 643.11C168.554 640.239 167.148 638.599 164.991 638.599C162.835 638.599 161.417 640.239 161.417 643.11C161.417 645.981 162.835 647.622 164.991 647.622ZM174.307 634.075H176.346V637.017H178.713V638.692H176.346V645.935C176.346 647.048 176.815 647.552 177.857 647.552C178.092 647.552 178.561 647.517 178.701 647.493V649.204C178.455 649.263 177.893 649.298 177.412 649.298C175.174 649.298 174.307 648.384 174.307 646.04V638.692H172.49V637.017H174.307V634.075ZM181.958 649.204V637.017H183.997V649.204H181.958ZM182.978 634.966C182.286 634.966 181.712 634.392 181.712 633.7C181.712 632.997 182.286 632.435 182.978 632.435C183.681 632.435 184.255 632.997 184.255 633.7C184.255 634.392 183.681 634.966 182.978 634.966ZM192.762 649.415C189.387 649.415 187.113 646.989 187.113 643.11C187.113 639.22 189.387 636.806 192.762 636.806C196.125 636.806 198.399 639.22 198.399 643.11C198.399 646.989 196.125 649.415 192.762 649.415ZM192.762 647.622C194.918 647.622 196.324 645.981 196.324 643.11C196.324 640.239 194.918 638.599 192.762 638.599C190.606 638.599 189.188 640.239 189.188 643.11C189.188 645.981 190.606 647.622 192.762 647.622ZM201.421 649.204V637.017H203.343V638.962H203.39C204.07 637.649 205.37 636.806 207.257 636.806C209.929 636.806 211.476 638.528 211.476 641.294V649.204H209.437V641.657C209.437 639.688 208.511 638.61 206.636 638.61C204.714 638.61 203.46 639.97 203.46 642.032V649.204H201.421ZM219.057 647.681C220.979 647.681 222.455 646.333 222.455 644.575V643.579L219.198 643.778C217.557 643.884 216.619 644.61 216.619 645.759C216.619 646.919 217.592 647.681 219.057 647.681ZM218.6 649.415C216.174 649.415 214.545 647.95 214.545 645.759C214.545 643.673 216.151 642.36 218.963 642.196L222.455 641.997V640.978C222.455 639.489 221.471 638.599 219.783 638.599C218.213 638.599 217.229 639.337 216.971 640.532H215.002C215.143 638.423 216.948 636.806 219.83 636.806C222.69 636.806 224.494 638.353 224.494 640.778V649.204H222.561V647.106H222.514C221.787 648.501 220.24 649.415 218.6 649.415ZM228.15 649.204V632.294H230.189V649.204H228.15ZM239.785 649.204V637.017H241.706V638.962H241.753C242.433 637.649 243.734 636.806 245.62 636.806C248.292 636.806 249.839 638.528 249.839 641.294V649.204H247.8V641.657C247.8 639.688 246.874 638.61 244.999 638.61C243.077 638.61 241.824 639.97 241.824 642.032V649.204H239.785ZM258.452 649.415C255.077 649.415 252.803 646.989 252.803 643.11C252.803 639.22 255.077 636.806 258.452 636.806C261.815 636.806 264.088 639.22 264.088 643.11C264.088 646.989 261.815 649.415 258.452 649.415ZM258.452 647.622C260.608 647.622 262.014 645.981 262.014 643.11C262.014 640.239 260.608 638.599 258.452 638.599C256.295 638.599 254.877 640.239 254.877 643.11C254.877 645.981 256.295 647.622 258.452 647.622ZM267.767 634.075H269.806V637.017H272.173V638.692H269.806V645.935C269.806 647.048 270.275 647.552 271.318 647.552C271.552 647.552 272.021 647.517 272.162 647.493V649.204C271.915 649.263 271.353 649.298 270.872 649.298C268.634 649.298 267.767 648.384 267.767 646.04V638.692H265.951V637.017H267.767V634.075ZM275.418 649.204V637.017H277.458V649.204H275.418ZM276.438 634.966C275.747 634.966 275.172 634.392 275.172 633.7C275.172 632.997 275.747 632.435 276.438 632.435C277.141 632.435 277.715 632.997 277.715 633.7C277.715 634.392 277.141 634.966 276.438 634.966ZM281.828 649.204V638.692H280.128V637.017H281.828V635.657C281.828 633.313 282.917 632.2 285.167 632.2C285.625 632.2 286.117 632.247 286.41 632.294V633.946C286.164 633.911 285.824 633.876 285.484 633.876C284.382 633.876 283.855 634.462 283.855 635.669V637.017H286.351V638.692H283.867V649.204H281.828ZM289.526 649.204V637.017H291.565V649.204H289.526ZM290.545 634.966C289.854 634.966 289.28 634.392 289.28 633.7C289.28 632.997 289.854 632.435 290.545 632.435C291.249 632.435 291.823 632.997 291.823 633.7C291.823 634.392 291.249 634.966 290.545 634.966ZM305.404 641.013H303.412C303.119 639.688 302.087 638.599 300.295 638.599C298.185 638.599 296.755 640.345 296.755 643.11C296.755 645.946 298.209 647.622 300.318 647.622C301.982 647.622 303.072 646.743 303.423 645.278H305.427C305.111 647.704 303.072 649.415 300.306 649.415C296.931 649.415 294.681 647.036 294.681 643.11C294.681 639.267 296.92 636.806 300.283 636.806C303.33 636.806 305.146 638.821 305.404 641.013ZM312.282 647.681C314.204 647.681 315.68 646.333 315.68 644.575V643.579L312.423 643.778C310.782 643.884 309.844 644.61 309.844 645.759C309.844 646.919 310.817 647.681 312.282 647.681ZM311.825 649.415C309.399 649.415 307.77 647.95 307.77 645.759C307.77 643.673 309.376 642.36 312.188 642.196L315.68 641.997V640.978C315.68 639.489 314.696 638.599 313.008 638.599C311.438 638.599 310.454 639.337 310.196 640.532H308.227C308.368 638.423 310.173 636.806 313.055 636.806C315.915 636.806 317.719 638.353 317.719 640.778V649.204H315.786V647.106H315.739C315.012 648.501 313.465 649.415 311.825 649.415ZM321.925 634.075H323.965V637.017H326.332V638.692H323.965V645.935C323.965 647.048 324.433 647.552 325.476 647.552C325.711 647.552 326.179 647.517 326.32 647.493V649.204C326.074 649.263 325.511 649.298 325.031 649.298C322.793 649.298 321.925 648.384 321.925 646.04V638.692H320.109V637.017H321.925V634.075ZM329.577 649.204V637.017H331.616V649.204H329.577ZM330.596 634.966C329.905 634.966 329.331 634.392 329.331 633.7C329.331 632.997 329.905 632.435 330.596 632.435C331.3 632.435 331.874 632.997 331.874 633.7C331.874 634.392 331.3 634.966 330.596 634.966ZM340.381 649.415C337.006 649.415 334.732 646.989 334.732 643.11C334.732 639.22 337.006 636.806 340.381 636.806C343.744 636.806 346.017 639.22 346.017 643.11C346.017 646.989 343.744 649.415 340.381 649.415ZM340.381 647.622C342.537 647.622 343.943 645.981 343.943 643.11C343.943 640.239 342.537 638.599 340.381 638.599C338.224 638.599 336.806 640.239 336.806 643.11C336.806 645.981 338.224 647.622 340.381 647.622ZM349.04 649.204V637.017H350.962V638.962H351.009C351.688 637.649 352.989 636.806 354.876 636.806C357.548 636.806 359.095 638.528 359.095 641.294V649.204H357.055V641.657C357.055 639.688 356.13 638.61 354.255 638.61C352.333 638.61 351.079 639.97 351.079 642.032V649.204H349.04ZM362.445 640.38C362.445 638.294 364.308 636.806 366.992 636.806C369.512 636.806 371.363 638.306 371.457 640.368H369.512C369.371 639.196 368.422 638.47 366.922 638.47C365.433 638.47 364.449 639.208 364.449 640.274C364.449 641.118 365.094 641.681 366.476 642.032L368.363 642.489C370.824 643.11 371.715 644.001 371.715 645.794C371.715 647.915 369.711 649.415 366.863 649.415C364.191 649.415 362.328 647.962 362.117 645.806H364.156C364.379 647.071 365.34 647.751 366.992 647.751C368.644 647.751 369.664 647.048 369.664 645.946C369.664 645.079 369.16 644.61 367.789 644.247L365.644 643.696C363.5 643.146 362.445 642.044 362.445 640.38ZM376.19 652.567H374.491L375.628 646.603H377.796L376.19 652.567ZM390.579 647.681C392.501 647.681 393.977 646.333 393.977 644.575V643.579L390.72 643.778C389.079 643.884 388.142 644.61 388.142 645.759C388.142 646.919 389.114 647.681 390.579 647.681ZM390.122 649.415C387.696 649.415 386.067 647.95 386.067 645.759C386.067 643.673 387.673 642.36 390.485 642.196L393.977 641.997V640.978C393.977 639.489 392.993 638.599 391.306 638.599C389.735 638.599 388.751 639.337 388.493 640.532H386.524C386.665 638.423 388.47 636.806 391.352 636.806C394.212 636.806 396.017 638.353 396.017 640.778V649.204H394.083V647.106H394.036C393.31 648.501 391.763 649.415 390.122 649.415ZM399.566 649.204V637.017H401.488V638.962H401.535C402.215 637.649 403.516 636.806 405.402 636.806C408.074 636.806 409.621 638.528 409.621 641.294V649.204H407.582V641.657C407.582 639.688 406.656 638.61 404.781 638.61C402.859 638.61 401.605 639.97 401.605 642.032V649.204H399.566ZM417.8 649.415C414.694 649.415 412.585 646.931 412.585 643.11C412.585 639.29 414.683 636.806 417.753 636.806C419.499 636.806 420.905 637.661 421.632 638.997H421.679V632.294H423.718V649.204H421.773V647.142H421.737C420.952 648.548 419.558 649.415 417.8 649.415ZM418.187 638.599C416.03 638.599 414.671 640.356 414.671 643.11C414.671 645.876 416.03 647.622 418.187 647.622C420.284 647.622 421.69 645.841 421.69 643.11C421.69 640.392 420.284 638.599 418.187 638.599ZM61.3108 689.204V672.294H63.3498V678.962H63.3967C64.0764 677.603 65.4123 676.806 67.2639 676.806C69.9358 676.806 71.553 678.61 71.553 681.329V689.204H69.5139V681.704C69.5139 679.771 68.5412 678.61 66.6311 678.61C64.6037 678.61 63.3498 679.993 63.3498 682.103V689.204H61.3108ZM75.2083 689.204V677.017H77.2473V689.204H75.2083ZM76.2278 674.966C75.5364 674.966 74.9622 674.392 74.9622 673.7C74.9622 672.997 75.5364 672.435 76.2278 672.435C76.9309 672.435 77.5051 672.997 77.5051 673.7C77.5051 674.392 76.9309 674.966 76.2278 674.966ZM85.9183 687.505C88.0394 687.505 89.4573 685.747 89.4573 683.063C89.4573 680.38 88.0394 678.599 85.9183 678.599C83.8206 678.599 82.4495 680.333 82.4495 683.063C82.4495 685.794 83.8206 687.505 85.9183 687.505ZM85.9886 693.798C83.305 693.798 81.1839 692.286 80.8441 690.212H82.9417C83.3402 691.325 84.5472 692.063 86.0706 692.063C88.18 692.063 89.4573 690.845 89.4573 689.028V687.106H89.4105C88.6605 688.431 87.2191 689.298 85.5081 689.298C82.4027 689.298 80.3636 686.849 80.3636 683.063C80.3636 679.243 82.4027 676.806 85.555 676.806C87.2777 676.806 88.7073 677.649 89.5159 679.067H89.5511V677.017H91.4964V688.958C91.4964 691.864 89.3519 693.798 85.9886 693.798ZM95.222 689.204V672.294H97.2611V678.962H97.308C97.9877 677.603 99.3236 676.806 101.175 676.806C103.847 676.806 105.464 678.61 105.464 681.329V689.204H103.425V681.704C103.425 679.771 102.452 678.61 100.542 678.61C98.515 678.61 97.2611 679.993 97.2611 682.103V689.204H95.222ZM109.12 689.204V672.294H111.159V689.204H109.12ZM114.978 689.204V677.017H117.017V689.204H114.978ZM115.997 674.966C115.306 674.966 114.732 674.392 114.732 673.7C114.732 672.997 115.306 672.435 115.997 672.435C116.701 672.435 117.275 672.997 117.275 673.7C117.275 674.392 116.701 674.966 115.997 674.966ZM125.688 687.505C127.809 687.505 129.227 685.747 129.227 683.063C129.227 680.38 127.809 678.599 125.688 678.599C123.59 678.599 122.219 680.333 122.219 683.063C122.219 685.794 123.59 687.505 125.688 687.505ZM125.758 693.798C123.075 693.798 120.954 692.286 120.614 690.212H122.711C123.11 691.325 124.317 692.063 125.84 692.063C127.95 692.063 129.227 690.845 129.227 689.028V687.106H129.18C128.43 688.431 126.989 689.298 125.278 689.298C122.172 689.298 120.133 686.849 120.133 683.063C120.133 679.243 122.172 676.806 125.325 676.806C127.047 676.806 128.477 677.649 129.286 679.067H129.321V677.017H131.266V688.958C131.266 691.864 129.122 693.798 125.758 693.798ZM134.992 689.204V672.294H137.031V678.962H137.078C137.757 677.603 139.093 676.806 140.945 676.806C143.617 676.806 145.234 678.61 145.234 681.329V689.204H143.195V681.704C143.195 679.771 142.222 678.61 140.312 678.61C138.285 678.61 137.031 679.993 137.031 682.103V689.204H134.992ZM149.44 674.075H151.479V677.017H153.846V678.692H151.479V685.935C151.479 687.048 151.948 687.552 152.991 687.552C153.225 687.552 153.694 687.517 153.835 687.493V689.204C153.588 689.263 153.026 689.298 152.545 689.298C150.307 689.298 149.44 688.384 149.44 686.04V678.692H147.624V677.017H149.44V674.075ZM157.091 689.204V677.017H159.13V689.204H157.091ZM158.111 674.966C157.42 674.966 156.845 674.392 156.845 673.7C156.845 672.997 157.42 672.435 158.111 672.435C158.814 672.435 159.388 672.997 159.388 673.7C159.388 674.392 158.814 674.966 158.111 674.966ZM162.844 689.204V677.017H164.766V678.962H164.813C165.493 677.649 166.794 676.806 168.68 676.806C171.352 676.806 172.899 678.528 172.899 681.294V689.204H170.86V681.657C170.86 679.688 169.934 678.61 168.059 678.61C166.137 678.61 164.883 679.97 164.883 682.032V689.204H162.844ZM181.418 687.505C183.539 687.505 184.957 685.747 184.957 683.063C184.957 680.38 183.539 678.599 181.418 678.599C179.32 678.599 177.949 680.333 177.949 683.063C177.949 685.794 179.32 687.505 181.418 687.505ZM181.488 693.798C178.804 693.798 176.683 692.286 176.343 690.212H178.441C178.84 691.325 180.047 692.063 181.57 692.063C183.679 692.063 184.957 690.845 184.957 689.028V687.106H184.91C184.16 688.431 182.718 689.298 181.007 689.298C177.902 689.298 175.863 686.849 175.863 683.063C175.863 679.243 177.902 676.806 181.054 676.806C182.777 676.806 184.207 677.649 185.015 679.067H185.05V677.017H186.996V688.958C186.996 691.864 184.851 693.798 181.488 693.798ZM200.517 687.681C202.439 687.681 203.916 686.333 203.916 684.575V683.579L200.658 683.778C199.017 683.884 198.08 684.61 198.08 685.759C198.08 686.919 199.052 687.681 200.517 687.681ZM200.06 689.415C197.635 689.415 196.006 687.95 196.006 685.759C196.006 683.673 197.611 682.36 200.424 682.196L203.916 681.997V680.978C203.916 679.489 202.931 678.599 201.244 678.599C199.674 678.599 198.689 679.337 198.431 680.532H196.463C196.603 678.423 198.408 676.806 201.291 676.806C204.15 676.806 205.955 678.353 205.955 680.778V689.204H204.021V687.106H203.974C203.248 688.501 201.701 689.415 200.06 689.415ZM209.505 689.204V677.017H211.427V678.962H211.473C212.153 677.649 213.454 676.806 215.341 676.806C218.012 676.806 219.559 678.528 219.559 681.294V689.204H217.52V681.657C217.52 679.688 216.595 678.61 214.72 678.61C212.798 678.61 211.544 679.97 211.544 682.032V689.204H209.505ZM227.738 689.415C224.633 689.415 222.523 686.931 222.523 683.11C222.523 679.29 224.621 676.806 227.691 676.806C229.437 676.806 230.844 677.661 231.57 678.997H231.617V672.294H233.656V689.204H231.711V687.142H231.676C230.89 688.548 229.496 689.415 227.738 689.415ZM228.125 678.599C225.969 678.599 224.609 680.356 224.609 683.11C224.609 685.876 225.969 687.622 228.125 687.622C230.222 687.622 231.629 685.841 231.629 683.11C231.629 680.392 230.222 678.599 228.125 678.599ZM243.908 674.075H245.947V677.017H248.314V678.692H245.947V685.935C245.947 687.048 246.416 687.552 247.459 687.552C247.693 687.552 248.162 687.517 248.303 687.493V689.204C248.057 689.263 247.494 689.298 247.014 689.298C244.775 689.298 243.908 688.384 243.908 686.04V678.692H242.092V677.017H243.908V674.075ZM255.239 687.681C257.161 687.681 258.638 686.333 258.638 684.575V683.579L255.38 683.778C253.739 683.884 252.802 684.61 252.802 685.759C252.802 686.919 253.774 687.681 255.239 687.681ZM254.782 689.415C252.356 689.415 250.727 687.95 250.727 685.759C250.727 683.673 252.333 682.36 255.145 682.196L258.638 681.997V680.978C258.638 679.489 257.653 678.599 255.966 678.599C254.395 678.599 253.411 679.337 253.153 680.532H251.185C251.325 678.423 253.13 676.806 256.013 676.806C258.872 676.806 260.677 678.353 260.677 680.778V689.204H258.743V687.106H258.696C257.97 688.501 256.423 689.415 254.782 689.415ZM266.371 682.431L271.762 677.017H274.234L268.949 682.278L274.398 689.204H272.031L267.508 683.532L266.371 684.61V689.204H264.332V672.294H266.371V682.431ZM276.94 689.204V677.017H278.98V689.204H276.94ZM277.96 674.966C277.269 674.966 276.694 674.392 276.694 673.7C276.694 672.997 277.269 672.435 277.96 672.435C278.663 672.435 279.237 672.997 279.237 673.7C279.237 674.392 278.663 674.966 277.96 674.966ZM282.693 689.204V677.017H284.615V678.962H284.662C285.342 677.649 286.643 676.806 288.529 676.806C291.201 676.806 292.748 678.528 292.748 681.294V689.204H290.709V681.657C290.709 679.688 289.783 678.61 287.908 678.61C285.986 678.61 284.732 679.97 284.732 682.032V689.204H282.693ZM301.267 687.505C303.388 687.505 304.806 685.747 304.806 683.063C304.806 680.38 303.388 678.599 301.267 678.599C299.169 678.599 297.798 680.333 297.798 683.063C297.798 685.794 299.169 687.505 301.267 687.505ZM301.337 693.798C298.653 693.798 296.532 692.286 296.192 690.212H298.29C298.689 691.325 299.896 692.063 301.419 692.063C303.528 692.063 304.806 690.845 304.806 689.028V687.106H304.759C304.009 688.431 302.567 689.298 300.857 689.298C297.751 689.298 295.712 686.849 295.712 683.063C295.712 679.243 297.751 676.806 300.903 676.806C302.626 676.806 304.056 677.649 304.864 679.067H304.9V677.017H306.845V688.958C306.845 691.864 304.7 693.798 301.337 693.798ZM316.347 689.204V677.017H318.269V678.962H318.316C318.995 677.649 320.296 676.806 322.183 676.806C324.855 676.806 326.402 678.528 326.402 681.294V689.204H324.362V681.657C324.362 679.688 323.437 678.61 321.562 678.61C319.64 678.61 318.386 679.97 318.386 682.032V689.204H316.347ZM335.014 689.415C331.639 689.415 329.365 686.989 329.365 683.11C329.365 679.22 331.639 676.806 335.014 676.806C338.377 676.806 340.651 679.22 340.651 683.11C340.651 686.989 338.377 689.415 335.014 689.415ZM335.014 687.622C337.17 687.622 338.576 685.981 338.576 683.11C338.576 680.239 337.17 678.599 335.014 678.599C332.858 678.599 331.44 680.239 331.44 683.11C331.44 685.981 332.858 687.622 335.014 687.622ZM344.329 674.075H346.368V677.017H348.736V678.692H346.368V685.935C346.368 687.048 346.837 687.552 347.88 687.552C348.115 687.552 348.583 687.517 348.724 687.493V689.204C348.478 689.263 347.915 689.298 347.435 689.298C345.197 689.298 344.329 688.384 344.329 686.04V678.692H342.513V677.017H344.329V674.075ZM356.41 678.575C354.5 678.575 353.164 680.04 353.035 682.067H359.657C359.61 680.028 358.332 678.575 356.41 678.575ZM359.61 685.712H361.614C361.262 687.845 359.2 689.415 356.539 689.415C353.047 689.415 350.926 686.989 350.926 683.157C350.926 679.372 353.082 676.806 356.446 676.806C359.739 676.806 361.766 679.196 361.766 682.888V683.661H353.024V683.778C353.024 686.11 354.395 687.646 356.586 687.646C358.133 687.646 359.27 686.86 359.61 685.712ZM364.578 680.38C364.578 678.294 366.441 676.806 369.124 676.806C371.644 676.806 373.495 678.306 373.589 680.368H371.644C371.503 679.196 370.554 678.47 369.054 678.47C367.566 678.47 366.581 679.208 366.581 680.274C366.581 681.118 367.226 681.681 368.609 682.032L370.495 682.489C372.956 683.11 373.847 684.001 373.847 685.794C373.847 687.915 371.843 689.415 368.995 689.415C366.324 689.415 364.46 687.962 364.249 685.806H366.288C366.511 687.071 367.472 687.751 369.124 687.751C370.777 687.751 371.796 687.048 371.796 685.946C371.796 685.079 371.292 684.61 369.921 684.247L367.777 683.696C365.632 683.146 364.578 682.044 364.578 680.38ZM387.861 689.415C384.486 689.415 382.212 686.989 382.212 683.11C382.212 679.22 384.486 676.806 387.861 676.806C391.224 676.806 393.497 679.22 393.497 683.11C393.497 686.989 391.224 689.415 387.861 689.415ZM387.861 687.622C390.017 687.622 391.423 685.981 391.423 683.11C391.423 680.239 390.017 678.599 387.861 678.599C385.705 678.599 384.287 680.239 384.287 683.11C384.287 685.981 385.705 687.622 387.861 687.622ZM396.52 689.204V677.017H398.442V678.962H398.489C399.168 677.649 400.469 676.806 402.356 676.806C405.028 676.806 406.575 678.528 406.575 681.294V689.204H404.536V681.657C404.536 679.688 403.61 678.61 401.735 678.61C399.813 678.61 398.559 679.97 398.559 682.032V689.204H396.52ZM426.014 677.017L421.538 689.204H419.452L414.963 677.017H417.108L420.471 687.036H420.518L423.893 677.017H426.014ZM433.115 678.575C431.205 678.575 429.869 680.04 429.74 682.067H436.361C436.314 680.028 435.037 678.575 433.115 678.575ZM436.314 685.712H438.318C437.966 687.845 435.904 689.415 433.244 689.415C429.752 689.415 427.63 686.989 427.63 683.157C427.63 679.372 429.787 676.806 433.15 676.806C436.443 676.806 438.47 679.196 438.47 682.888V683.661H429.728V683.778C429.728 686.11 431.099 687.646 433.291 687.646C434.837 687.646 435.974 686.86 436.314 685.712ZM441.493 689.204V677.017H443.415V679.009H443.462C443.86 677.661 444.985 676.806 446.415 676.806C446.766 676.806 447.071 676.864 447.235 676.888V678.868C447.071 678.81 446.637 678.751 446.145 678.751C444.563 678.751 443.532 679.888 443.532 681.61V689.204H441.493ZM449.648 680.38C449.648 678.294 451.511 676.806 454.195 676.806C456.715 676.806 458.566 678.306 458.66 680.368H456.715C456.574 679.196 455.625 678.47 454.125 678.47C452.636 678.47 451.652 679.208 451.652 680.274C451.652 681.118 452.297 681.681 453.679 682.032L455.566 682.489C458.027 683.11 458.918 684.001 458.918 685.794C458.918 687.915 456.914 689.415 454.066 689.415C451.394 689.415 449.531 687.962 449.32 685.806H451.359C451.582 687.071 452.543 687.751 454.195 687.751C455.847 687.751 456.867 687.048 456.867 685.946C456.867 685.079 456.363 684.61 454.992 684.247L452.847 683.696C450.703 683.146 449.648 682.044 449.648 680.38ZM466.885 678.575C464.975 678.575 463.639 680.04 463.51 682.067H470.132C470.085 680.028 468.807 678.575 466.885 678.575ZM470.085 685.712H472.089C471.737 687.845 469.674 689.415 467.014 689.415C463.522 689.415 461.401 686.989 461.401 683.157C461.401 679.372 463.557 676.806 466.921 676.806C470.214 676.806 472.241 679.196 472.241 682.888V683.661H463.499V683.778C463.499 686.11 464.87 687.646 467.061 687.646C468.608 687.646 469.745 686.86 470.085 685.712ZM475.052 680.38C475.052 678.294 476.916 676.806 479.599 676.806C482.119 676.806 483.97 678.306 484.064 680.368H482.119C481.978 679.196 481.029 678.47 479.529 678.47C478.041 678.47 477.056 679.208 477.056 680.274C477.056 681.118 477.701 681.681 479.084 682.032L480.97 682.489C483.431 683.11 484.322 684.001 484.322 685.794C484.322 687.915 482.318 689.415 479.47 689.415C476.799 689.415 474.935 687.962 474.724 685.806H476.763C476.986 687.071 477.947 687.751 479.599 687.751C481.252 687.751 482.271 687.048 482.271 685.946C482.271 685.079 481.767 684.61 480.396 684.247L478.252 683.696C476.107 683.146 475.052 682.044 475.052 680.38Z" fill="black"/>
<g filter="url(#filter0_d_394_650)">
<rect x="140.365" y="228.88" width="272.382" height="111.871" rx="55.9357" fill="#848484"/>
</g>
<g filter="url(#filter1_dd_394_650)">
<ellipse cx="354.785" cy="284.815" rx="48.2344" ry="48.6397" fill="white"/>
</g>
<g filter="url(#filter2_d_394_650)">
<path d="M215.761 276.377C215.761 279.855 212.932 282.684 209.454 282.684C205.976 282.684 203.147 279.855 203.147 276.377C203.147 272.899 205.976 270.07 209.454 270.07C212.932 270.07 215.761 272.899 215.761 276.377ZM212.157 285.909C211.256 286.143 210.355 286.288 209.454 286.288C206.827 286.283 204.309 285.237 202.451 283.38C200.594 281.522 199.548 279.004 199.543 276.377C199.543 273.728 200.589 271.332 202.246 269.548C201.919 269.147 201.507 268.824 201.039 268.603C200.572 268.381 200.061 268.267 199.543 268.268C197.561 268.268 195.94 269.89 195.94 271.872V272.395C190.588 273.981 186.93 278.9 186.93 284.486V295.297L183.326 298.901V300.703H215.761V298.901L212.157 295.297V285.909ZM199.543 306.109C201.544 306.109 203.147 304.505 203.147 302.505H195.94C195.94 303.461 196.319 304.377 196.995 305.053C197.671 305.729 198.588 306.109 199.543 306.109Z" fill="white"/>
</g>
<g filter="url(#filter3_d_394_650)">
<path d="M270.331 287.294L259.647 297.978C259.024 298.6 258.582 299.38 258.368 300.234L257.539 303.548C257.457 303.877 257.462 304.222 257.553 304.549C257.644 304.877 257.818 305.175 258.058 305.415C258.298 305.655 258.596 305.828 258.924 305.919C259.251 306.01 259.596 306.014 259.925 305.932L263.239 305.105C264.093 304.891 264.873 304.449 265.495 303.826L276.179 293.142C276.945 292.365 277.372 291.316 277.368 290.224C277.363 289.133 276.928 288.087 276.156 287.315C275.384 286.544 274.338 286.108 273.246 286.104C272.155 286.1 271.106 286.528 270.329 287.294M250.843 269.492C250.843 269.198 250.726 268.917 250.519 268.71C250.312 268.502 250.03 268.386 249.737 268.386C249.444 268.386 249.162 268.502 248.955 268.71C248.748 268.917 248.631 269.198 248.631 269.492V270.598H247.525C246.645 270.598 245.801 270.947 245.179 271.57C244.557 272.192 244.207 273.036 244.207 273.916V300.46C244.207 301.34 244.557 302.184 245.179 302.806C245.801 303.428 246.645 303.778 247.525 303.778H255.274C255.289 303.526 255.329 303.269 255.393 303.01L256.223 299.697C256.532 298.453 257.175 297.318 258.081 296.412L268.765 285.728C269.335 285.157 270.009 284.7 270.751 284.383V273.916C270.751 273.036 270.401 272.192 269.779 271.57C269.157 270.947 268.313 270.598 267.433 270.598H266.327V269.492C266.327 269.198 266.21 268.917 266.003 268.71C265.796 268.502 265.514 268.386 265.221 268.386C264.928 268.386 264.646 268.502 264.439 268.71C264.232 268.917 264.115 269.198 264.115 269.492V270.598H258.585V269.492C258.585 269.198 258.468 268.917 258.261 268.71C258.054 268.502 257.772 268.386 257.479 268.386C257.186 268.386 256.904 268.502 256.697 268.71C256.49 268.917 256.373 269.198 256.373 269.492V270.598H250.843V269.492ZM251.949 279.446H263.009C263.302 279.446 263.584 279.562 263.791 279.77C263.998 279.977 264.115 280.258 264.115 280.552C264.115 280.845 263.998 281.126 263.791 281.334C263.584 281.541 263.302 281.658 263.009 281.658H251.949C251.656 281.658 251.374 281.541 251.167 281.334C250.96 281.126 250.843 280.845 250.843 280.552C250.843 280.258 250.96 279.977 251.167 279.77C251.374 279.562 251.656 279.446 251.949 279.446ZM264.115 287.188C264.115 287.481 263.998 287.762 263.791 287.97C263.584 288.177 263.302 288.294 263.009 288.294H251.949C251.656 288.294 251.374 288.177 251.167 287.97C250.96 287.762 250.843 287.481 250.843 287.188C250.843 286.894 250.96 286.613 251.167 286.406C251.374 286.198 251.656 286.082 251.949 286.082H263.009C263.302 286.082 263.584 286.198 263.791 286.406C263.998 286.613 264.115 286.894 264.115 287.188ZM251.949 292.718H256.373C256.666 292.718 256.948 292.834 257.155 293.042C257.362 293.249 257.479 293.53 257.479 293.824C257.479 294.117 257.362 294.398 257.155 294.606C256.948 294.813 256.666 294.93 256.373 294.93H251.949C251.656 294.93 251.374 294.813 251.167 294.606C250.96 294.398 250.843 294.117 250.843 293.824C250.843 293.53 250.96 293.249 251.167 293.042C251.374 292.834 251.656 292.718 251.949 292.718Z" fill="white"/>
</g>
<defs>
<filter id="filter0_d_394_650" x="80.3652" y="172.88" width="392.383" height="231.871" filterUnits="userSpaceOnUse" color-interpolation-filters="sRGB">
<feFlood flood-opacity="0" result="BackgroundImageFix"/>
<feColorMatrix in="SourceAlpha" type="matrix" values="0 0 0 0 0 0 0 0 0 0 0 0 0 0 0 0 0 0 127 0" result="hardAlpha"/>
<feOffset dy="4"/>
<feGaussianBlur stdDeviation="30"/>
<feComposite in2="hardAlpha" operator="out"/>
<feColorMatrix type="matrix" values="0 0 0 0 0.208333 0 0 0 0 0.6675 0 0 0 0 1 0 0 0 0.15 0"/>
<feBlend mode="normal" in2="BackgroundImageFix" result="effect1_dropShadow_394_650"/>
<feBlend mode="normal" in="SourceGraphic" in2="effect1_dropShadow_394_650" result="shape"/>
</filter>
<filter id="filter1_dd_394_650" x="246.551" y="180.176" width="216.469" height="217.279" filterUnits="userSpaceOnUse" color-interpolation-filters="sRGB">
<feFlood flood-opacity="0" result="BackgroundImageFix"/>
<feColorMatrix in="SourceAlpha" type="matrix" values="0 0 0 0 0 0 0 0 0 0 0 0 0 0 0 0 0 0 127 0" result="hardAlpha"/>
<feOffset dy="4"/>
<feGaussianBlur stdDeviation="30"/>
<feComposite in2="hardAlpha" operator="out"/>
<feColorMatrix type="matrix" values="0 0 0 0 0.184314 0 0 0 0 0.333333 0 0 0 0 0.831373 0 0 0 0.1 0"/>
<feBlend mode="normal" in2="BackgroundImageFix" result="effect1_dropShadow_394_650"/>
<feColorMatrix in="SourceAlpha" type="matrix" values="0 0 0 0 0 0 0 0 0 0 0 0 0 0 0 0 0 0 127 0" result="hardAlpha"/>
<feOffset dy="4"/>
<feGaussianBlur stdDeviation="15"/>
<feComposite in2="hardAlpha" operator="out"/>
<feColorMatrix type="matrix" values="0 0 0 0 0.275995 0 0 0 0 0.447683 0 0 0 0 0.649231 0 0 0 0.25 0"/>
<feBlend mode="normal" in2="effect1_dropShadow_394_650" result="effect2_dropShadow_394_650"/>
<feBlend mode="normal" in="SourceGraphic" in2="effect2_dropShadow_394_650" result="shape"/>
</filter>
<filter id="filter2_d_394_650" x="153.326" y="242.268" width="92.4336" height="97.8402" filterUnits="userSpaceOnUse" color-interpolation-filters="sRGB">
<feFlood flood-opacity="0" result="BackgroundImageFix"/>
<feColorMatrix in="SourceAlpha" type="matrix" values="0 0 0 0 0 0 0 0 0 0 0 0 0 0 0 0 0 0 127 0" result="hardAlpha"/>
<feOffset dy="4"/>
<feGaussianBlur stdDeviation="15"/>
<feComposite in2="hardAlpha" operator="out"/>
<feColorMatrix type="matrix" values="0 0 0 0 0.672791 0 0 0 0 0.678538 0 0 0 0 0.680796 0 0 0 1 0"/>
<feBlend mode="normal" in2="BackgroundImageFix" result="effect1_dropShadow_394_650"/>
<feBlend mode="normal" in="SourceGraphic" in2="effect1_dropShadow_394_650" result="shape"/>
</filter>
<filter id="filter3_d_394_650" x="214.207" y="242.386" width="93.1602" height="97.6049" filterUnits="userSpaceOnUse" color-interpolation-filters="sRGB">
<feFlood flood-opacity="0" result="BackgroundImageFix"/>
<feColorMatrix in="SourceAlpha" type="matrix" values="0 0 0 0 0 0 0 0 0 0 0 0 0 0 0 0 0 0 127 0" result="hardAlpha"/>
<feOffset dy="4"/>
<feGaussianBlur stdDeviation="15"/>
<feComposite in2="hardAlpha" operator="out"/>
<feColorMatrix type="matrix" values="0 0 0 0 0.672791 0 0 0 0 0.678538 0 0 0 0 0.680796 0 0 0 1 0"/>
<feBlend mode="normal" in2="BackgroundImageFix" result="effect1_dropShadow_394_650"/>
<feBlend mode="normal" in="SourceGraphic" in2="effect1_dropShadow_394_650" result="shape"/>
</filter>
</defs>
</svg>
