<svg width="19" height="15" viewBox="0 0 19 15" fill="none" xmlns="http://www.w3.org/2000/svg">
<path d="M18.3713 5.01465C17.5627 5.64746 16.5432 6.4209 12.9573 9.02246C12.2542 9.5498 10.9534 10.71 9.7229 10.71C8.45728 10.71 7.19165 9.5498 6.45337 9.02246C2.86743 6.4209 1.8479 5.64746 1.03931 5.01465C0.898682 4.90918 0.7229 5.01465 0.7229 5.19043V12.3623C0.7229 13.3115 1.46118 14.0498 2.4104 14.0498H17.0354C17.9495 14.0498 18.7229 13.3115 18.7229 12.3623V5.19043C18.7229 5.01465 18.512 4.90918 18.3713 5.01465ZM9.7229 9.5498C10.5315 9.58496 11.6917 8.53027 12.2893 8.1084C16.9651 4.7334 17.3167 4.41699 18.3713 3.57324C18.5823 3.43262 18.7229 3.18652 18.7229 2.90527V2.2373C18.7229 1.32324 17.9495 0.549805 17.0354 0.549805H2.4104C1.46118 0.549805 0.7229 1.32324 0.7229 2.2373V2.90527C0.7229 3.18652 0.828369 3.43262 1.03931 3.57324C2.09399 4.41699 2.44556 4.7334 7.12134 8.1084C7.71899 8.53027 8.87915 9.58496 9.7229 9.5498Z" fill="#2B70FA"/>
</svg>
