<svg width="25" height="22" viewBox="0 0 25 22" fill="none" xmlns="http://www.w3.org/2000/svg">
<path fill-rule="evenodd" clip-rule="evenodd" d="M20.5383 19.6563V19.6539L20.5598 19.6028L24.1265 1.62041V1.56333C24.1265 1.11496 23.96 0.723674 23.6008 0.48938C23.2856 0.28363 22.9229 0.269358 22.6684 0.288387C22.4315 0.309814 22.1977 0.357684 21.9715 0.431104C21.875 0.46221 21.7798 0.497124 21.686 0.535763L21.6706 0.541709L1.78533 8.34238L1.77938 8.34476C1.71892 8.36541 1.65975 8.38963 1.60217 8.41731C1.46075 8.48085 1.32507 8.55645 1.19662 8.64328C0.940919 8.8193 0.454492 9.23318 0.536554 9.88967C0.604345 10.4344 0.978977 10.7793 1.2323 10.9589C1.38182 11.0636 1.54259 11.1514 1.71159 11.2205L1.74965 11.2372L1.76154 11.2407L1.76987 11.2443L5.24978 12.4158C5.23789 12.6334 5.2593 12.8558 5.31757 13.0758L7.05991 19.6872C7.15509 20.0476 7.36077 20.3691 7.64805 20.6066C7.93533 20.8441 8.28979 20.9856 8.66164 21.0114C9.0335 21.0371 9.40406 20.9457 9.72131 20.75C10.0385 20.5543 10.2865 20.2641 10.4304 19.9203L13.1515 17.0113L17.8243 20.5934L17.8909 20.622C18.3155 20.8075 18.7116 20.8658 19.0743 20.817C19.437 20.7671 19.7249 20.6149 19.9413 20.4424C20.1917 20.2394 20.3912 19.9808 20.5241 19.6872L20.5336 19.667L20.5372 19.6598L20.5383 19.6563ZM7.04207 12.6215C7.02278 12.5482 7.02736 12.4706 7.05517 12.4C7.08297 12.3294 7.13254 12.2695 7.19668 12.229L18.9958 4.7364C18.9958 4.7364 19.6904 4.3142 19.6654 4.7364C19.6654 4.7364 19.7891 4.81014 19.4168 5.15623C19.0648 5.48566 11.0072 13.2649 10.1914 14.0523C10.146 14.0963 10.1142 14.1524 10.0998 14.214L8.78441 19.2329L7.04207 12.6203V12.6215Z" fill="#E8C76B"/>
</svg>
