<svg width="36" height="32" viewBox="0 0 36 32" fill="none" xmlns="http://www.w3.org/2000/svg">
<path fill-rule="evenodd" clip-rule="evenodd" d="M29.9033 29.3268V29.3233L29.9349 29.2479L35.1945 2.73065V2.64647C35.1945 1.98529 34.9489 1.40829 34.4193 1.0628C33.9545 0.759393 33.4196 0.738348 33.0443 0.766408C32.695 0.798005 32.3503 0.868595 32.0166 0.976863C31.8743 1.02273 31.7339 1.07422 31.5957 1.1312L31.5729 1.13996L2.24959 12.6431L2.24082 12.6466C2.15167 12.677 2.06441 12.7127 1.97951 12.7535C1.77096 12.8472 1.57087 12.9587 1.38146 13.0868C1.0044 13.3463 0.287102 13.9566 0.408113 14.9247C0.508079 15.728 1.06052 16.2366 1.43408 16.5014C1.65457 16.6559 1.89163 16.7853 2.14085 16.8872L2.19698 16.9118L2.21451 16.917L2.22679 16.9223L7.35837 18.6498C7.34083 18.9707 7.3724 19.2987 7.45833 19.6231L10.0276 29.3724C10.168 29.9038 10.4713 30.378 10.8949 30.7282C11.3186 31.0784 11.8412 31.2871 12.3896 31.3251C12.9379 31.363 13.4844 31.2282 13.9522 30.9396C14.42 30.6511 14.7857 30.2232 14.9979 29.7162L19.0105 25.4264L25.9012 30.7088L25.9994 30.7509C26.6255 31.0245 27.2095 31.1104 27.7444 31.0385C28.2793 30.9649 28.7037 30.7404 29.0229 30.4861C29.3921 30.1868 29.6863 29.8054 29.8823 29.3724L29.8963 29.3426L29.9015 29.3321L29.9033 29.3268ZM10.0013 18.9532C9.97287 18.845 9.97964 18.7306 10.0206 18.6265C10.0616 18.5224 10.1347 18.4341 10.2293 18.3744L27.6286 7.32557C27.6286 7.32557 28.6528 6.70298 28.616 7.32557C28.616 7.32557 28.7984 7.4343 28.2495 7.94466C27.7304 8.43046 15.8484 19.902 14.6454 21.063C14.5785 21.1279 14.5316 21.2107 14.5103 21.3015L12.5706 28.7025L10.0013 18.9514V18.9532Z" fill="#E8C76B"/>
</svg>
