<svg width="36" height="32" viewBox="0 0 36 32" fill="none" xmlns="http://www.w3.org/2000/svg">
<path fill-rule="evenodd" clip-rule="evenodd" d="M30.1123 29.091V29.0875L30.1438 29.0121L35.4035 2.49481V2.41063C35.4035 1.74945 35.1579 1.17245 34.6283 0.826958C34.1635 0.523553 33.6286 0.502508 33.2533 0.530569C32.904 0.562165 32.5592 0.632755 32.2256 0.741023C32.0833 0.786893 31.9429 0.838378 31.8047 0.895356L31.7819 0.904125L2.45857 12.4072L2.4498 12.4107C2.36065 12.4412 2.27339 12.4769 2.18849 12.5177C1.97995 12.6114 1.77986 12.7229 1.59045 12.8509C1.21339 13.1105 0.496086 13.7208 0.617097 14.6889C0.717063 15.4921 1.26951 16.0007 1.64306 16.2655C1.86356 16.4201 2.10062 16.5495 2.34984 16.6514L2.40596 16.6759L2.4235 16.6812L2.43577 16.6864L7.56735 18.4139C7.54982 18.7349 7.58138 19.0628 7.66732 19.3873L10.2366 29.1366C10.377 29.668 10.6803 30.1421 11.1039 30.4923C11.5275 30.8426 12.0502 31.0513 12.5986 31.0892C13.1469 31.1271 13.6934 30.9924 14.1612 30.7038C14.629 30.4152 14.9947 29.9874 15.2068 29.4803L19.2195 25.1906L26.1101 30.473L26.2084 30.5151C26.8345 30.7886 27.4185 30.8746 27.9534 30.8027C28.4883 30.729 28.9127 30.5045 29.2319 30.2502C29.6011 29.9509 29.8953 29.5696 30.0912 29.1366L30.1053 29.1068L30.1105 29.0962L30.1123 29.091ZM10.2103 18.7173C10.1819 18.6092 10.1886 18.4947 10.2296 18.3907C10.2706 18.2866 10.3437 18.1983 10.4383 18.1386L27.8376 7.08973C27.8376 7.08973 28.8618 6.46713 28.825 7.08973C28.825 7.08973 29.0074 7.19846 28.4585 7.70882C27.9393 8.19461 16.0574 19.6661 14.8543 20.8271C14.7874 20.8921 14.7406 20.9749 14.7193 21.0657L12.7796 28.4666L10.2103 18.7156V18.7173Z" fill="#252D2E"/>
</svg>
