<svg width="27" height="22" viewBox="0 0 27 22" fill="none" xmlns="http://www.w3.org/2000/svg">
<path d="M26.6719 2.62C25.7022 3.04896 24.6739 3.33076 23.6211 3.45607C24.7304 2.79171 25.5604 1.74675 25.9565 0.515852C24.9146 1.13592 23.7723 1.57047 22.583 1.80553C21.7833 0.94987 20.7233 0.38239 19.5677 0.191316C18.4122 0.00024204 17.226 0.19628 16.1934 0.748952C15.1608 1.30162 14.3397 2.17997 13.8578 3.24743C13.3759 4.31489 13.2601 5.51166 13.5285 6.65169C11.4154 6.54596 9.34814 5.99697 7.46098 5.04036C5.57382 4.08376 3.90895 2.74093 2.5745 1.09907C2.10219 1.9103 1.854 2.83248 1.85533 3.77119C1.85533 5.61359 2.79431 7.24126 4.21868 8.19422C3.37501 8.16761 2.54991 7.93977 1.81212 7.52969V7.59449C1.81209 8.82175 2.23655 10.0112 3.01354 10.9612C3.79052 11.9112 4.87218 12.5632 6.07506 12.8066C5.2919 13.019 4.47064 13.0503 3.67359 12.8981C4.01274 13.9545 4.67384 14.8783 5.56427 15.5402C6.4547 16.2021 7.52987 16.5689 8.63918 16.5892C7.53673 17.4551 6.27441 18.0951 4.9244 18.4728C3.57439 18.8504 2.16318 18.9582 0.771484 18.7899C3.20056 20.352 6.02818 21.1813 8.91617 21.1787C18.6923 21.1787 24.0366 13.081 24.0366 6.05831C24.0366 5.8296 24.0315 5.59834 24.0213 5.3709C25.0612 4.61915 25.9588 3.68677 26.6719 2.62Z" fill="#E8C76B"/>
</svg>
