<svg width="39" height="32" viewBox="0 0 39 32" fill="none" xmlns="http://www.w3.org/2000/svg">
<path d="M38.8418 4.20398C37.4119 4.83653 35.8957 5.25208 34.3431 5.43687C35.9789 4.45718 37.2029 2.91626 37.7869 1.10114C36.2505 2.0155 34.566 2.65631 32.8123 3.00294C31.633 1.74115 30.0699 0.904333 28.3659 0.62257C26.662 0.340807 24.9127 0.629889 23.39 1.44488C21.8673 2.25986 20.6565 3.55509 19.9458 5.12919C19.2352 6.7033 19.0645 8.46809 19.4603 10.1492C16.3443 9.9933 13.2958 9.18374 10.5129 7.77311C7.73009 6.36247 5.27504 4.3823 3.30721 1.96117C2.61074 3.15743 2.24474 4.51731 2.2467 5.90154C2.2467 8.6184 3.63136 11.0186 5.73177 12.4239C4.48766 12.3846 3.27095 12.0487 2.18299 11.4439V11.5395C2.18294 13.3492 2.80887 15.1033 3.95463 16.5042C5.10039 17.905 6.69544 18.8665 8.46924 19.2254C7.31437 19.5387 6.10331 19.5848 4.92795 19.3603C5.42809 20.9181 6.40295 22.2804 7.71601 23.2564C9.02906 24.2325 10.6145 24.7734 12.2504 24.8034C10.6247 26.0802 8.76319 27.024 6.77243 27.5809C4.78168 28.1377 2.70067 28.2967 0.648437 28.0486C4.23042 30.3521 8.40011 31.575 12.6588 31.5711C27.075 31.5711 34.9558 19.6301 34.9558 9.27419C34.9558 8.93693 34.9483 8.59592 34.9333 8.26052C36.4667 7.15197 37.7903 5.77706 38.8418 4.20398Z" fill="#E8C76B"/>
</svg>
