<svg width="40" height="32" viewBox="0 0 40 32" fill="none" xmlns="http://www.w3.org/2000/svg">
<path d="M39.0508 3.96863C37.6209 4.60118 36.1046 5.01673 34.5521 5.20152C36.1879 4.22183 37.4119 2.68091 37.9959 0.865789C36.4595 1.78015 34.775 2.42095 33.0213 2.76759C31.842 1.5058 30.2788 0.668982 28.5749 0.387219C26.8709 0.105455 25.1216 0.394538 23.5989 1.20952C22.0762 2.02451 20.8655 3.31974 20.1548 4.89384C19.4442 6.46795 19.2735 8.23274 19.6693 9.91386C16.5532 9.75795 13.5048 8.94839 10.7219 7.53776C7.93907 6.12712 5.48402 4.14694 3.51619 1.72581C2.81972 2.92207 2.45373 4.28196 2.45568 5.66619C2.45568 8.38305 3.84034 10.7833 5.94075 12.1885C4.69665 12.1493 3.47993 11.8133 2.39198 11.2086V11.3041C2.39192 13.1139 3.01785 14.8679 4.16361 16.2688C5.30937 17.6697 6.90442 18.6311 8.67822 18.99C7.52335 19.3033 6.31229 19.3495 5.13694 19.1249C5.63707 20.6827 6.61194 22.045 7.92499 23.0211C9.23805 23.9971 10.8235 24.538 12.4593 24.568C10.8336 25.8448 8.97218 26.7887 6.98142 27.3455C4.99066 27.9024 2.90966 28.0613 0.857422 27.8133C4.4394 30.1167 8.60909 31.3397 12.8678 31.3358C27.284 31.3358 35.1648 19.3947 35.1648 9.03884C35.1648 8.70158 35.1573 8.36056 35.1423 8.02517C36.6757 6.91662 37.9993 5.54171 39.0508 3.96863Z" fill="#252D2E"/>
</svg>
